<svg width="77" height="56" viewBox="0 0 77 56" fill="none" xmlns="http://www.w3.org/2000/svg">
<path d="M4.99979 17.7418C6.66058 17.7418 8.77586 16.9587 10.1946 16.8566M10.1946 16.8566C10.8128 16.8121 11.2987 16.8969 11.5571 17.2321C12.2384 18.1157 14.4526 20.7722 15.4745 21.9899C16.1262 22.8945 16.774 23.2965 17.348 23.4147M10.1946 16.8566C9.76878 16.387 8.84906 15.3629 8.57654 15.0231M17.348 23.4147C18.1543 23.5807 18.815 23.1869 19.1364 22.8396C19.9539 21.9559 18.8692 20.8854 17.348 17.7418C16.3336 15.6454 12.6681 12.0728 10.7055 11.0538M17.348 23.4147C19.1364 25.7282 20.3116 26.9857 19.5622 27.9373C19.1364 28.4779 16.979 29.2966 15.219 26.6628C15.068 26.4368 14.7427 25.9854 14.4155 25.5583M2.87082 22.2448L10.1946 21.5651C10.961 21.5651 12.1533 22.8396 13.9416 24.9636C14.0854 25.1343 14.2507 25.3432 14.4155 25.5583M8.57654 28.6169C9.7961 29.5208 11.5396 31.5042 12.1533 34.1902M14.4155 25.5583C14.3748 26.6628 14.3177 28.498 14.4155 29.3816C14.5418 30.5229 13.1706 30.936 12.1533 29.9515M4.99979 27.5124C7.8952 27.0027 8.15074 25.5583 8.83202 25.5583C9.37705 25.5583 11.0504 26.5389 11.1313 27.4275C11.2432 28.6549 11.6559 29.4702 12.1533 29.9515M12.1533 29.9515V34.1902M12.1533 34.1902C12.4881 35.6555 12.9028 37.625 11.5903 40.25M19.9028 39.1522C19.9028 39.6336 19.7155 40.8854 18.9661 42.0409C18.0293 43.4852 16.5816 47.6484 16.1558 55.125H4.99979C5.59591 50.3105 6.72002 40.3077 6.44751 38.8123C6.10687 36.9432 0.486305 27.3425 0.656625 24.9636C0.826945 22.5847 1.25278 23.1794 1.4231 21.5651C1.59342 19.9509 2.61534 20.3757 3.04114 18.6764C3.28556 17.701 4.8488 15.2419 6.50673 13.3238M6.50673 13.3238C7.73709 11.9004 9.01958 10.775 9.85394 10.775C10.0699 10.775 10.3615 10.8751 10.7055 11.0538M6.50673 13.3238C6.03282 11.6246 5.2042 8.00524 5.6811 7.12163C6.27722 6.01713 10.1094 5.33744 11.1313 5.25248C12.1533 5.16752 14.3674 7.29156 15.219 8.05621C16.8371 9.50906 14.3674 11.0299 11.5571 9.75546L10.7055 9.24569M10.7055 9.24569V11.0538M10.7055 9.24569C10.4501 9.07577 10.0527 8.79256 9.85394 8.566M10.7055 9.24569C10.1094 9.75546 8.40622 10.0953 7.29914 9.50057" stroke="#FF7A5C" stroke-width="0.875" stroke-linecap="round" stroke-linejoin="round"/>
<path d="M13 38.9375H72.5625C74.7716 38.9375 76.5625 37.1466 76.5625 34.9375V4.4375C76.5625 2.22836 74.7716 0.4375 72.5625 0.4375H15.375C13.1659 0.4375 11.375 2.22836 11.375 4.4375V4.8125M51.625 7L34.5625 31.9375M36.3125 8.3125C30.625 8.3125 30.1875 17.5 36.3125 17.5C42.4375 17.5 42.875 8.3125 36.3125 8.3125ZM50.75 21C45.0625 21 44.625 30.1875 50.75 30.1875C56.875 30.1875 57.3125 21 50.75 21Z" stroke="#786DF5" stroke-width="0.875" stroke-linecap="round"/>
</svg>
