<svg width="77" height="56" viewBox="0 0 77 56" fill="none" xmlns="http://www.w3.org/2000/svg">
<circle cx="52.5" cy="31.5" r="24.0625" fill="#140C28" stroke="#786DF5" stroke-width="0.875"/>
<path d="M42 39.375L52.5 31.5L44.625 49.875" stroke="#786DF5" stroke-width="0.875" stroke-linecap="round" stroke-linejoin="round"/>
<circle cx="52.5" cy="31.5" r="2.1875" fill="#140C28" stroke="#786DF5" stroke-width="0.875"/>
<path d="M4.74678 1.72395L1.10771 15.3052C4.15828 16.1226 11.9919 18.351 13.6929 19.3243C15.8191 20.541 16.8308 22.1059 20.5912 23.7605C24.3516 25.415 32.4843 27.9904 34.8532 27.582C36.3223 27.3287 37.2186 26.5984 37.623 25.0894C38.5766 25.4528 40.1568 26.0918 41.38 25.4492C42.1954 25.0207 43.2535 23.6868 42.8424 22.6063C43.796 22.9696 45.9147 23.4295 46.7612 22.3624C47.8192 21.0285 47.6515 19.3086 44.3087 17.5001C47.0606 18.5609 54.7712 21.5974 56.5369 22.3293C58.7439 23.2442 60.0124 22.7093 60.3975 21.8421C60.7825 20.9748 60.1365 19.7737 57.3566 18.3819C54.5767 16.9901 45.233 13.4987 41.4727 11.8442C40.5595 11.2928 37.5704 9.63476 36.1206 8.83666C35.2048 8.33253 32.7602 6.88043 30.2297 7.17279C27.6991 7.46516 22.5855 7.3933 19.8898 6.99447C17.1942 6.59565 5.07352 1.8115 4.74678 1.72395Z" fill="#140C28"/>
<path d="M37.623 25.0894C37.2186 26.5984 36.3223 27.3287 34.8532 27.582C32.4843 27.9904 24.3516 25.415 20.5912 23.7605C16.8308 22.1059 15.8191 20.541 13.6929 19.3243C11.9919 18.351 4.15828 16.1226 1.10771 15.3052L4.74678 1.72395C5.07352 1.8115 17.1942 6.59565 19.8898 6.99447C22.5855 7.3933 27.6991 7.46516 30.2297 7.1728C32.7602 6.88043 35.2048 8.33253 36.1206 8.83666C37.647 9.67695 40.8798 11.4704 41.5995 11.9221C42.4992 12.4866 45.1983 14.1803 47.4053 15.0951C49.6124 16.0099 47.2504 18.2884 44.3087 17.5001M37.623 25.0894C38.5766 25.4528 40.1568 26.0918 41.38 25.4492C42.1954 25.0207 43.2535 23.6868 42.8424 22.6063M37.623 25.0894C36.3953 24.0057 32.299 21.2691 30.598 20.2958C30.2648 20.1052 29.9558 19.9528 29.6706 19.8348M42.8424 22.6063C43.796 22.9696 45.9147 23.4295 46.7612 22.3624C47.8192 21.0285 47.6515 19.3086 44.3087 17.5001M42.8424 22.6063C40.5522 21.13 34.5107 17.7213 33.5295 17.1996M44.3087 17.5001C47.0606 18.5609 54.7712 21.5974 56.5369 22.3293C58.7439 23.2442 60.0124 22.7093 60.3975 21.8421C60.7825 20.9748 60.1365 19.7737 57.3566 18.3819C54.5767 16.9901 45.233 13.4987 41.4727 11.8442M44.3087 17.5001C41.4819 16.7427 38.7271 15.4843 36.0533 14.3177C34.8268 13.6655 33.7378 13.301 32.9499 14.1331C32.5913 14.5118 32.5077 14.9207 32.5699 15.3251M31.7263 25.182C31.3444 24.864 30.5523 24.321 29.1775 23.1763C27.459 21.7455 26.8443 21.2309 27.0869 20.3254C27.2915 19.5619 28.1359 19.1999 29.6706 19.8348M29.6706 19.8348C29.3788 19.1805 28.9907 17.6655 29.7725 16.8399C30.7496 15.8078 32.303 16.5475 33.5295 17.1996M33.5295 17.1996C33.2181 16.7067 32.6772 16.0226 32.5699 15.3251M32.5699 15.3251C32.2187 15.5545 30.7496 15.8078 26.8308 16.0517C22.912 16.2955 20.6241 15.6825 18.7438 14.8552" stroke="#FF7A5C" stroke-width="0.875" stroke-linecap="round" stroke-linejoin="round"/>
</svg>
