<svg width="77" height="56" viewBox="0 0 77 56" fill="none" xmlns="http://www.w3.org/2000/svg">
<g clip-path="url(#clip0)">
<rect width="29.75" height="43.75" transform="matrix(-0.972753 -0.231846 -0.231846 0.972753 66.8291 13.0225)" fill="#140C28" stroke="#786DF5" stroke-width="0.875" stroke-linejoin="round"/>
<path d="M47.5147 2.62505L76.4541 9.52246L66.3109 52.0804L37.3715 45.183L43.2395 20.5625L43.8651 17.9375L44.4908 15.3125L45.2207 12.25L47.5147 2.62505Z" fill="#140C28"/>
<path d="M45.2207 12.25L47.5147 2.62505L76.4541 9.52246L66.3109 52.0804L37.3715 45.183L43.2395 20.5625M45.2207 12.25L44.4908 15.3125M45.2207 12.25L71.2041 18.5403M44.4908 15.3125L43.8651 17.9375M44.4908 15.3125L70.4575 21.5988M43.8651 17.9375L43.2395 20.5625M43.8651 17.9375L69.8175 24.2203M43.2395 20.5625L69.1084 27.125" stroke="#786DF5" stroke-width="0.875" stroke-linecap="round" stroke-linejoin="round"/>
<path d="M59.3779 0.875L29.7495 3.56199L30.7755 14.875L32.0055 28.4375L33.701 47.1332L58.9543 44.843L63.3294 44.4462L62.9488 40.25L59.3779 0.875Z" fill="#140C28"/>
<path d="M62.9488 40.25L63.3294 44.4462L58.9543 44.843M62.9488 40.25L59.3779 0.875L29.7495 3.56199L30.7755 14.875L32.0055 28.4375L33.701 47.1332L58.9543 44.843M62.9488 40.25L58.9543 44.843" stroke="#786DF5" stroke-width="0.875" stroke-linejoin="round"/>
<rect width="24.6853" height="2.26441" transform="matrix(-0.995913 0.090319 0.090319 0.995913 57.0024 3.71533)" fill="#140C28" stroke="#786DF5" stroke-width="0.875" stroke-linejoin="round"/>
<path d="M57.5449 9.65479L33.29 11.8545M33.4945 14.1096L57.7494 11.9099" stroke="#786DF5" stroke-width="0.875" stroke-linecap="round" stroke-linejoin="round"/>
<path d="M20.7568 40.87C24.045 40.3532 28.318 39.312 30.3137 37.6844C32.7726 35.679 35.7231 34.1771 38.572 33.3965C40.7653 32.7956 42.3956 32.0664 44.5166 31.1776C45.6386 30.7074 47.5917 30.8764 48.0177 29.6686C48.3867 28.6225 47.8368 27.4501 46.0781 27.0139C44.4796 26.6175 42.9651 26.9107 41.4055 27.3146C38.7009 28.015 34.8927 30.1151 31.938 29.3126L30.9541 18.3749C27.9772 19.1602 25.6552 21.2402 24.5013 22.2737L24.4773 22.2953C21.1778 25.2505 17.0942 29.3112 14.4195 31.1776C10.5964 33.5758 7.26676 33.9788 1.53085 35.88L4.90038 48.4553C9.66315 45.9475 16.0367 41.6118 20.7568 40.87Z" fill="#140C28"/>
<path d="M30.5167 28.0001C30.9542 28.4376 31.5574 29.2092 31.938 29.3126M31.938 29.3126C34.8927 30.1151 38.7009 28.015 41.4055 27.3146C42.9651 26.9107 44.4796 26.6175 46.0781 27.0139C47.8368 27.4501 48.3867 28.6225 48.0177 29.6686C47.5917 30.8764 45.6386 30.7074 44.5166 31.1776C42.3956 32.0664 40.7653 32.7956 38.572 33.3965C35.7231 34.1771 32.7726 35.679 30.3137 37.6844C28.318 39.312 24.045 40.3532 20.7568 40.87C16.0367 41.6118 9.66315 45.9475 4.90038 48.4553L1.53085 35.88C7.26676 33.9788 10.5964 33.5758 14.4195 31.1776C17.0942 29.3112 21.1778 25.2505 24.4773 22.2953C25.6227 21.2694 27.9564 19.1656 30.9541 18.3749L31.938 29.3126Z" stroke="#FF7A5C" stroke-width="0.875" stroke-linecap="round" stroke-linejoin="round"/>
<path d="M32.3737 28.3992C32.3948 28.6399 32.2168 28.8522 31.9761 28.8733C31.7354 28.8945 31.5232 28.7165 31.502 28.4758L32.3737 28.3992ZM31.1438 14.3992L32.3737 28.3992L31.502 28.4758L30.2722 14.4758L31.1438 14.3992Z" fill="#786DF5"/>
</g>
<defs>
<clipPath id="clip0">
<rect width="77" height="56" fill="white"/>
</clipPath>
</defs>
</svg>
