<svg width="77" height="56" viewBox="0 0 77 56" fill="none" xmlns="http://www.w3.org/2000/svg">
<path d="M13.6113 27.331C15.299 29.4305 18.0556 34.9749 15.5803 40.357M16.986 55.5C17.6423 52.3031 19.5494 46.0403 21.2058 44.5878C23.3154 42.7378 26.4094 40.357 29.9255 31.0012C30.7291 28.8631 32.7603 23.6105 34.3073 21.4634C35.8544 19.3162 38.3424 15.3988 37.2173 14.5399C36.0922 13.6811 34.1665 14.8567 31.6352 19.1509C29.2872 23.134 27.816 25.8996 27.2534 25.4187C26.8441 25.0688 28.2378 21.2675 29.5036 18.4047C30.7694 15.5418 33.6041 9.49334 34.3073 7.77563C35.4207 5.05592 32.9009 3.62447 31.6352 6.20106C31.0726 7.34621 28.0409 13.0511 27.2534 14.5398C26.2689 16.4006 23.7374 22.8177 23.3154 22.3883C23.0686 22.137 25.1124 17.4737 26.4094 13.9672C27.329 11.4809 28.4757 8.06191 29.1789 6.20106C29.8821 4.3402 30.5236 2.00424 29.3557 1.52879C27.9491 0.956222 26.9287 2.62249 25.8035 5.3422C24.6784 8.06191 22.8224 11.751 21.909 14.5398C21.4871 15.8281 19.9995 20.219 19.437 20.0758C18.8744 19.9327 20.5026 14.8261 21.2058 12.5358C21.909 10.2455 23.5533 5.91477 24.1158 4.48334C24.6784 3.05191 25.2526 1.52881 23.8849 1.06636C22.9131 0.737799 21.5843 1.62048 20.5998 3.91077C19.6154 6.20106 17.8303 10.2455 16.9865 12.5358C16.1426 14.8261 14.1738 18.9772 13.6113 20.8381C13.0487 22.6989 11.9236 25.2755 11.5017 24.5598C11.0798 23.8441 11.6823 17.5325 8.54807 13.9672C6.15723 11.2475 4.56689 13.7165 6.11393 16.4362C7.93251 19.6333 5.54802 25.471 5.73532 28.1383C6.01676 32.1464 8.54807 35.6842 8.54807 39.3035C8.54807 42 4.37511 49.6311 2.49991 55.5H16.986Z" stroke="#FF7A5C" stroke-width="0.875" stroke-linecap="round" stroke-linejoin="round"/>
<path d="M7.4375 8.75013C4.8125 8.89597 1.75 10.0626 2.6252 14.4375M10.9375 6.5625C8.3125 3.9375 2.6252 3.9375 0.875 8.74996M38.9374 12.6876C39.9582 13.2709 41.8249 15.1375 41.1249 17.9375M39.8124 7.43756C43.0207 8.89589 48.3874 13.7376 44.1874 21.4376M37.625 3.0625C44.1874 3.0625 49.875 6.99999 49.875 12.6876M25.8124 44.1875C27.4165 43.8959 30.8874 42.4375 31.9374 38.9375M2.6252 31.5C2.77092 32.5209 3.49986 34.9125 5.24986 36.3125M35 30.5C42.5 30.5 42.5 36.3125 49.3448 36.3125C55.5 35.5 56 29.5 64 29.5H76.5M76.5 29.5L73 26.5M76.5 29.5L73 33" stroke="#786DF5" stroke-width="0.875" stroke-linecap="round" stroke-linejoin="round"/>
</svg>
