<svg width="77" height="56" viewBox="0 0 77 56" fill="none" xmlns="http://www.w3.org/2000/svg">
<g clip-path="url(#clip0)">
<path d="M32.43 21.6489L38.9352 7.75993C39.5575 6.43123 41.1482 5.87061 42.4661 6.51544L44.6631 7.59039M29.6327 27.2948L27.6006 31.606M43.4882 42.8037L42.0381 45.8645L41.3718 47.2708C40.7511 48.5809 39.1858 49.1398 37.8756 48.5191L24.0076 41.9487C23.4284 41.6742 23.1807 40.9827 23.454 40.4029V40.4029M48.1631 33.4029L49.2891 30.9691L52.7596 23.4679L56.2639 15.8936C56.8687 14.5864 56.3072 13.0359 55.0055 12.4192L53.4086 11.6626M53.4086 11.6626L53.3544 11.7295C52.5863 12.6785 51.2653 12.9726 50.1671 12.4391L45.548 10.1953C44.5793 9.72474 44.1814 8.55363 44.6631 7.59039V7.59039M53.4086 11.6626L44.6631 7.59039" stroke="#786DF5" stroke-width="0.875" stroke-linecap="round"/>
<rect x="-0.581515" y="0.211311" width="14.6788" height="11.0163" rx="1.3125" transform="matrix(-0.906087 -0.423091 -0.423091 0.906087 52.9361 15.6456)" stroke="#786DF5" stroke-width="0.875"/>
<path d="M19.987 10.4974L27.5421 10.9621L19.5332 13.0258L19.987 10.4974Z" stroke="#786DF5" stroke-width="0.875" stroke-linecap="round" stroke-linejoin="round"/>
<rect x="-0.581515" y="0.211311" width="13.9545" height="7.5087" rx="1.3125" transform="matrix(-0.906087 -0.423091 -0.423091 0.906087 41.4942 38.6097)" stroke="#786DF5" stroke-width="0.875"/>
<rect x="-0.581515" y="0.211311" width="14.6788" height="11.0163" rx="1.3125" transform="matrix(-0.906087 -0.423091 -0.423091 0.906087 47.5503 27.2203)" stroke="#786DF5" stroke-width="0.875"/>
<path d="M51.7547 25.9145C52.5158 25.9323 54.0309 26.2723 54.0024 27.4901C53.9739 28.7078 50.9608 29.761 49.7483 30.0499M45.9476 38.1532C46.4783 39.8791 47.8147 39.7198 48.4167 38.4013C48.7702 37.627 49.5851 37.2864 49.8065 35.9589C49.9836 34.8969 48.7264 33.7333 48.163 33.4029C47.1977 34.4782 45.4168 36.4274 45.9476 38.1532ZM45.9476 38.1532C45.1005 39.9654 43.4015 40.9434 43.5517 42.6603C43.6239 43.4853 44.178 44.1675 44.6353 44.2306M47.3724 39.3979C47.7733 41.236 46.4695 42.4259 46.116 43.2002C45.7901 43.9139 45.1751 44.305 44.6353 44.2306M44.6353 44.2306C44.4421 44.663 44.0504 45.7561 44.0291 46.6694C44.0024 47.811 42.6482 48.7312 41.3474 47.3682M31.4888 45.6146C29.943 46.334 25.9131 47.9592 23.2493 47.8969C20.5854 47.8346 20.3996 47.6399 16.3549 49.6394C13.1192 51.2391 8.07376 53.6976 5.95554 54.7268L1.3505 43.0279C6.71483 40.9883 14.038 38.2154 16.6811 35.9459C18.7232 34.1925 19.6731 30.1142 21.4345 28.0612C23.196 26.0082 28.1379 23.4875 29.011 21.5751C29.6129 20.2566 29.4716 18.1591 30.4274 17.9911C31.7019 17.767 33.0378 20.3367 32.0108 23.5491C30.9838 26.7615 27.7405 28.126 27.6682 31.2188C27.163 39.3979 22.0287 41.4716 21.1083 41.7547" stroke="#FF7A5C" stroke-width="0.875" stroke-linecap="round" stroke-linejoin="round"/>
<path d="M52.0325 25.0903L48.5619 32.5915M42.4756 45.2153C42.1839 45.9445 41.1631 48.2778 39.8506 48.7153M32.8506 46.0903L29.7881 44.7778" stroke="#786DF5" stroke-width="0.875" stroke-linecap="round"/>
</g>
<defs>
<clipPath id="clip0">
<rect width="77" height="56" fill="white"/>
</clipPath>
</defs>
</svg>
