<svg width="77" height="56" viewBox="0 0 77 56" fill="none" xmlns="http://www.w3.org/2000/svg">
<g clip-path="url(#clip0)">
<path d="M19.6875 28.908C18.0608 27.5137 13.7495 25.2862 9.1875 24.6596M42.4375 10.5L27.125 32.408C34.125 34.508 43.1667 42.2916 46.375 45.9375L48.7362 42.2644M42.4375 10.5C47.9792 10.0625 56.4375 10.5 62.125 21.4375L48.7362 42.2644M42.4375 10.5C38.5875 2.09995 31.5 7.27922e-06 21.4375 0.874953L5.6875 24.533C6.84354 24.444 8.02368 24.4997 9.1875 24.6596M42.4375 10.5C48.125 7.87497 60.8125 8.74997 66.5 19.6875L56.0937 35.875M42.4375 10.5C44.1875 6.56252 49.4375 -0.437485 62.125 0.875015L57.75 6.73401M42.4375 10.5C47.0524 6.999 52.5355 6.02372 57.75 6.73401M48.7362 42.2644C49.5752 42.826 50.4283 43.7804 50.75 44.1875L56.0937 35.875M9.1875 24.6596L7.875 27.125C9.77083 27.114 14.6125 27.6236 18.8125 29.75M56.0937 35.875C59.5 36.3125 62.3764 37.8393 64.75 40.6875L76.5625 21.4375C75.1707 14.3765 66.8714 7.97648 57.75 6.73401" stroke="#786DF5" stroke-width="0.875" stroke-linecap="round" stroke-linejoin="round"/>
<path d="M25.764 37.1685C27.2175 35.0751 27.1231 33.749 26.991 32.6142C26.918 31.987 26.8335 31.4182 26.9925 30.8106C27.2679 29.7579 29.3304 26.7645 30.7769 23.9034C31.6756 22.1259 32.2017 20.145 32.1837 19.221C32.1323 16.5911 30.3943 15.5186 29.6481 16.6407C29.0667 17.515 28.685 18.4863 28.2637 19.4508C27.3879 21.4562 25.749 23.8629 22.6384 26.333C18.2313 29.8328 16.4877 33.3246 12.6359 37.8183C10.9705 39.7614 6.02469 41.766 1.95445 43.0838L8.88502 55.3624C12.4747 53.5067 17.1211 51.557 19.5595 50.9776C25.7506 49.5065 33.0712 46.5526 35.1697 44.7595C36.8485 43.3251 36.495 40.8778 36.1084 39.8335M36.1084 39.8335C33.0388 40.2033 26.545 40.9917 25.1262 41.1871C24.7187 41.2432 24.3446 41.1892 24.0206 41.0576M36.1084 39.8335C36.9489 39.6078 37.5898 39.3049 38.0622 38.9615M33.2497 35.4704C32.3273 35.6355 28.2051 36.5425 24.9861 37.3676C22.0405 37.8325 22.4096 40.4034 24.0206 41.0576M32.3747 44.2204C32.3747 44.2204 26.6082 44.065 24.8412 43.811C23.0742 43.5569 22.6392 41.7599 24.0206 41.0576" stroke="#FF7A5C" stroke-width="0.875" stroke-linecap="round" stroke-linejoin="round"/>
<path d="M46.375 45.9373C43.6193 42.8058 36.5601 36.6217 30.1875 33.6084" stroke="#786DF5" stroke-width="0.875" stroke-linecap="round" stroke-linejoin="round"/>
<path d="M44.9794 19.3982C45.7503 18.5158 48.0249 17.6023 49.875 18.8125C52.1876 20.3252 52.3398 23.1509 50.3755 24.6928C48.4483 26.2055 44.9794 25.0709 42.6668 28.0964M41.5104 30.7437L41.125 31.5" stroke="#786DF5" stroke-width="0.875" stroke-linecap="round" stroke-linejoin="round"/>
</g>
<defs>
<clipPath id="clip0">
<rect width="77" height="56" fill="white"/>
</clipPath>
</defs>
</svg>
