<svg width="77" height="56" viewBox="0 0 77 56" fill="none" xmlns="http://www.w3.org/2000/svg">
<g clip-path="url(#clip0)">
<path d="M6.31571 55.5624L0.875488 43.5257C2.99683 42.5226 11.9445 38.8447 14.3561 37.5073C17.3707 35.8355 24.7396 29.4828 26.4143 28.1454C28.0891 26.808 28.8209 25.9156 31.5005 26.2499C34.1801 26.5843 37.8026 26.4737 39.4773 27.1424C41.1521 27.8111 42.4919 28.8619 45.5064 30.1516C48.521 31.4412 49.3814 32.3739 48.8559 33.1608C48.0898 34.3078 46.0423 33.9632 44.1666 33.1608C41.822 32.1578 40.8171 31.8233 39.1424 31.489C37.7281 31.2066 36.0749 31.4489 34.788 31.6921L37.8026 33.6042C39.7657 33.3441 41.822 33.3827 41.822 34.8325C41.822 35.6102 41.3689 36.2829 40.4822 36.8753C40.9288 37.6433 41.822 39.4466 41.822 40.5165C41.822 43.1914 41.822 45.1975 41.1521 45.5319C40.4822 45.8662 39.4773 45.8662 38.8074 43.5257C38.2785 41.6779 38.5966 41.0499 37.8426 39.6454C37.6586 40.9939 37.2591 43.2566 37.1327 44.1944C36.9747 45.3667 35.8606 46.4656 35.1907 48.1374C34.6519 49.482 33.1787 49.0475 32.9977 47.538C32.7783 47.538 32.0258 48.7936 31.3559 48.1249C30.686 47.4562 31.1036 46.5349 31.7735 44.8631C32.4434 43.1914 30.7687 42.8571 29.7638 43.1914C28.759 43.5257 27.7541 44.8631 26.0794 46.2006C24.4046 47.538 21.725 48.2067 17.7056 48.541C13.6863 48.8754 6.31571 55.5624 6.31571 55.5624Z" fill="#140C28"/>
<path d="M17.7056 45.8662C19.827 45.7547 24.5386 45.1306 26.4143 43.5257C28.5282 41.717 29.2808 40.1801 32.1084 39.4051M25.0745 34.8325C25.7444 34.721 27.6201 34.565 29.7638 34.8325C32.4434 35.1669 34.4531 34.1638 34.788 34.1638C35.4254 34.0365 36.5964 33.764 37.8026 33.6042M31.4385 34.8325C33.7832 33.8294 32.4434 32.1577 34.1181 31.8233C34.3265 31.7818 34.5511 31.7369 34.788 31.6921M34.788 31.6921C36.0749 31.4489 37.7281 31.2066 39.1424 31.489C40.8171 31.8233 41.822 32.1578 44.1666 33.1608C46.0423 33.9632 48.0898 34.3078 48.8559 33.1608C49.3814 32.3739 48.521 31.4412 45.5064 30.1516C42.4919 28.8619 41.1521 27.8111 39.4773 27.1424C37.8026 26.4737 34.1801 26.5843 31.5005 26.2499C28.8209 25.9156 28.0891 26.808 26.4143 28.1454C24.7396 29.4828 17.3707 35.8355 14.3561 37.5073C11.9445 38.8447 2.99683 42.5226 0.875488 43.5257L6.31571 55.5624C6.31571 55.5624 13.6863 48.8754 17.7056 48.541C21.725 48.2067 24.4046 47.538 26.0794 46.2006C27.7541 44.8631 28.759 43.5257 29.7638 43.1914C30.7687 42.8571 32.4434 43.1914 31.7735 44.8631C31.1036 46.5349 30.686 47.4562 31.3559 48.1249C32.0258 48.7936 32.7783 47.538 32.9977 47.538M34.788 31.6921L37.8026 33.6042M37.8026 33.6042C39.7657 33.3441 41.822 33.3827 41.822 34.8325C41.822 35.6102 41.3689 36.2829 40.4822 36.8753M40.4822 36.8753C40.9288 37.6433 41.822 39.4466 41.822 40.5165C41.822 43.1914 41.822 45.1975 41.1521 45.5319C40.4822 45.8662 39.4773 45.8662 38.8074 43.5257C38.2785 41.6779 38.5966 41.0499 37.8426 39.6454M40.4822 36.8753C39.6709 37.4173 38.4968 37.8921 36.9747 38.3187M36.9747 38.3187C35.8692 38.6285 34.5801 38.9129 33.1133 39.1791C32.7506 39.2449 32.4172 39.3204 32.1084 39.4051M36.9747 38.3187C37.3644 38.8413 37.6416 39.271 37.8426 39.6454M37.8426 39.6454C37.6587 40.9939 37.2591 43.2566 37.1327 44.1944C36.9747 45.3667 35.8606 46.4656 35.1907 48.1374C34.6519 49.482 33.1787 49.0475 32.9977 47.538M32.1084 39.4051C32.6667 39.887 34.1851 40.3828 34.4531 41.1853C34.788 42.1883 33.7832 43.5257 33.1133 46.2006C32.9822 46.724 32.9537 47.1707 32.9977 47.538" stroke="#FF7A5C" stroke-width="0.875" stroke-linecap="round" stroke-linejoin="round"/>
<path d="M40.5471 12.2243C38.1621 12.3627 33.3004 12.6679 32.9335 12.781L38.1498 10.1501M40.5471 12.2243L75.781 1.87492M40.5471 12.2243L43.579 17.1718L75.781 1.87492M75.781 1.87492L51.7911 7.15035M75.781 1.87492L44.3771 1.837M38.1498 10.1501L34.9472 6.27822L44.3771 1.837M38.1498 10.1501L51.7911 7.15035M44.3771 1.837L51.7911 7.15035" stroke="#786DF5" stroke-width="0.875" stroke-linecap="round" stroke-linejoin="round"/>
</g>
<defs>
<clipPath id="clip0">
<rect width="77" height="56" fill="white"/>
</clipPath>
</defs>
</svg>
