<svg width="77" height="56" viewBox="0 0 77 56" fill="none" xmlns="http://www.w3.org/2000/svg">
<g clip-path="url(#clip0)">
<path d="M30.6247 23.625C30.6247 14 30.4631 8.22402 34.9997 7.87505C40.6872 7.43755 39.8122 18.375 39.3747 23.625H30.6247Z" fill="#140C28" stroke="#786DF5" stroke-width="0.875" stroke-linejoin="round"/>
<path d="M18.8128 16.1875C17.9377 9.1875 20.2127 4.8125 24.0627 4.8125C27.642 4.8125 28.8012 8.44265 31.5002 10.3031M34.1252 11.375C35.8752 11.8125 37.4376 10.8277 38.5002 9.98293C42.0916 7.12775 44.8111 0.875 49.8753 0.875C56.4378 0.875 59.0628 8.3125 58.6253 16.1875" stroke="#786DF5" stroke-width="0.875" stroke-linecap="round"/>
<path d="M9.41543 26.9902C10.1068 27.5296 11.5665 28.1405 11.874 26.2682C12.2584 23.9279 11.6823 21.1744 11.0247 19.7551C10.7978 19.2655 10.3916 18.2945 9.85768 17.279C10.2743 17.3714 11.1458 17.7976 11.2991 18.7624C11.5179 20.8196 13.1632 23.5032 14.0953 23.9297C15.0273 24.3563 15.9321 23.9316 15.8777 22.2292C15.8483 21.3089 15.7145 20.1852 15.4419 19.0106C16.8902 21.8651 18.3821 22.2339 19.1273 21.4384C19.6663 20.863 19.8147 19.6785 19.2736 18.3848C19.1907 18.1868 19.1106 17.9899 19.0329 17.7945C17.2832 13.3943 16.7741 9.74934 14.4378 10.0187C13.302 10.1496 12.2504 10.4589 12.1895 11.7798C11.5 10.9175 10.6735 10.3445 9.65621 10.4618C7.70416 10.6868 7.56875 13.1695 7.74504 14.3827C7.13192 13.8906 6.47071 13.6848 5.78972 14.0044C3.85943 14.9104 3.72134 17.9937 3.89358 19.4221C4.98464 19.9957 6.3872 21.4558 7.13097 22.4466C7.32939 22.7109 7.56297 23.0511 7.79531 23.4307C8.2697 24.2058 9.26072 26.1963 9.41543 26.9902Z" fill="#140C28"/>
<path d="M24.5002 26.751C25.3752 32.9156 19.0118 38.3394 18.4217 40.4745C17.4613 43.9491 18.9498 50.9178 19.2502 55.5287C19.2502 55.5287 9.65959 55.6412 5.56833 55.5288C5.86045 51.0258 6.31885 43.5796 6.35873 41.3848C6.41417 38.3345 4.68733 36.985 3.31768 32.4441C1.94804 27.9031 0.797053 25.419 1.01722 22.7242C1.16402 20.9273 1.62122 19.2728 3.04686 19.1797C3.28716 19.164 3.57728 19.2558 3.89358 19.4221M13.0495 35.2201C14.0003 25.43 18.3753 28.5123 19.2503 24.9897C19.4438 24.2419 19.2716 22.9233 19.1273 21.4384M2.88127 23.5772C3.67609 24.5001 5.0012 25.2142 5.63178 25.7826C6.26237 26.3511 7.3771 29.2428 8.88513 28.535C9.4445 28.2725 9.55133 27.6875 9.41543 26.9902M9.41543 26.9902C10.1068 27.5296 11.5665 28.1405 11.874 26.2682C12.2584 23.9279 11.6823 21.1744 11.0247 19.7551C10.7978 19.2655 10.3916 18.2945 9.85768 17.279M9.41543 26.9902C9.26072 26.1963 8.2697 24.2058 7.79531 23.4307M3.89358 19.4221C4.98464 19.9957 6.3872 21.4558 7.13097 22.4466C7.32939 22.7109 7.56297 23.0511 7.79531 23.4307M3.89358 19.4221C3.72134 17.9937 3.85943 14.9104 5.78972 14.0044C6.47071 13.6848 7.13192 13.8906 7.74504 14.3827M7.79531 23.4307C7.76587 22.7246 7.64123 21.1704 7.37818 20.6026C7.11513 20.0349 6.62909 19.5143 6.41895 19.3249M7.74504 14.3827C7.56875 13.1695 7.70416 10.6868 9.65621 10.4618C12.0963 10.1805 13.4387 13.8703 14.4251 15.9992C15.4116 18.1281 15.8233 20.5268 15.8777 22.2292C15.9321 23.9316 15.0273 24.3563 14.0953 23.9297C13.1632 23.5032 11.5179 20.8196 11.2991 18.7624C11.1458 17.7976 10.2743 17.3714 9.85768 17.279M7.74504 14.3827C8.55486 15.0325 9.2808 16.1817 9.85768 17.279M12.1895 11.78C12.2503 10.459 13.302 10.1496 14.4378 10.0187C16.7741 9.74934 17.2832 13.3943 19.0329 17.7945M15.4419 19.0106C16.8902 21.8651 18.3821 22.2339 19.1273 21.4384M24.4662 26.5777C24.0913 20.7344 22.6554 18.7742 22.9758 16.4689C23.2961 14.1637 20.7457 12.9922 19.5016 15.8439C19.2446 16.433 19.1017 17.0969 19.0329 17.7945M19.0329 17.7945C19.1106 17.9899 19.1907 18.1868 19.2736 18.3848C19.8147 19.6785 19.6663 20.863 19.1273 21.4384" stroke="#FF7A5C" stroke-width="0.875" stroke-linecap="round" stroke-linejoin="round"/>
<path d="M68.1641 26.9902C67.4727 27.5296 66.013 28.1405 65.7055 26.2682C65.3211 23.9279 65.8972 21.1744 66.5548 19.7551C66.7817 19.2655 67.1879 18.2945 67.7218 17.279C67.3052 17.3714 66.4337 17.7976 66.2804 18.7624C66.0616 20.8196 64.4163 23.5032 63.4842 23.9297C62.5522 24.3563 61.6474 23.9316 61.7018 22.2292C61.7312 21.3089 61.865 20.1852 62.1376 19.0106C60.6893 21.8651 59.1974 22.2339 58.4522 21.4384C57.9133 20.863 57.7648 19.6785 58.3059 18.3848C58.3888 18.1868 58.4689 17.9899 58.5466 17.7945C60.2963 13.3943 60.8054 9.74934 63.1417 10.0187C64.2775 10.1496 65.3291 10.459 65.39 11.7798C66.0795 10.9175 66.906 10.3445 67.9233 10.4618C69.8753 10.6868 70.0108 13.1695 69.8345 14.3827C70.4476 13.8906 71.1088 13.6848 71.7898 14.0044C73.7201 14.9104 73.8582 17.9937 73.6859 19.4221C72.5949 19.9957 71.1923 21.4558 70.4485 22.4466C70.2501 22.7109 70.0165 23.0511 69.7842 23.4307C69.3098 24.2058 68.3188 26.1963 68.1641 26.9902Z" fill="#140C28"/>
<path d="M53.0793 26.751C52.2043 32.9156 58.5677 38.3394 59.1578 40.4745C60.1182 43.9491 58.6297 50.9178 58.3293 55.5287C58.3293 55.5287 67.9199 55.6412 72.0112 55.5288C71.7191 51.0258 71.2607 43.5796 71.2208 41.3848C71.1653 38.3345 72.8922 36.985 74.2618 32.4441C75.6315 27.9031 76.7824 25.419 76.5623 22.7242C76.4155 20.9273 75.9583 19.2728 74.5326 19.1797C74.2923 19.164 74.0022 19.2558 73.6859 19.4221M64.53 35.2201C63.5792 25.43 59.2042 28.5123 58.3292 24.9897C58.1357 24.2419 58.308 22.9233 58.4522 21.4384M74.6982 23.5772C73.9034 24.5001 72.5783 25.2142 71.9477 25.7826C71.3171 26.3511 70.2024 29.2428 68.6944 28.535C68.135 28.2725 68.0282 27.6875 68.1641 26.9902M68.1641 26.9902C67.4727 27.5296 66.013 28.1405 65.7055 26.2682C65.3211 23.9279 65.8972 21.1744 66.5548 19.7551C66.7817 19.2655 67.1879 18.2945 67.7218 17.279M68.1641 26.9902C68.3188 26.1963 69.3098 24.2058 69.7842 23.4307M73.6859 19.4221C72.5949 19.9957 71.1923 21.4558 70.4485 22.4466C70.2501 22.7109 70.0165 23.0511 69.7842 23.4307M73.6859 19.4221C73.8582 17.9937 73.7201 14.9104 71.7898 14.0044C71.1088 13.6848 70.4476 13.8906 69.8345 14.3827M69.7842 23.4307C69.8136 22.7246 69.9383 21.1704 70.2013 20.6026C70.4644 20.0349 70.9504 19.5143 71.1606 19.3249M69.8345 14.3827C70.0108 13.1695 69.8753 10.6868 67.9233 10.4618C65.4832 10.1805 64.1408 13.8703 63.1544 15.9992C62.1679 18.1281 61.7562 20.5268 61.7018 22.2292C61.6474 23.9316 62.5522 24.3563 63.4842 23.9297C64.4163 23.5032 66.0616 20.8196 66.2804 18.7624C66.4337 17.7976 67.3052 17.3714 67.7218 17.279M69.8345 14.3827C69.0246 15.0325 68.2987 16.1817 67.7218 17.279M65.39 11.78C65.3292 10.459 64.2775 10.1496 63.1417 10.0187C60.8054 9.74934 60.2963 13.3943 58.5466 17.7945M62.1376 19.0106C60.6893 21.8651 59.1974 22.2339 58.4522 21.4384M53.1133 26.5777C53.4882 20.7344 54.9241 18.7742 54.6037 16.4689C54.2834 14.1637 56.8338 12.9922 58.0779 15.8439C58.3349 16.433 58.4778 17.0969 58.5466 17.7945M58.5466 17.7945C58.4689 17.9899 58.3888 18.1868 58.3059 18.3848C57.7648 19.6785 57.9133 20.863 58.4522 21.4384" stroke="#FF7A5C" stroke-width="0.875" stroke-linecap="round" stroke-linejoin="round"/>
</g>
<defs>
<clipPath id="clip0">
<rect width="77" height="56" fill="white"/>
</clipPath>
</defs>
</svg>
