<svg width="77" height="56" viewBox="0 0 77 56" fill="none" xmlns="http://www.w3.org/2000/svg">
<path d="M27.5625 38.0624C35.2922 38.4071 35.9717 39.5138 38.9375 38.4999C40.4862 37.9705 42.2461 37.5282 43.3125 37.1874C44.1875 36.9078 48.1462 36.6621 46.9448 34.4785M46.9448 34.4785C49.4177 34.8231 56.3269 32.9706 59.0155 32.9706C61.237 32.9706 61.8242 34.2096 61.237 35.0386M46.9448 34.4785C46.6801 33.9974 46.126 33.66 44.5644 33.5659M61.237 35.0386C61.0047 35.3665 60.5952 35.6302 60.0237 35.7279C58.0073 36.0726 46.5808 39.5192 43.8923 40.5532C41.2037 41.5871 39.8594 42.9658 37.5069 42.6211C35.1544 42.2765 26.7305 41.2138 24.064 42.6211C21.6625 43.8886 12.9896 51.2591 8.3966 55.1653L0.875 45.0624C7.03633 40.9265 19.6351 33.5035 21.3754 32.626C24.38 31.111 28.769 31.2473 31.1215 32.626C33.474 34.0046 37.1708 34.0046 41.2037 33.66C42.6128 33.5395 43.7101 33.5033 44.5644 33.5659M61.237 35.0386C62.9282 34.4785 63.968 34.0046 63.8684 33.0353C63.7268 31.6566 62.4581 31.592 60.5777 31.592C59.2334 31.592 52.3623 32.2813 50.1437 32.626C48.3688 32.9017 45.6846 33.3675 44.5644 33.5659" stroke="#FF7A5C" stroke-width="0.875" stroke-linecap="round" stroke-linejoin="round"/>
<rect x="0.4375" y="0.4375" width="10.5" height="10.5" rx="3.0625" stroke="#786DF5" stroke-width="0.875"/>
<rect x="16.1875" y="0.4375" width="10.5" height="10.5" rx="3.0625" stroke="#786DF5" stroke-width="0.875"/>
<rect x="32.8125" y="0.4375" width="10.5" height="10.5" rx="3.0625" stroke="#786DF5" stroke-width="0.875"/>
<rect x="49.4375" y="0.4375" width="10.5" height="10.5" rx="3.0625" stroke="#786DF5" stroke-width="0.875"/>
<rect x="66.0625" y="0.4375" width="10.5" height="10.5" rx="3.0625" stroke="#786DF5" stroke-width="0.875"/>
<rect x="0.4375" y="16.1875" width="10.5" height="10.5" rx="3.0625" stroke="#786DF5" stroke-width="0.875"/>
<rect x="16.1875" y="16.1875" width="10.5" height="10.5" rx="3.0625" stroke="#786DF5" stroke-width="0.875"/>
<rect x="32.8125" y="16.1875" width="10.5" height="10.5" rx="3.0625" stroke="#786DF5" stroke-width="0.875"/>
<rect x="49.4375" y="16.1875" width="10.5" height="10.5" rx="3.0625" stroke="#786DF5" stroke-width="0.875"/>
<rect x="66.0625" y="16.1875" width="10.5" height="10.5" rx="3.0625" stroke="#786DF5" stroke-width="0.875"/>
</svg>
