<svg width="77" height="56" viewBox="0 0 77 56" fill="none" xmlns="http://www.w3.org/2000/svg">
<g clip-path="url(#clip0)">
<path d="M29.75 25.375H0.4375V0.4375H51.1875V9.625" stroke="#786DF5" stroke-width="0.875" stroke-linecap="round"/>
<path d="M3.5 19.25H23.975M3.5 16.625H21.7M3.5 14H26.25M3.5 11.375H21.7M3.5 8.75H25.1125M3.5 6.125H22.8375M3.5 3.5H25.1125" stroke="#786DF5" stroke-width="0.875" stroke-linecap="round" stroke-linejoin="round"/>
<path d="M73.5 49.875H53.025M73.5 47.25H55.3M73.5 44.625H50.75" stroke="#786DF5" stroke-width="0.875" stroke-linecap="round" stroke-linejoin="round"/>
<path d="M31.0625 41.125H23.1875V55.5625H76.5625L76.5625 41.125H33.6875" stroke="#786DF5" stroke-width="0.875" stroke-linecap="round"/>
<path d="M37.4013 22.1167C34.9909 23.904 34.066 28.6812 33.6478 29.7757C33.3961 30.4936 33.7292 31.3383 33.9165 32.3411M44.58 20.226C44.1171 23.6634 40.0135 26.1767 37.5813 28.1842M37.5813 28.1842C36.3389 29.2097 35.2125 30.2637 34.5951 31.7905C33.9158 33.4704 34.5422 34.6038 35.6057 34.9191M37.5813 28.1842L43.4548 11.533M33.9165 32.3411C34.0502 33.0573 34.1095 33.8541 33.8283 34.743C33.4612 35.9034 32.9085 36.4814 32.3895 36.613M33.9165 32.3411L40.7925 12.1669M32.3895 36.613C31.8179 36.758 31.2872 36.3614 31.0904 35.6051C30.5065 33.3602 29.2018 32.2179 29.4493 30.0752C29.672 28.1467 30.2963 24.0309 31.1364 22.1772C31.9679 20.3425 36.3284 14.8402 38.5376 13.2419C39.0397 12.8786 39.5242 12.5094 40.7925 12.1669M32.3895 36.613L31.1707 41.042L31.3327 43.953L33.345 41.3493L35.4233 35.4378M35.6057 34.9191L35.4233 35.4378M35.6057 34.9191C36.8336 35.2832 38.0072 34.0654 39.0465 33.4331M35.4233 35.4378C35.5586 35.6046 36.3704 37.5999 37.5903 36.869C38.3294 36.4262 38.7556 35.9522 38.9646 35.3117M39.0465 33.4331C39.0681 34.0278 39.1005 34.895 38.9646 35.3117M39.0465 33.4331C41.0112 32.2377 42.3945 30.8833 44.1685 29.4604M38.9646 35.3117C39.112 36.03 39.6667 37.3463 40.7063 36.8653C41.2386 36.619 41.6075 36.1144 41.8165 35.4374M41.7739 31.4541C42.1259 32.8883 42.1177 34.4617 41.8165 35.4374M41.8165 35.4374C42.0454 35.5784 42.6799 35.7559 43.386 35.3383C44.2687 34.8164 44.7005 34.0776 44.6158 32.787C44.548 31.7545 44.1718 30.1705 44.1685 29.4604M44.1685 29.4604C46.4728 27.6122 49.4206 26.1052 52.4876 25.2916C54.9767 24.6313 58.3279 21.7833 60.6765 19.4246C64.0478 16.0387 71.2992 13.4239 76.1253 11.0401L69.1251 0.437559C64.2189 3.96523 60.7355 6.91713 56.5497 8.60446C53.4687 9.67423 47.7841 10.5964 43.4548 11.533M40.7925 12.1669L43.2785 4.87272L45.6013 5.44782L43.4548 11.533" stroke="#FF7A5C" stroke-width="0.875" stroke-linecap="round" stroke-linejoin="round"/>
</g>
<defs>
<clipPath id="clip0">
<rect width="77" height="56" fill="white"/>
</clipPath>
</defs>
</svg>
