<svg width="77" height="56" viewBox="0 0 77 56" fill="none" xmlns="http://www.w3.org/2000/svg">
<circle cx="22.3125" cy="33.6875" r="21.875" stroke="#786DF5" stroke-width="0.875"/>
<path d="M17.8359 34.8394H17.3984V35.2769V46.8125H13.3258V35.2769V34.8394H12.8883H9.1875V31.0468H12.8883H13.3258V30.6093V27.169C13.3258 25.2663 13.9201 23.847 14.9014 22.9024C15.8853 21.955 17.3075 21.4378 19.0506 21.4378L19.0525 21.4378C20.1409 21.4332 21.2289 21.4804 22.3125 21.5795V24.9219H20.2117C19.1622 24.9219 18.4136 25.1637 17.9479 25.7025C17.494 26.2276 17.4001 26.9355 17.4001 27.6316V30.6093V31.0468H17.8376H22.0832L21.5808 34.8394H17.8359Z" fill="#140C28" stroke="#786DF5" stroke-width="0.875"/>
<path d="M0.4375 4.375V0.4375H15.3125V4.375H0.4375Z" stroke="#786DF5" stroke-width="0.875" stroke-linejoin="round"/>
<path d="M65.1875 55.5625V51.1875H76.5625V55.5625H65.1875Z" stroke="#786DF5" stroke-width="0.875" stroke-linejoin="round"/>
<path d="M59.9226 21.0101C62.3393 21.6632 71.7311 21.1008 76.125 20.738V36.7917C70.7242 36.0661 58.9889 34.9415 55.2541 36.2475C50.5855 37.8801 46.741 37.608 44.544 37.608C42.3471 37.608 36.2681 36.7917 35.1696 35.7033C34.2908 34.8326 34.8035 33.6007 35.1696 33.0935C33.2616 32.9274 31.8742 31.894 31.5996 30.8056C31.2666 29.4857 32.3319 28.6288 32.6981 28.3567C30.1134 27.0762 29.8596 24.6385 32.4235 23.1869C31.5997 22.3706 31.1671 21.7384 31.5996 20.738C32.4235 18.8324 37.9532 17.2008 40.6995 17.2008C45.6502 17.2008 46.4664 16.3845 46.4664 14.7519C46.4664 13.1193 42.6218 9.58208 42.3472 6.04483C42.0726 2.50758 43.4457 0.875 44.2695 0.875C45.0934 0.875 45.368 1.1471 45.9172 4.41225C46.4665 7.67741 50.5857 8.76579 53.3319 13.3914C56.078 18.0171 56.9019 20.1938 59.9226 21.0101Z" fill="#140C28"/>
<path d="M32.4235 23.1869C31.5997 22.3706 31.1671 21.7384 31.5996 20.738C32.4235 18.8324 37.9532 17.2008 40.6995 17.2008C45.6502 17.2008 46.4664 16.3845 46.4664 14.7519C46.4664 13.1193 42.6218 9.58208 42.3472 6.04483C42.0726 2.50758 43.4457 0.875 44.2695 0.875C45.0934 0.875 45.368 1.1471 45.9172 4.41225C46.4665 7.67741 50.5857 8.76579 53.3319 13.3914C56.078 18.0171 56.9019 20.1938 59.9227 21.0101C62.3393 21.6632 71.7311 21.1008 76.125 20.738V36.7917C70.7242 36.0661 58.9889 34.9415 55.2541 36.2475C50.5855 37.8801 46.741 37.608 44.544 37.608C42.3471 37.608 36.2681 36.7917 35.1696 35.7033C34.2908 34.8326 34.8035 33.6007 35.1696 33.0935M32.4235 23.1869C33.3023 23.1869 39.289 22.9148 40.662 22.9148M32.4235 23.1869C29.8596 24.6385 30.1134 27.0762 32.6981 28.3567M32.6981 28.3567C32.3319 28.6288 31.2666 29.4857 31.5996 30.8056C31.8742 31.894 33.2616 32.9274 35.1696 33.0935M32.6981 28.3567C33.8881 28.4474 39.5636 28.6288 40.662 28.6288M40.662 33.5266C39.0639 33.2626 36.2863 33.1907 35.1696 33.0935" stroke="#FF7A5C" stroke-width="0.875" stroke-linecap="round" stroke-linejoin="round"/>
</svg>
