<svg width="77" height="56" viewBox="0 0 77 56" fill="none" xmlns="http://www.w3.org/2000/svg">
<g clip-path="url(#clip0)">
<path d="M39.3751 44.625V16.625M39.3751 16.625C39.3751 16.625 13.125 16.625 0.4375 16.625M39.3751 16.625L0.4375 49.875M0.4375 16.625L0.4375 49.875M0.4375 16.625L35.7887 46.8125M0.4375 49.875H32.8126M0.4375 3.93751H39.3751V0.4375L0.4375 0.4375V3.93751ZM0.4375 11.9375H4.8125V7.43749H0.4375V11.9375ZM8.3125 11.9375H12.6875V7.43749H8.3125V11.9375ZM16.1875 11.9375H20.5625V7.43749H16.1875V11.9375ZM24.0625 11.9375H28.4375V7.43749H24.0625V11.9375ZM31.9375 11.9375H39.3751V7.43749H31.9375V11.9375Z" stroke="#786DF5" stroke-width="0.875" stroke-linecap="round" stroke-linejoin="round"/>
<path d="M48.3038 38.965C46.1403 41.8992 42.5661 43.5227 39.3904 45.0708C37.2596 46.1096 34.1043 47.5324 33.0667 49.7724C32.69 50.5854 33.1801 51.4926 33.9729 51.8049C34.5891 52.0477 35.4066 52.0338 36.6873 51.68C37.5726 51.4354 38.775 51.0335 40.1972 50.436M41.425 49.9065C40.9923 50.0974 40.5835 50.2738 40.1972 50.436M41.425 49.9065C41.9964 49.6543 42.5886 49.4299 43.1959 49.2274M41.425 49.9065C42.7969 49.7342 47.6226 50.426 46.5879 52.7325M40.1972 50.436C41.4186 51.0107 43.1941 52.063 43.1412 53.6322M43.1412 53.6322L45.4084 53.4447C46.0184 53.386 46.4196 53.1078 46.5879 52.7325M43.1412 53.6322C43.1028 54.7711 41.8902 55.0257 41.0099 54.5174C40.1457 54.0184 37.187 52.3577 35.6049 51.9159M46.5879 52.7325C47.2098 52.6271 48.6628 52.4535 49.4717 52.3334C50.8246 52.1325 51.1386 50.7526 49.4717 50.0546M43.1959 49.2274C44.4166 48.8203 45.6982 48.5013 46.9943 48.2212C47.7152 48.0653 48.4407 47.9215 49.1627 47.7812M43.1959 49.2274C45.1953 49.3531 47.5807 49.2627 49.4717 50.0546M39.3746 36.1703C39.3746 36.1703 40.4141 34.4028 41.9996 33.5453C44.8435 32.0071 55.4315 32.1922 60.6535 29.4277C62.5621 28.4173 65.7817 25.7283 69.1648 22.6428L76.0534 32.4433C73.172 33.9468 70.6627 35.3135 69.0736 36.2499C62.8812 39.899 63.4302 41.248 59.3317 44.4547C56.893 46.3628 53.0791 47.0201 49.1627 47.7812M49.4717 50.0546C49.8437 49.6116 50.3026 48.5368 49.1627 47.7812" stroke="#FF7A5C" stroke-width="0.875" stroke-linecap="round" stroke-linejoin="round"/>
<path d="M39.375 32.375V38.9375" stroke="#786DF5" stroke-width="0.875"/>
</g>
<defs>
<clipPath id="clip0">
<rect width="77" height="56" fill="white"/>
</clipPath>
</defs>
</svg>
