<svg width="77" height="56" viewBox="0 0 77 56" fill="none" xmlns="http://www.w3.org/2000/svg">
<g clip-path="url(#clip0)">
<path d="M76.5625 55.5625H38.0625M8.3125 55.5625H0.4375V11.8125H8.3125V55.5625ZM8.3125 55.5625H15.3125M15.3125 55.5625V23.1875H19.25H23.1875V55.5625M15.3125 55.5625H23.1875M23.1875 55.5625H30.1875M30.1875 55.5625V0.4375H38.0625V23.625M30.1875 55.5625H38.0625M38.0625 55.5625V29.75M45.0625 48.5625H52.9375V55.5625H45.0625V48.5625ZM59.9375 55.5625V38.0625H63.875H67.8125V55.5625H59.9375Z" stroke="#786DF5" stroke-width="0.875" stroke-linecap="round" stroke-linejoin="round"/>
<path d="M48.3039 17.1926C46.1404 20.1267 42.5663 21.7503 39.3905 23.2984C37.2598 24.3372 34.1045 25.76 33.0668 28C32.6902 28.813 33.1802 29.7202 33.973 30.0325C34.5893 30.2753 35.4067 30.2614 36.6874 29.9076C37.5728 29.663 38.7751 29.2611 40.1974 28.6636M41.4251 28.134C40.9924 28.325 40.5836 28.5014 40.1974 28.6636M41.4251 28.134C42.4823 28.0013 43.4105 28.145 44.5787 28.5099C46.3223 29.0545 46.9271 30.2042 46.5881 30.9601M41.4251 28.134C41.9966 27.8818 42.5888 27.6575 43.1961 27.455M40.1974 28.6636C40.1974 28.6636 41.6453 29.3448 42.4625 30.2294C42.9314 30.7371 43.1587 31.3456 43.1413 31.8598M43.1413 31.8598C43.1368 31.9928 43.116 32.1195 43.0787 32.2365C42.8763 32.8722 42.1117 33.381 41.0101 32.745C40.1458 32.246 39.2022 31.8704 38.0623 31.7256M43.1413 31.8598L45.4085 31.6723C46.0186 31.6136 46.4197 31.3354 46.5881 30.9601M46.5881 30.9601C47.2099 30.8547 48.6629 30.6811 49.4719 30.5609C50.8248 30.3601 51.1388 28.9802 49.4719 28.2822M43.1961 27.455C44.4168 27.0479 45.6983 26.7289 46.9944 26.4488C47.7154 26.2929 48.4409 26.1491 49.1629 26.0088M43.1961 27.455C45.601 27.6061 47.1629 27.7492 48.5431 28.0122C48.9033 28.0809 49.2117 28.1732 49.4719 28.2822M38.0626 15.9757C40.0554 13.9063 40.3187 13.4781 41.9043 12.6205C44.7482 11.0824 55.4316 10.4198 60.6537 7.65531C62.5622 6.64492 65.7818 3.95589 69.165 0.870362L76.0535 10.6709C73.1721 12.1744 70.6628 13.5411 69.0737 14.4775C62.8814 18.1266 63.4303 19.4756 59.3318 22.6823C56.8932 24.5904 53.0792 25.2477 49.1629 26.0088M49.4719 28.2822C49.8438 27.8392 50.3028 26.7643 49.1629 26.0088" stroke="#FF7A5C" stroke-width="0.875" stroke-linecap="round" stroke-linejoin="round"/>
<path d="M38.0625 13.125V22.75M38.0625 30.625V33.25" stroke="#786DF5" stroke-width="0.875"/>
</g>
<defs>
<clipPath id="clip0">
<rect width="77" height="56" fill="white"/>
</clipPath>
</defs>
</svg>
