<svg width="77" height="56" viewBox="0 0 77 56" fill="none" xmlns="http://www.w3.org/2000/svg">
<path d="M64.3123 55.125C62.6483 50.9151 60.4836 43.1511 58.1541 40.4721C56.7227 38.8259 52.1638 38.9412 47.8375 35.114C43.5113 31.2868 42.8715 29.3736 40.8748 28.2254C38.878 27.0772 39.5436 24.3978 42.5387 25.1633C45.5338 25.9287 48.2454 29.0707 49.8343 29.7559C50.278 27.8423 50.8327 24.7805 49.1687 21.3364C47.4204 17.7177 42.8715 6.51292 42.5387 4.2166C42.0683 0.970931 43.8698 -0.376004 45.201 2.30304C46.5322 4.98208 50.2248 12.106 51.556 13.6369C51.7128 12.0786 52.1792 10.6695 53.495 10.2372C55.3586 9.62481 56.5239 11.768 56.8736 12.9162C57.2226 12.2253 57.7355 11.768 58.4869 11.768C60.6167 11.768 62.0366 14.4423 62.4803 15.7794C62.6972 15.5005 62.9215 15.2985 63.1459 15.2125C64.4771 14.7022 65.5862 15.978 66.4738 17.5088C67.805 19.8048 67.805 22.4842 68.4706 27.0769C69.1362 31.6695 68.1378 33.5831 69.469 36.2625C70.4268 38.1905 73.9691 44.5968 76.1248 48.4648C72.4641 50.2656 64.5785 54.8188 64.3123 55.125Z" fill="#140C28"/>
<path d="M49.8343 29.7559C48.2454 29.0707 45.5338 25.9287 42.5387 25.1633C39.5436 24.3978 38.878 27.0772 40.8748 28.2254C42.8715 29.3736 43.5113 31.2868 47.8375 35.114C52.1638 38.9412 56.7227 38.8259 58.1541 40.4721C60.4836 43.1511 62.6483 50.9151 64.3123 55.125C64.5785 54.8188 72.4641 50.2656 76.1248 48.4648C73.9691 44.5968 70.4268 38.1905 69.469 36.2625C68.1378 33.5831 69.1362 31.6695 68.4706 27.0769C67.805 22.4842 67.805 19.8048 66.4738 17.5088C65.5862 15.978 64.4771 14.7022 63.1459 15.2125C62.9215 15.2985 62.6972 15.5005 62.4803 15.7794M49.8343 29.7559C52.4966 30.9041 56.4901 27.4596 60.8164 33.5831M49.8343 29.7559C50.278 27.8423 50.8327 24.7805 49.1687 21.3364C47.4204 17.7177 42.8715 6.51292 42.5387 4.2166C42.0683 0.970931 43.8698 -0.376005 45.201 2.30304C46.5322 4.98208 50.2248 12.106 51.556 13.6369M65.1427 19.0397C64.8099 20.1879 63.9088 21.3715 63.576 22.1373C63.2432 22.9032 63.4473 25.9287 61.7833 25.9287C61.1661 25.9287 60.8236 25.4549 60.654 24.7805M60.654 24.7805C60.2539 25.546 59.1875 26.6941 58.1226 25.1633C56.7914 23.2497 56.1573 20.5706 56.1573 19.0397C56.1573 18.5116 56.1177 17.4824 56.1751 16.3607M60.654 24.7805C60.4608 24.0129 60.5231 21.8373 60.6276 20.9533M62.4803 15.7794C61.7324 16.7413 61.0744 18.618 60.8164 19.8052C60.7476 20.1219 60.6787 20.5204 60.6276 20.9533M62.4803 15.7794C62.0366 14.4423 60.6167 11.768 58.4869 11.768C57.7355 11.768 57.2226 12.2253 56.8736 12.9162M60.6276 20.9533C60.3577 20.3155 59.818 18.8866 59.818 18.2743C59.818 17.6619 60.0399 16.9986 60.1508 16.7434M56.8736 12.9162C56.5239 11.768 55.3586 9.62481 53.495 10.2372C51.1655 11.0026 51.4982 14.8298 51.4982 17.1261C51.4982 19.4225 52.1324 21.7188 52.798 23.2497C53.4635 24.7805 54.4619 24.7805 55.1275 24.0151C55.7931 23.2497 56.1573 20.1879 55.4917 18.2743C55.2255 17.3558 55.8364 16.6158 56.1751 16.3607M56.8736 12.9162C56.4125 13.8287 56.2372 15.1487 56.1751 16.3607" stroke="#FF7A5C" stroke-width="0.875" stroke-linecap="round" stroke-linejoin="round"/>
<path d="M13.1251 55.125C14.7891 50.8461 16.5163 43.8442 18.8458 41.1212C20.2772 39.4481 24.836 39.5652 29.1623 35.6753C33.4886 31.7853 34.1285 29.4517 36.1252 28.2848C38.122 27.1178 37.4564 24.3944 34.4613 25.1724C31.4662 25.9504 28.7544 29.5329 27.1656 30.2294C26.7219 28.2844 26.1672 25.1724 27.8312 21.6719C29.5795 17.9939 34.1284 6.60534 34.4612 4.27138C34.9316 0.972503 33.13 -0.396513 31.7989 2.32645C30.4677 5.04941 26.775 12.2902 25.4439 13.8461C25.2871 12.2623 24.8206 10.8301 23.5049 10.3906C21.6412 9.76825 20.476 11.9466 20.1263 13.1136C19.7772 12.4114 19.2644 11.9466 18.513 11.9466C16.3832 11.9466 14.9632 14.6647 14.5195 16.0237C14.3027 15.7403 14.0783 15.535 13.8539 15.4476C12.5228 14.9289 11.4136 16.2256 10.526 17.7815C9.19487 20.1151 9.19486 22.8385 8.52928 27.5064C7.86369 32.1743 8.86207 34.1193 7.5309 36.8426C6.57307 38.8022 3.03077 45.3136 0.875084 49.245C4.53579 51.0753 12.8589 54.8138 13.1251 55.125Z" fill="#140C28"/>
<path d="M27.1656 30.2294C28.7544 29.5329 31.4662 25.9504 34.4613 25.1724C37.4564 24.3944 38.122 27.1178 36.1252 28.2848C34.1285 29.4517 33.4886 31.7853 29.1623 35.6753C24.836 39.5652 20.2772 39.4481 18.8458 41.1212C16.5163 43.8442 14.7891 50.8461 13.1251 55.125C12.8589 54.8138 4.53578 51.0753 0.875084 49.245C3.03077 45.3136 6.57307 38.8022 7.5309 36.8426C8.86207 34.1193 7.86369 32.1743 8.52928 27.5064C9.19486 22.8385 9.19487 20.1151 10.526 17.7815C11.4136 16.2256 12.5228 14.9289 13.8539 15.4476C14.0783 15.535 14.3027 15.7403 14.5195 16.0237M27.1656 30.2294C24.5032 31.3963 20.5098 27.8954 16.1835 34.1193M27.1656 30.2294C26.7219 28.2844 26.1672 25.1724 27.8312 21.6719C29.5795 17.9939 34.1284 6.60534 34.4612 4.27138C34.9316 0.972503 33.13 -0.396513 31.7989 2.32645C30.4677 5.04941 26.775 12.2902 25.4439 13.8461M11.8572 19.3375C12.19 20.5045 13.0911 21.7075 13.4239 22.4859C13.7567 23.2643 13.5526 26.3394 15.2166 26.3394C15.8338 26.3394 16.1762 25.8578 16.3459 25.1724M16.3459 25.1724C16.746 25.9504 17.8123 27.1174 18.8773 25.5614C20.2084 23.6165 20.8426 20.8935 20.8426 19.3375C20.8426 18.8007 20.8822 17.7546 20.8247 16.6146M16.3459 25.1724C16.539 24.3922 16.4768 22.1809 16.3723 21.2825M14.5195 16.0237C15.2675 17.0014 15.9255 18.9089 16.1835 20.1155C16.2523 20.4374 16.3211 20.8424 16.3723 21.2825M14.5195 16.0237C14.9632 14.6647 16.3832 11.9466 18.513 11.9466C19.2644 11.9466 19.7772 12.4114 20.1263 13.1136M16.3723 21.2825C16.6422 20.6342 17.1819 19.1819 17.1819 18.5595C17.1819 17.9371 16.96 17.2629 16.8491 17.0035M20.1263 13.1136C20.476 11.9466 21.6412 9.76825 23.5049 10.3906C25.8344 11.1686 25.5016 15.0586 25.5016 17.3925C25.5016 19.7265 24.8675 22.0605 24.2019 23.6165C23.5363 25.1724 22.538 25.1724 21.8724 24.3944C21.2068 23.6165 20.8426 20.5045 21.5081 18.5595C21.7744 17.6259 21.1635 16.8739 20.8247 16.6146M20.1263 13.1136C20.5873 14.0411 20.7627 15.3827 20.8247 16.6146" stroke="#FF7A5C" stroke-width="0.875" stroke-linecap="round" stroke-linejoin="round"/>
<path d="M45.5 55.125H30.625L38.0625 42L45.5 55.125Z" stroke="#786DF5" stroke-width="0.875" stroke-linecap="round" stroke-linejoin="round"/>
</svg>
