<svg width="77" height="56" viewBox="0 0 77 56" fill="none" xmlns="http://www.w3.org/2000/svg">
<g clip-path="url(#clip0)">
<path d="M47.1282 29.8361C46.3991 28.8153 44.8899 25.1693 44.1269 21.7356C43.2519 17.798 41.9394 10.3605 41.5019 7.29802C41.0644 4.23552 38.0019 4.67292 38.4394 8.17306C38.6184 9.605 39.1686 17.9439 39.7519 22.1731C39.7519 22.1731 36.6894 11.673 35.8144 8.17299C34.9394 4.67299 32.2415 5.54803 32.7519 8.61049C33.1894 11.2356 35.3769 23.4856 35.3769 23.4856C35.3769 23.4856 32.4814 15.75 30.8968 11.4396C30.3906 10.0625 29.6084 9.25862 28.8144 9.48547C28.0962 9.69067 27.9555 10.6898 28.1439 12.1106C28.759 16.7483 31.8769 26.548 31.8769 26.548C31.8769 26.548 29.8254 24.0625 28 18.8125C27.343 16.923 26.7733 16.6894 26.1894 16.923C25.5535 17.1773 25.3334 18.0404 25.3813 19.25C25.4983 22.2018 27.2119 27.2173 28.3769 30.4855C32.4814 42 34.6689 42.875 34.6689 45.9375C34.6689 48.3875 34.2708 57.0271 33.25 60.673H48.0644C47.6269 56 47.6269 48.6856 47.6269 46.2356C47.6269 43.1731 50.6752 42.8115 51.625 38.0625C53.375 29.3125 54.25 26.548 52.4394 23.048C50.8187 19.9151 51.1269 17.3606 49.3769 17.3606C47.6269 17.3606 47.6269 19.5481 48.0644 22.1731C48.5019 24.7981 49 26.6875 48.5625 28.4375C48.2125 29.8375 44.1269 30.625 41.5625 35.875" stroke="#FF7A5C" stroke-width="0.875" stroke-linecap="round" stroke-linejoin="round"/>
<rect x="0.4375" y="0.4375" width="76.125" height="55.125" rx="4.8125" stroke="#786DF5" stroke-width="0.875"/>
<path d="M55.125 0.875V12.25H76.5625M3.5 51.625H19.25M3.5 49H17.5M3.5 46.375H21M3.5 43.75H17.5M3.5 41.125H20.125M3.5 38.5H18.375M3.5 35.875H20.125" stroke="#786DF5" stroke-width="0.875" stroke-linecap="round" stroke-linejoin="round"/>
</g>
<defs>
<clipPath id="clip0">
<rect width="77" height="56" fill="white"/>
</clipPath>
</defs>
</svg>
