<svg width="77" height="56" viewBox="0 0 77 56" fill="none" xmlns="http://www.w3.org/2000/svg">
<g clip-path="url(#clip0)">
<path d="M38.9373 29.7499L36.8651 34.7124C36.4829 35.6275 35.4175 36.0425 34.517 35.627L14.7139 26.4897C13.8363 26.0848 13.4531 25.0451 13.8581 24.1675L18.6299 13.8257C19.0324 12.9533 20.0629 12.5686 20.9386 12.9637L40.1203 21.6191C40.4872 21.7847 40.7858 22.0716 40.9658 22.4316L41.125 22.7501" stroke="#786DF5" stroke-width="0.875" stroke-linecap="round" stroke-linejoin="round"/>
<path d="M15.3123 20.7199L12.6124 18.02C11.929 17.3365 11.929 16.2285 12.6124 15.5451L20.6661 7.49137C21.3455 6.81202 22.4455 6.80739 23.1305 7.481L35.0993 19.25" stroke="#786DF5" stroke-width="0.875" stroke-linecap="round" stroke-linejoin="round"/>
<path d="M49.4722 17.5C48.1251 20.5625 42.5666 22.2554 39.3909 23.8035C37.2601 24.8423 34.1048 26.2651 33.0671 28.5051C32.6905 29.3181 33.1805 30.2253 33.9733 30.5376C34.5896 30.7804 35.407 30.7665 36.6878 30.4127C37.5731 30.1681 38.7754 29.7662 40.1977 29.1688M41.4254 28.6392C40.9927 28.8301 40.5839 29.0065 40.1977 29.1688M41.4254 28.6392C42.4826 28.5065 43.4108 28.6502 44.579 29.015C46.3226 29.5596 46.9274 30.7093 46.5884 31.4652M41.4254 28.6392C41.9969 28.387 42.5891 28.1626 43.1964 27.9601M40.1977 29.1688C40.1977 29.1688 41.6457 29.8499 42.4628 30.7345C42.9317 31.2422 43.159 31.8507 43.1416 32.3649M43.1416 32.3649C43.1371 32.4979 43.1163 32.6246 43.079 32.7416C42.8766 33.3774 42.112 33.8861 41.0104 33.2501C40.1461 32.7511 39.2025 32.3755 38.0626 32.2307M43.1416 32.3649L45.4088 32.1774C46.0189 32.1187 46.42 31.8405 46.5884 31.4652M46.5884 31.4652C47.2102 31.3598 48.6632 31.1862 49.4722 31.0661C50.8251 30.8652 51.1391 29.4853 49.4722 28.7873M43.1964 27.9601C44.4171 27.553 45.6986 27.234 46.9947 26.9539C47.7157 26.798 48.4412 26.6542 49.1632 26.5139M43.1964 27.9601C45.6013 28.1112 47.1632 28.2543 48.5434 28.5174C48.9036 28.586 49.212 28.6784 49.4722 28.7873M35.0001 19.25C36.993 17.1806 39.3909 14.4852 41.9046 13.1256C44.7485 11.5875 55.4319 10.9249 60.654 8.16042C62.5625 7.15004 65.7821 4.461 69.1653 1.37548L76.0538 11.176C73.1725 12.6795 70.6631 14.0462 69.074 14.9826C62.8817 18.6317 63.4306 19.9807 59.3322 23.1874C56.8935 25.0955 53.0795 25.7528 49.1632 26.5139M49.4722 28.7873C49.8441 28.3443 50.3031 27.2695 49.1632 26.5139" stroke="#FF7A5C" stroke-width="0.875" stroke-linecap="round" stroke-linejoin="round"/>
<path d="M0.4375 51.1875H18.375M18.375 51.1875L14.4375 55.125M18.375 51.1875L14.4375 47.25M21.4375 51.1875H37.625M37.625 51.1875L33.6875 55.125M37.625 51.1875L33.6875 47.25M40.6875 51.1875H56.875M56.875 51.1875L52.9375 55.125M56.875 51.1875L52.9375 47.25M59.9375 51.1875H76.125M76.125 51.1875L72.1875 55.125M76.125 51.1875L72.1875 47.25" stroke="#786DF5" stroke-width="0.875" stroke-linecap="round" stroke-linejoin="round"/>
<path d="M38.5 30.625L37.625 32.8125M34.125 18.8125L35.875 19.6875" stroke="#786DF5" stroke-width="0.875"/>
</g>
<defs>
<clipPath id="clip0">
<rect width="77" height="56" fill="white"/>
</clipPath>
</defs>
</svg>
