<svg width="77" height="56" viewBox="0 0 77 56" fill="none" xmlns="http://www.w3.org/2000/svg">
<g clip-path="url(#clip0)">
<path d="M42.875 20.1248L52.5429 3.93424M42.875 20.1248C50.5635 21.9462 55.7693 24.6279 61.6875 29.3123M42.875 20.1248L37.1875 28.8748M76.1394 51.8743C72.8304 49.0723 69.6486 41.5964 59.0935 40.2171C60.3161 38.277 60.9094 32.8419 61.6875 29.3123M76.1394 51.8743C76.5151 50.1099 73.8574 24.3751 70.9722 17.0346C68.6641 11.1622 57.6883 4.83399 52.5429 3.93424M76.1394 51.8743C74.0872 42.6242 68.1512 34.4286 61.6875 29.3123M52.5429 3.93424L53.3812 2.33224C53.8031 1.87961 52.8862 1.25275 52.4914 1.92582C49.6475 6.77408 42.2253 18.6734 35.7126 29.047M31.695 35.4373C27.4618 42.1616 24.3154 47.1333 24.3154 47.1333L25.2053 47.5397L33.4198 34.7827" stroke="#786DF5" stroke-width="0.875" stroke-linecap="round" stroke-linejoin="round"/>
<path d="M32.8124 29.3123L37.4062 17.9374M37.4062 17.9374C35.8749 15.8957 32.8124 11.8124 26.6873 15.3124C22.3123 17.8124 16.6248 19.6874 12.2498 19.6874L10.9373 15.3124M37.4062 17.9374L38.8196 14.4374M9.47902 10.9374L8.16651 6.99987C13.7665 6.99987 21.4373 3.93742 23.1873 2.62494C32.3748 -2.18756 39.1323 3.55103 41.9999 6.56237L40.5864 10.0624M9.47902 10.9374C12.3957 10.6458 18.3748 10.4999 24.4998 6.12494C30.6248 1.74994 36.1105 4.81244 40.5864 10.0624M9.47902 10.9374L10.9373 15.3124M40.5864 10.0624L38.8196 14.4374M38.8196 14.4374C37.2547 11.8124 32.8123 7.17494 27.5623 9.62494C20.9998 12.6874 18.5207 15.3124 10.9373 15.3124" stroke="#786DF5" stroke-width="0.875" stroke-linecap="round" stroke-linejoin="round"/>
<path d="M45.4765 29.5182C50.4782 29.3676 53.4139 31.4101 54.1484 29.6236C55.0299 27.4797 48.6358 25.6862 46.189 25.5156C43.6344 25.3374 42.2095 25.2572 39.8124 25.375M29.3043 29.8514C30.1689 29.7892 40.383 28.7732 42.8607 27.4888C46.5926 25.5542 46.4673 29.1989 44.4911 30.6654M44.4911 30.6654C45.1165 30.5048 46.465 30.558 46.8561 32.0554C47.2472 33.5529 45.3653 35.3411 44.3755 36.048M44.4911 30.6654C43.7309 31.2295 42.9965 31.7307 42.1975 32.1626M20.5624 41.5873C24.5915 41.9908 28.3349 39.8931 30.1874 36.75C31.5746 34.3964 35.5346 34.0839 38.2753 33.5399C39.8654 33.2243 41.0932 32.7596 42.1975 32.1626M41.5361 39.8931C41.9599 40.9028 41.7312 42.4795 37.5383 44.515C33.3454 46.5504 30.5879 49.176 22.024 48.5788C18.3537 48.3229 8.32548 53.6678 5.62817 54.7865L1.04762 42.4605C4.94667 41.1397 14.0061 38.7314 16.5788 36.3151C20.9999 32.1626 29.0442 26.4028 33.0083 25.9442C34.1516 25.8119 36.6759 25.6098 37.9037 25.5156M41.5361 39.8931C42.6672 39.5227 44.8186 38.2352 44.3755 36.048M41.5361 39.8931C40.4323 39.8569 37.52 39.662 34.7013 39.1715C33.7422 39.0045 33.1337 38.7032 32.7974 38.3448M44.3755 36.048C43.0124 37.0215 41.8824 36.7634 41.5624 35.4375M42.1975 32.1626C41.4207 32.8518 41.356 34.5823 41.5624 35.4375M41.5624 35.4375C39.6831 35.688 35.8166 35.536 34.7013 35.6162C32.7974 35.7533 31.8983 37.3864 32.7974 38.3448M37.5383 42.4375C37.5383 42.4375 34.0024 41.8916 32.4495 41.5873C30.5084 41.2069 30.094 38.4424 32.7974 38.3448" stroke="#FF7A5C" stroke-width="0.875" stroke-linecap="round" stroke-linejoin="round"/>
<path d="M37.625 17.5L33.25 28.4375M39.375 23.1875L36.3125 28M42.875 20.125L38.0625 27.5625" stroke="#786DF5" stroke-width="0.875"/>
<path d="M47.2081 13.4943C50.7102 14.9808 57.3114 18.0074 61.0217 20.3857M60.3753 28.0001L62.8653 23.0115M65.1878 32.3751C65.178 32.0957 66.1603 29.8451 67.1137 27.2395M75.3482 41.8337C72.9907 34.5622 69.3119 27.8917 67.7672 25.4654C67.5794 25.9714 67.3539 26.5828 67.1137 27.2395M49.2556 9.4822C52.7998 11.1009 59.7667 14.5336 63.0906 16.981M66.3999 11.5049C66.1728 12.8931 65.4162 15.2064 64.8481 16.9191M74.1195 31.8082C73.4116 29.795 71.106 24.7244 69.5598 22.3379M70.0364 15.3167C70.0967 17.0298 69.6587 18.7889 69.3043 20.094M61.0217 20.3857C62.0197 21.0255 62.8086 21.6183 63.2717 22.1216L62.8653 23.0115M61.0217 20.3857L44.1877 18.1403M43.7503 20.3858L62.8653 23.0115M69.3043 20.094C69.1522 20.6543 69.0155 21.1309 68.9403 21.4841C69.1259 21.7001 69.3348 21.9905 69.5598 22.3379M69.3043 20.094C70.0523 20.3808 71.6388 21.0389 72.0009 21.3763M69.5598 22.3379C70.2432 22.4597 71.7909 22.8722 72.5151 23.5471M63.0906 16.981C63.6613 17.4012 64.1246 17.7924 64.4448 18.1403C64.5563 17.7964 64.6954 17.3795 64.8481 16.9191M63.0906 16.981C60.504 13.9723 54.6969 7.36433 52.1622 5.0021M64.8481 16.9191C62.3992 13.7596 56.8676 6.85009 54.3329 4.48786M67.1137 27.2395C69.9047 33.4159 75.5114 46.4683 75.61 49.2666" stroke="#786DF5" stroke-width="0.875" stroke-linecap="round"/>
</g>
<defs>
<clipPath id="clip0">
<rect width="77" height="56" fill="white"/>
</clipPath>
</defs>
</svg>
