<svg width="77" height="56" viewBox="0 0 77 56" fill="none" xmlns="http://www.w3.org/2000/svg">
<g clip-path="url(#clip0)">
<path d="M31.5 43.75H11.375C9.442 43.75 7.875 42.183 7.875 40.25V18.375C7.875 16.442 9.442 14.875 11.375 14.875H21M42 14.875H62.125C64.058 14.875 65.625 16.442 65.625 18.375V38.9375" stroke="#786DF5" stroke-width="0.875" stroke-linecap="round"/>
<path d="M45.0456 21.9336L38.5404 8.0446C37.918 6.7159 36.3274 6.15528 35.0095 6.80011L32.8125 7.87506M47.8429 27.5795L49.875 31.8906M33.9874 43.0884L35.4375 46.1491L36.1038 47.5554C36.7245 48.8656 38.2898 49.4245 39.6 48.8037L53.468 42.2333C54.0472 41.9589 54.2949 41.2673 54.0216 40.6876V40.6876M29.3125 33.6876L28.1865 31.2538L24.716 23.7526L21.2117 16.1783C20.6068 14.871 21.1684 13.3206 22.4701 12.7039L24.067 11.9473M24.067 11.9473L24.1212 12.0142C24.8893 12.9632 26.2103 13.2573 27.3085 12.7238L31.9276 10.48C32.8963 10.0094 33.2942 8.8383 32.8125 7.87506V7.87506M24.067 11.9473L32.8125 7.87506M30.625 29.7501L42.875 24.0626M31.9375 32.3751L42.875 27.1251M40.2251 45.57L49.8041 41.0998C50.8017 40.6343 51.2187 39.4374 50.7264 38.4528V38.4528C50.2525 37.505 49.1101 37.107 48.1499 37.5551L38.5709 42.0253C37.5733 42.4909 37.1563 43.6877 37.6487 44.6723V44.6723C38.1225 45.6201 39.2649 46.0181 40.2251 45.57Z" stroke="#786DF5" stroke-width="0.875" stroke-linecap="round"/>
<path d="M25.7209 26.1991C24.9598 26.2169 23.4447 26.557 23.4732 27.7747C23.5016 28.9925 26.5148 30.0456 27.7272 30.3346M31.528 38.4379C30.9972 40.1637 29.6609 40.0045 29.0589 38.686C28.7054 37.9117 27.8905 37.571 27.6691 36.2436C27.492 35.1816 28.7492 34.018 29.3126 33.6875C30.2778 34.7629 32.0588 36.7121 31.528 38.4379ZM31.528 38.4379C32.3751 40.25 34.0741 41.2281 33.9238 42.945C33.8517 43.77 33.2976 44.4522 32.8403 44.5152M30.1032 39.6826C29.7022 41.5207 31.0061 42.7106 31.3596 43.4848C31.6855 44.1986 32.3005 44.5897 32.8403 44.5152M32.8403 44.5152C33.0334 44.9476 33.4251 46.0407 33.4465 46.954C33.4732 48.0957 34.8274 49.0159 36.1282 47.6528M45.9868 45.8993C47.5326 46.6187 51.5625 48.2439 54.2263 48.1816C56.8902 48.1193 57.076 47.9245 61.1207 49.9241C64.3564 51.5238 69.4018 53.9822 71.52 55.0115L76.1251 43.3125C70.7608 41.2729 63.4376 38.5 60.7945 36.2306C58.7524 34.4771 57.8024 30.3988 56.041 28.3459C54.2796 26.2929 49.3377 23.7722 48.4646 21.8598C47.8626 20.5412 48.004 18.4438 47.0482 18.2758C45.7737 18.0517 44.4377 20.6213 45.4647 23.8337C46.4918 27.0461 49.7351 28.4107 49.8074 31.5035C50.3126 39.6826 55.4469 41.7563 56.3673 42.0393" stroke="#FF7A5C" stroke-width="0.875" stroke-linecap="round" stroke-linejoin="round"/>
<path d="M25.4431 25.3749L28.9136 32.8762M35 45.5C35.2917 46.2291 36.3125 48.5625 37.625 49M44.625 46.375L47.6875 45.0625" stroke="#786DF5" stroke-width="0.875" stroke-linecap="round"/>
<rect x="24.0708" y="17.0922" width="14.6788" height="11.0163" rx="3.0625" transform="rotate(-25.0299 24.0708 17.0922)" stroke="#786DF5" stroke-width="0.875"/>
<rect x="0.4375" y="51.1875" width="25.375" height="4.375" rx="2.1875" stroke="#786DF5" stroke-width="0.875"/>
<rect x="0.4375" y="0.4375" width="14.875" height="2.625" rx="1.3125" stroke="#786DF5" stroke-width="0.875"/>
<rect x="57.3125" y="0.4375" width="19.25" height="8.75" rx="3.0625" stroke="#786DF5" stroke-width="0.875"/>
</g>
<defs>
<clipPath id="clip0">
<rect width="77" height="56" fill="white"/>
</clipPath>
</defs>
</svg>
