<svg width="77" height="56" viewBox="0 0 77 56" fill="none" xmlns="http://www.w3.org/2000/svg">
<g clip-path="url(#clip0)">
<path d="M6.125 0.4375H43.75L45.9375 18.375M6.125 0.4375L0.4375 6.125H6.84722M6.125 0.4375L6.84722 6.125M13.125 55.5625H50.75L56.4375 50.75H50.0804M13.125 55.5625L18.8125 50.75H50.0804M13.125 55.5625L6.84722 6.125M48.5625 38.9375L50.0804 50.75M11.375 6.125H40.25M12.25 13.125H29.75" stroke="#786DF5" stroke-width="0.875" stroke-linecap="round" stroke-linejoin="round"/>
<path d="M40.7306 23.6071C37.8687 22.7049 33.4582 24.7603 32.3267 25.0643C31.5977 25.2818 31.1094 26.0474 30.4075 26.7877M46.4752 28.309C43.4207 29.952 38.9771 28.1051 35.9241 27.3146M35.9241 27.3146C34.3646 26.9107 32.8501 26.6175 31.2516 27.0139C29.4929 27.45 28.9429 28.6225 29.3119 29.6686M35.9241 27.3146L52.8524 22.2953M30.4075 26.7877C29.9062 27.3164 29.2959 27.8321 28.4112 28.1262C27.2563 28.5102 26.4639 28.402 26.0527 28.0591M30.4075 26.7877L50.7764 20.5119M26.0527 28.0591C25.5998 27.6814 25.6093 27.019 26.1061 26.4158C27.5807 24.6252 27.7396 22.8985 29.6196 21.8411C31.3116 20.8894 35.0102 18.9787 37.0041 18.5707C38.9775 18.1669 45.9917 18.4671 48.5825 19.3175C49.1713 19.5107 49.7546 19.6862 50.7764 20.5119M26.0527 28.0591L21.7516 29.6723L19.49 31.5122L22.7792 31.6129L28.7849 29.8254M29.3119 29.6686L28.7849 29.8254M29.3119 29.6686C29.738 30.8763 31.4128 31.1116 32.5348 31.5818M28.7849 29.8254C28.7294 30.0328 27.5905 31.8613 28.8983 32.4199C29.6906 32.7583 30.3246 32.8251 30.9658 32.6183M32.5348 31.5818C32.066 31.9485 31.383 32.4837 30.9658 32.6183M32.5348 31.5818C34.6558 32.4707 36.5644 32.7955 38.7577 33.3965M30.9658 32.6183C30.4708 33.1593 29.7308 34.381 30.7305 34.9403C31.2424 35.2267 31.8674 35.2291 32.5381 35.0009M35.738 32.6282C34.7835 33.7551 33.5049 34.672 32.5381 35.0009M32.5381 35.0009C32.5584 35.269 32.7871 35.8869 33.5397 36.2134C34.4804 36.6216 35.332 36.5376 36.3271 35.7114C37.1232 35.0504 38.1847 33.816 38.7577 33.3965M38.7577 33.3965C41.6066 34.1771 44.557 35.679 47.016 37.6844C49.0117 39.3119 53.2846 40.3532 56.5728 40.87C61.2929 41.6118 67.6665 45.9475 72.4293 48.4553L75.7988 35.88C70.0629 33.9788 66.7332 33.5757 62.9101 31.1775C60.2355 29.3111 56.152 25.2503 52.8524 22.2953M50.7764 20.5119L58.141 18.2429L59.0389 20.4609L52.8524 22.2953" stroke="#FF7A5C" stroke-width="0.875" stroke-linecap="round" stroke-linejoin="round"/>
</g>
<defs>
<clipPath id="clip0">
<rect width="77" height="56" fill="white"/>
</clipPath>
</defs>
</svg>
