<svg width="543" height="456" viewBox="0 0 543 456" fill="none" xmlns="http://www.w3.org/2000/svg" xmlns:xlink="http://www.w3.org/1999/xlink">
<g clip-path="url(#clip0)">
<path d="M441.012 391.726C352.742 341.272 340.132 357.67 272.037 329.92C224.051 310.365 183.892 254.479 138.983 204.418C138.335 222.707 128.548 228.383 129.012 229.644C129.633 231.341 130.229 233.021 130.805 234.69C143.415 271.268 120.086 281.99 106.215 264.331C99.0407 255.198 86.6694 238.492 80.9949 231.564C75.2211 232.161 68.9922 229.191 63.9713 222.076L45.6867 195.415C44.0301 196.308 42.3351 196.953 40.6426 197.327C31.4463 199.361 22.3244 193.373 19.836 175.407C17.1552 156.052 5.52257 118.187 1 102H24C10.6422 88.7065 4.71665 78.5076 3.33615 69.1664C2.441 63.1094 3.68932 57.7831 6.59545 53.0577C10.0776 47.3958 14.8086 44.1182 21.7784 43.484C51.9395 40.7398 87.5914 66.7162 112.205 82.5345C117.116 85.6908 121.109 88.3234 126.5 92V1C246.72 33.6517 240.311 23.2458 272.037 42.9671C310.894 67.1204 394.355 194.327 464.972 239.104C521.465 274.926 720.536 330.971 813.01 354.516L769.581 613C696.443 553.087 511.629 432.088 441.012 391.726Z" fill="#3700D4"/>
<path d="M112.205 82.5348C117.116 85.6911 121.619 88.8239 127.01 92.5005V103H25.0098C11.652 89.707 4.71673 78.5079 3.33623 69.1667C2.44108 63.1097 3.68939 57.7834 6.59553 53.058C10.0776 47.3961 14.8086 44.1185 21.7785 43.4843C51.9396 40.7401 87.5915 66.7165 112.205 82.5348Z" fill="#3700D4"/>
<path d="M261.319 154.595C246.946 152.965 219.493 145.476 181.214 125.287M79.1033 147.658C73.7172 143.676 68.6789 139.885 63.9713 136.272M79.1033 147.658C88.1825 159.766 92.9745 172.254 96.7575 189.282C102.404 214.695 92.622 230.362 80.9949 231.564M79.1033 147.658C86.2162 152.916 93.135 158.63 99.8935 164.686M1.00977 102.5C3.41053 111.093 7.81208 125.148 11.8147 140M63.9713 136.272C46.6381 122.968 33.2451 110.986 24.0113 101.796C10.6535 88.503 4.71665 78.5076 3.33615 69.1664M63.9713 136.272C63.9713 136.272 65.8628 159.01 60.8188 175.407C59.1297 180.898 56.441 185.617 53.2219 189.282M45.6867 195.415C44.0301 196.308 42.3351 196.953 40.6426 197.327C36.8164 198.173 33.0031 197.631 29.6751 195.415M45.6867 195.415L63.9713 222.076C68.1595 228.011 73.1883 231.062 78.0923 231.564M45.6867 195.415C48.3549 193.977 50.9236 191.898 53.2219 189.282M80.9949 231.564C80.0373 231.663 79.0673 231.664 78.0923 231.564M80.9949 231.564C82.6175 233.545 84.7876 236.326 87.2272 239.5M99.8935 164.686C113.679 192.747 122.601 212.106 129.012 229.644M99.8935 164.686C113.479 176.858 126.417 190.41 138.983 204.418M129.012 229.644C129.633 231.341 130.229 233.021 130.805 234.69C139.225 259.114 131.622 272.009 121.51 272.626M129.012 229.644C128.548 228.383 138.335 222.707 138.983 204.418M138.983 204.418C183.892 254.479 224.051 310.365 272.037 329.92C340.132 357.67 352.742 341.272 441.012 391.726C511.629 432.088 696.443 553.087 769.581 613L813.01 354.516C720.536 330.971 521.465 274.926 464.972 239.104C394.355 194.327 310.894 67.1204 272.037 42.9671C240.311 23.2458 246.73 33.6517 126.51 1M181.214 125.287C185.577 116.025 196.51 101.796 212.01 98.5M181.214 125.287C170.238 119.497 157.661 112.325 144.51 104.073M3.33615 69.1664C2.441 63.1094 3.68932 57.7831 6.59545 53.0577C10.0776 47.3958 14.8086 44.1182 21.7784 43.484M3.33615 69.1664C15.8293 81.9807 44.0774 105.765 55.6883 85.6098C66.9916 65.9887 37.2461 52.5711 21.7784 43.484M21.7784 43.484C51.9395 40.7398 87.5914 66.7162 112.205 82.5345C117.116 85.6908 120.75 88.3821 126.141 92.0587C132.319 96.2718 138.475 100.286 144.51 104.073M144.51 104.073C142.51 99.7156 138.91 88.3 140.51 77.5M29.6751 195.415C31.1566 176.776 29.6587 139.6 11.8147 140M29.6751 195.415C19.5098 188.646 15.7366 154.553 11.8147 140M78.0923 231.564C73.9953 222.095 63.2854 200.381 53.2219 189.282M121.51 272.626C114.321 259.584 97.4012 234.7 87.2272 239.5M121.51 272.626C109.51 273.358 94.8229 249.383 87.2272 239.5" stroke="#FF7A5C" stroke-linecap="round" stroke-linejoin="round"/>
<mask id="mask0" mask-type="alpha" maskUnits="userSpaceOnUse" x="150" y="118" width="352" height="352">
<mask id="mask1" maskUnits="userSpaceOnUse" x="150" y="118" width="352" height="352">
<rect x="150" y="337.796" width="256" height="256" transform="rotate(-59.1572 150 337.796)" fill="url(#pattern0)"/>
</mask>
<g mask="url(#mask1)">
<rect x="124.72" y="360.927" width="304.137" height="278.427" transform="rotate(-59.1572 124.72 360.927)" fill="#FF753A"/>
</g>
</mask>
<g mask="url(#mask0)">
<path d="M287.043 319C249.043 301.043 216.55 266.856 221.543 254.499C231.529 229.786 340.859 268.437 374.543 292C408.227 315.562 328.206 338.451 287.043 319Z" fill="#FF7A5C"/>
</g>
<mask id="mask2" mask-type="alpha" maskUnits="userSpaceOnUse" x="78" y="-34" width="305" height="305">
<mask id="mask3" maskUnits="userSpaceOnUse" x="78" y="-34" width="305" height="305">
<rect width="256" height="256" transform="matrix(-0.212975 0.977058 0.977058 0.212975 132.521 -34)" fill="url(#pattern1)"/>
</mask>
<g mask="url(#mask3)">
<rect width="304.137" height="278.427" transform="matrix(-0.212975 0.977058 0.977058 0.212975 129.891 -68.1641)" fill="#FF753A"/>
</g>
</mask>
<g mask="url(#mask2)">
<path d="M199.393 56.4335C159.386 43.5529 133.699 60.5031 128.893 72.934C119.281 97.7953 197.286 141.934 238.393 141.934C255.393 141.935 242.73 70.3862 199.393 56.4335Z" fill="#FF7A5C"/>
</g>
</g>
</svg>
