<svg width="647" height="446" viewBox="0 0 647 446" fill="none" xmlns="http://www.w3.org/2000/svg" xmlns:xlink="http://www.w3.org/1999/xlink">
<g clip-path="url(#clip0)">
<path d="M252.168 324.063C299.315 316.653 360.582 301.723 389.197 278.387C412.326 259.524 438.488 243.768 465.282 232C500.508 241 514.008 247.5 537.508 233.117C551.78 235.271 564.897 235.673 571.508 232C585.907 224 610.156 210.833 620.489 205L543.502 205C558.843 199.201 575.74 192.257 592.844 185.089C609.848 177.963 637.902 169.589 644.665 150C648.19 139.794 646.386 127.483 632.508 122C612.008 113.9 573.584 123.137 548.237 129.701C509.457 139.743 467.022 173.235 411.5 158.155L411.5 1.5C368.518 12.8375 321.936 43.0219 305.513 57.7319C258.204 100.105 199.652 158.328 161.301 185.089C106.485 219.476 58.7425 225.255 -23.5011 252.515L-23.5011 458.5C44.7893 422.542 184.49 334.7 252.168 324.063Z" fill="#3700D4"/>
<path d="M391.655 139.319C397 151 406.576 156.656 412.033 158.138C467.555 173.218 509.003 139.533 547.782 129.49C573.13 122.927 611.553 113.69 632.053 121.79M411.5 1.49977C368.518 12.8373 321.482 42.8117 305.059 57.5217C257.75 99.895 199.198 158.118 160.847 184.879C106.03 219.265 58.2884 225.045 -23.9552 252.304L-23.9553 458.289C44.3351 422.332 184.035 334.49 251.714 323.853C298.861 316.443 339.5 316 384 289C405.906 275.709 430.692 248.078 453.5 237.022M632.053 121.79C616.445 124.083 581.723 133.19 589.053 152.79C596.799 173.5 629.992 158.957 644.211 149.79M632.053 121.79C645.932 127.273 647.735 139.583 644.211 149.79M644.211 149.79C637.447 169.379 609.393 177.753 592.39 184.879C575.286 192.047 558.389 198.99 543.048 204.79C531.112 209.302 520.915 212.925 507.154 216.695C501.635 218.207 496.09 219.908 490.539 221.79M490.539 221.79C481.956 224.7 473.36 228.043 464.828 231.79M490.539 221.79C501.812 225.397 520.235 230.368 537.053 232.907M619.5 205.5C609.167 211.333 585.453 223.79 571.053 231.79C564.443 235.463 551.326 235.061 537.053 232.907M464.828 231.79C461.037 233.455 457.259 235.2 453.5 237.022M464.828 231.79C477.805 235.106 487.834 238.082 496.5 239.8M537.053 232.907C522.211 241.991 511.357 242.745 496.5 239.8M453.5 237.022C463.167 240.246 485.3 245.315 496.5 239.8" stroke="#FF7A5C" stroke-linecap="round" stroke-linejoin="round"/>
<mask id="mask0" mask-type="alpha" maskUnits="userSpaceOnUse" x="125" y="93" width="352" height="352">
<mask id="mask1" maskUnits="userSpaceOnUse" x="125" y="93" width="352" height="352">
<rect width="256" height="256" transform="matrix(-0.512685 -0.858577 -0.858577 0.512685 476.043 312.796)" fill="url(#pattern0)"/>
</mask>
<g mask="url(#mask1)">
<rect width="304.137" height="278.427" transform="matrix(-0.512685 -0.858577 -0.858577 0.512685 501.323 335.927)" fill="#FF753A"/>
</g>
</mask>
<g mask="url(#mask0)">
<path d="M339 294C377 276.043 409.493 241.856 404.5 229.499C394.514 204.786 285.184 243.437 251.5 267C217.816 290.562 297.837 313.451 339 294Z" fill="#FF7A5C"/>
</g>
</g>
</svg>
