<svg viewBox="0 0 212 379" fill="none" xmlns="http://www.w3.org/2000/svg" xmlns:xlink="http://www.w3.org/1999/xlink">
<path d="M319.518 277.963C284.427 272.448 251.426 263.431 226 253C196.997 241.101 172.236 212.331 141.763 202C137.632 200.599 133.505 199.333 129.397 198.208C119.155 195.401 111.565 192.705 102.682 189.346C91.2636 185.03 78.6876 179.862 65.9571 174.527C53.3016 169.223 32.4214 162.991 27.3872 148.411C24.7642 140.814 26.1065 131.652 36.4361 127.57C51.694 121.542 80.2922 128.417 99.1579 133.302C128.021 140.776 159.233 165.96 200.557 154.737L200.557 37.8842C232.548 46.3226 267.59 68.7883 279.814 79.7367C315.025 111.275 358.605 154.609 387.149 174.527C427.948 200.12 463.482 204.422 524.695 224.711L524.695 378.023C473.867 351.26 369.89 285.88 319.518 277.963Z" fill="#3700D4"/>
<path d="M217.895 138.5C213.917 147.194 204.594 153.365 200.533 154.468C159.208 165.691 128.359 140.62 99.496 133.145C80.6303 128.26 52.032 121.385 36.7742 127.414M200.395 37.5003C232.386 45.9387 267.928 68.6314 280.152 79.5799C315.363 111.118 358.943 154.452 387.487 174.37C428.286 199.964 463.82 204.265 525.033 224.554L525.033 377.866C474.205 351.103 370.228 285.723 319.856 277.807C284.765 272.292 254.518 271.962 221.397 251.866C189.071 232.252 167.46 208.387 129.735 198.051C107.965 192.086 87.0723 183.078 66.2951 174.37C53.6396 169.067 32.7594 162.834 27.7252 148.254M36.7742 127.414C48.3916 129.121 74.2347 135.899 68.7786 150.487C63.0135 165.901 38.3085 155.077 27.7252 148.254M36.7742 127.414C26.4445 131.495 25.1023 140.657 27.7252 148.254" stroke="#FF7A5C" stroke-width="0.8" stroke-linecap="round" stroke-linejoin="round"/>
<mask id="mask0" mask-type="alpha" maskUnits="userSpaceOnUse" x="152" y="105" width="263" height="263">
<mask id="mask1" maskUnits="userSpaceOnUse" x="152" y="105" width="263" height="263">
<rect x="152.891" y="269.578" width="190.537" height="190.537" transform="rotate(-59.1572 152.891 269.578)" fill="url(#pattern0)"/>
</mask>
<g mask="url(#mask1)">
<rect x="134.075" y="286.793" width="226.365" height="207.23" transform="rotate(-59.1572 134.075 286.793)" fill="#FF753A"/>
</g>
</mask>
<g mask="url(#mask0)">
<path d="M254.89 255.588C226.607 242.223 202.423 216.778 206.139 207.581C213.571 189.187 294.944 217.955 320.015 235.492C345.085 253.029 285.527 270.065 254.89 255.588Z" fill="#FF7A5C"/>
</g>
</svg>
