<svg width="543" height="519" viewBox="0 0 543 519" fill="none" xmlns="http://www.w3.org/2000/svg" xmlns:xlink="http://www.w3.org/1999/xlink">
<g clip-path="url(#clip0)">
<path d="M441.013 127.274C352.742 177.728 340.132 161.33 272.038 189.08C224.051 208.635 183.892 264.521 138.984 314.582C138.335 296.293 128.548 290.617 129.013 289.356C129.633 287.659 130.23 285.979 130.805 284.31C143.415 247.732 120.086 237.01 106.215 254.669C99.041 263.802 86.6697 280.508 80.9951 287.436C75.2214 286.839 68.9925 289.809 63.9715 296.924L45.6869 323.585C44.0303 322.692 42.3353 322.047 40.6429 321.673C31.4465 319.639 22.3246 325.627 19.8363 343.593C17.1555 362.948 5.52282 400.813 1.00024 417H24.5002C11.1425 430.293 4.7169 440.492 3.3364 449.834C2.44125 455.891 3.68956 461.217 6.59569 465.942C10.0778 471.604 14.8088 474.882 21.7786 475.516C51.9397 478.26 87.5916 452.284 112.205 436.465C117.116 433.309 121.109 430.177 126.5 426.5V518C246.721 485.348 240.311 495.754 272.038 476.033C310.894 451.88 394.355 324.673 464.972 279.896C521.465 244.074 720.536 188.029 813.01 164.484L769.581 -94C696.443 -34.0867 511.629 86.9118 441.013 127.274Z" fill="#3700D4"/>
<mask id="mask0" mask-type="alpha" maskUnits="userSpaceOnUse" x="-15" y="282" width="360" height="360">
<mask id="mask1" maskUnits="userSpaceOnUse" x="-15" y="282" width="360" height="360">
<rect width="256" height="256" transform="matrix(-0.780141 -0.625604 -0.625604 0.780141 344.871 442.155)" fill="url(#pattern0)"/>
</mask>
<g mask="url(#mask1)">
<rect width="304.137" height="278.427" transform="matrix(-0.780141 -0.625604 -0.625604 0.780141 376.635 455.006)" fill="#FF753A"/>
</g>
</mask>
<g mask="url(#mask0)">
<path d="M210.465 457.154C239.806 427.062 258.465 391.654 253.465 382.654C240.52 359.353 148.262 401.844 129.965 438.654C122.398 453.877 178.681 489.751 210.465 457.154Z" fill="#FF7A5C"/>
</g>
<mask id="mask2" mask-type="alpha" maskUnits="userSpaceOnUse" x="85" y="101" width="360" height="360">
<mask id="mask3" maskUnits="userSpaceOnUse" x="85" y="101" width="360" height="360">
<rect width="256" height="256" transform="matrix(-0.780141 -0.625604 -0.625604 0.780141 444.871 261.155)" fill="url(#pattern1)"/>
</mask>
<g mask="url(#mask3)">
<rect width="304.137" height="278.427" transform="matrix(-0.780141 -0.625604 -0.625604 0.780141 476.635 274.006)" fill="#FF753A"/>
</g>
</mask>
<g mask="url(#mask2)">
<path d="M343.5 215.5C372.842 185.408 309.569 195.386 296.5 198C254 206.5 234.536 233.286 209 265.5C176.5 306.5 318 241.652 343.5 215.5Z" fill="#FF7A5C"/>
</g>
<path d="M112.205 436.466C117.116 433.309 121.619 430.177 127.01 426.5V416H25.01C11.6522 429.293 4.71697 440.493 3.33647 449.834C2.44132 455.891 3.68964 461.217 6.59577 465.942C10.0779 471.604 14.8089 474.882 21.7787 475.516C51.9398 478.26 87.5917 452.284 112.205 436.466Z" fill="#3700D4"/>
<path d="M261.319 364.405C246.946 366.035 219.493 373.524 181.215 393.713M79.1036 371.342C73.7174 375.324 68.6792 379.115 63.9715 382.728M79.1036 371.342C88.1828 359.234 92.9747 346.746 96.7577 329.718C102.404 304.305 92.6223 288.638 80.9951 287.436M79.1036 371.342C86.2165 366.084 93.1352 360.37 99.8937 354.314M1.01001 416.5C3.41077 407.907 7.81233 393.852 11.815 379M63.9715 382.728C46.6384 396.032 33.2454 408.014 24.0115 417.204C10.6537 430.497 4.7169 440.492 3.3364 449.834M63.9715 382.728C63.9715 382.728 65.863 359.99 60.819 343.593C59.13 338.102 56.4412 333.383 53.2222 329.718M45.6869 323.585C44.0303 322.692 42.3353 322.047 40.6429 321.673C36.8167 320.827 33.0033 321.369 29.6753 323.585M45.6869 323.585L63.9715 296.924C68.1598 290.989 73.1885 287.938 78.0925 287.436M45.6869 323.585C48.3551 325.023 50.9238 327.102 53.2222 329.718M80.9951 287.436C80.0376 287.337 79.0675 287.336 78.0925 287.436M80.9951 287.436C82.6177 285.455 84.7878 282.674 87.2275 279.5M99.8937 354.314C113.679 326.253 122.602 306.894 129.013 289.356M99.8937 354.314C113.479 342.142 126.417 328.59 138.984 314.582M129.013 289.356C129.633 287.659 130.23 285.979 130.805 284.31C139.225 259.886 131.622 246.991 121.51 246.374M129.013 289.356C128.548 290.617 138.335 296.293 138.984 314.582M138.984 314.582C183.892 264.521 224.051 208.635 272.038 189.08C340.132 161.33 352.742 177.728 441.013 127.274C511.629 86.9118 696.443 -34.0867 769.581 -94L813.01 164.484C720.536 188.029 521.465 244.074 464.972 279.896C394.355 324.673 310.894 451.88 272.038 476.033C240.311 495.754 246.73 485.348 126.51 518M181.215 393.713C185.577 402.975 196.51 417.204 212.01 420.5M181.215 393.713C170.238 399.503 157.661 406.675 144.51 414.927M3.3364 449.834C2.44125 455.891 3.68956 461.217 6.59569 465.942C10.0778 471.604 14.8088 474.882 21.7786 475.516M3.3364 449.834C15.8295 437.019 44.0776 413.235 55.6885 433.39C66.9918 453.011 37.2463 466.429 21.7786 475.516M21.7786 475.516C51.9397 478.26 87.5916 452.284 112.205 436.465C117.116 433.309 120.75 430.618 126.141 426.941C132.319 422.728 138.475 418.714 144.51 414.927M144.51 414.927C142.51 419.284 138.91 430.7 140.51 441.5M29.6753 323.585C31.1568 342.224 29.659 379.4 11.815 379M29.6753 323.585C19.51 330.354 15.7369 364.447 11.815 379M78.0925 287.436C73.9955 296.905 63.2856 318.619 53.2222 329.718M121.51 246.374C114.322 259.416 97.4014 284.3 87.2275 279.5M121.51 246.374C109.51 245.642 94.8232 269.617 87.2275 279.5" stroke="#FF7A5C" stroke-linecap="round" stroke-linejoin="round"/>
</g>
</svg>
