<svg width="77" height="56" viewBox="0 0 77 56" fill="none" xmlns="http://www.w3.org/2000/svg">
<g clip-path="url(#clip0)">
<path d="M0.875 45.0625L9.875 49.4375L15.5625 23.1875L30 31.9375L38.75 4.375L57 10" stroke="#786DF5" stroke-width="0.875" stroke-linecap="round" stroke-linejoin="round"/>
<path d="M65.0506 12.7317C66.1892 10.7265 65.4867 8.17784 63.4814 7.03921C61.4762 5.90058 58.9275 6.60312 57.7889 8.60838C56.6503 10.6136 57.3528 13.1623 59.3581 14.3009" stroke="#786DF5" stroke-width="0.875" stroke-linecap="round"/>
<path d="M42.8015 6.08379C41.9517 8.22749 39.5251 9.27642 37.3814 8.42665C35.2377 7.57688 34.1887 5.1502 35.0385 3.0065C35.8883 0.862808 38.315 -0.186126 40.4587 0.663643C42.6023 1.51341 43.6513 3.94009 42.8015 6.08379Z" fill="#140C28" stroke="#786DF5" stroke-width="0.875"/>
<path d="M34.0515 33.2088C33.2017 35.3525 30.7751 36.4014 28.6314 35.5517C26.4877 34.7019 25.4387 32.2752 26.2885 30.1315C27.1383 27.9878 29.565 26.9389 31.7087 27.7886C33.8523 28.6384 34.9013 31.0651 34.0515 33.2088Z" fill="#140C28" stroke="#786DF5" stroke-width="0.875"/>
<path d="M19.1765 24.4588C18.3267 26.6025 15.9001 27.6514 13.7564 26.8017C11.6127 25.9519 10.5637 23.5252 11.4135 21.3815C12.2633 19.2378 14.69 18.1889 16.8337 19.0386C18.9773 19.8884 20.0263 22.3151 19.1765 24.4588Z" fill="#140C28" stroke="#786DF5" stroke-width="0.875"/>
<path d="M13.9265 49.8338C13.0767 51.9775 10.6501 53.0264 8.50637 52.1767C6.36267 51.3269 5.31374 48.9002 6.16351 46.7565C7.01327 44.6128 9.43996 43.5639 11.5837 44.4136C13.7273 45.2634 14.7763 47.6901 13.9265 49.8338Z" fill="#140C28" stroke="#786DF5" stroke-width="0.875"/>
<path d="M63.9581 13.519C66.2572 12.7842 67.6158 11.7739 68.8699 13.3484C75.9763 22.481 76.4988 22.376 75.9763 24.5804C75.4538 26.7848 71.6916 38.0168 71.5871 44.9449C71.5035 50.4874 71.7346 51.416 72.1875 55.125H61.2409C61.3106 50.8911 61.4082 49.7106 61.2409 47.3592C61.0319 44.42 60.4049 41.9007 59.0463 37.4919C58.4486 35.5521 58.3768 34.1406 58.5729 32.8731M67.6158 28.1494C67.2708 27.6398 66.7178 26.584 66.2996 25.2102M66.2996 25.2102C66 24.2258 65.7696 23.0781 65.7347 21.8511C65.6935 20.4016 65.3767 18.6094 65.3167 17.7572M66.2996 25.2102C66.4358 25.1458 66.5979 25.0726 66.7798 24.9948M70.8555 23.9505C69.7073 23.8785 67.8818 24.5231 66.7798 24.9948M65.3167 17.7572C65.9858 18.3521 67.6158 20.3815 67.6158 20.8014C67.6158 21.3263 66.9888 22.9949 66.7798 24.9948M65.3167 17.7572C65.1702 15.6785 63.897 11.7698 61.659 12.2987C60.3852 12.5997 59.7023 13.7102 59.649 15.5528M59.649 15.5528C59.6279 16.2801 59.7049 17.1214 59.8824 18.0721C60.0085 18.7477 60.1346 19.4105 60.2471 20.0665M59.649 15.5528C59.0649 16.4275 57.7504 18.303 57.1652 18.8069C56.4616 19.4127 56.9162 21.1839 59.8824 20.1971M60.2471 20.0665C60.694 22.6726 60.9263 25.1721 60.0914 27.9395C59.7401 29.1039 59.3534 30.0667 59.0463 30.9993M60.2471 20.0665C60.1215 20.1146 60 20.158 59.8824 20.1971M59.8824 20.1971C59.649 20.5914 58.1058 22.4809 58.0013 23.6356C57.9714 23.9659 57.9586 24.451 57.9556 24.9948M59.0463 30.9993C58.698 30.5042 58.0013 29.346 58.0013 28.6742C58.0013 28.0747 57.948 26.3517 57.9556 24.9948M59.0463 30.9993C58.8419 31.6204 58.6727 32.2281 58.5729 32.8731M57.9556 24.9948C57.6921 25.2415 57.1652 26.0079 57.1652 27.0996C57.1652 28.4643 56.9562 30.4587 57.4788 31.2985C57.8968 31.9703 58.3824 32.6281 58.5729 32.8731" stroke="#FF7A5C" stroke-width="0.875" stroke-linecap="round" stroke-linejoin="round"/>
</g>
<defs>
<clipPath id="clip0">
<rect width="77" height="56" fill="white"/>
</clipPath>
</defs>
</svg>
