<svg width="77" height="56" viewBox="0 0 77 56" fill="none" xmlns="http://www.w3.org/2000/svg">
<g clip-path="url(#clip0)">
<path d="M59.0625 38.5L65.625 16.625L36.3125 7.27532M59.0625 38.5L54.6875 36.9191L40.5441 31.8085L8.75 19.6875L14.875 0.4375L21.875 2.67026M59.0625 38.5L69.125 14.4375L22.75 0.4375L21.875 2.67026M26.25 4.06573L20.5079 7.30154C19.0682 8.11284 18.5179 9.91083 19.257 11.3889V11.3889C19.9903 12.8557 21.7391 13.4976 23.2473 12.8537L36.3125 7.27532M26.25 4.06573L36.3125 7.27532M26.25 4.06573L21.875 2.67026" stroke="#786DF5" stroke-width="0.875"/>
<path d="M76.125 39.477V54.2C71.9043 54.2909 62.924 54.5272 60.7688 54.7453C58.0747 55.0179 56.7276 55.5632 54.0336 54.4726C51.3395 53.382 40.0244 50.1103 36.7915 49.2923C36.403 49.194 36.0457 49.1076 35.7139 49.0291C33.379 49.5713 28.2243 50.5465 26.2846 50.1103C23.8599 49.565 20.3576 49.2923 19.0106 49.2923C17.6635 49.2923 17.6635 47.6564 19.0106 47.1111C20.0882 46.6749 23.4109 46.7684 24.9375 46.8697C23.7864 46.6462 22.8774 46.4407 22.5129 46.2932C21.1658 45.7479 18.4718 43.0214 17.1247 40.8402C15.7777 38.659 13.353 36.7505 14.1612 35.6599C14.8078 34.7875 16.7655 35.8297 17.6635 36.4599C16.7913 34.5616 15.6698 32.0516 14.9695 30.7522C13.353 27.7531 17.0708 27.4805 19.0106 30.7522C20.627 33.4787 21.9741 36.4778 24.1293 37.8411C26.2846 39.2043 31.1339 40.5676 30.5951 38.9317C30.0563 37.2958 28.4398 34.024 29.7869 31.2975C31.1339 28.571 33.0198 25.8446 34.6362 23.1181C36.2527 20.3916 38.1385 22.3001 37.0609 25.5719C35.9833 28.8437 34.0974 30.7522 34.0974 32.9334C34.0974 35.1146 37.0609 40.0223 38.6773 40.0223C40.2938 40.0223 41.102 39.8115 42.7185 37.3577C43.2889 36.4918 43.271 34.2677 43.3125 32.8125L52.0625 35.875C55.5625 38.9375 55.8313 42.7641 58.8829 43.0214C61.4692 43.2395 71.4553 40.7494 76.125 39.477Z" fill="#140C28"/>
<path d="M17.6635 36.4599C16.7913 34.5616 15.6698 32.0516 14.9695 30.7522C13.353 27.7531 17.0708 27.4805 19.0106 30.7522C20.627 33.4787 21.9741 36.4778 24.1293 37.8411C26.2846 39.2043 31.1339 40.5676 30.5951 38.9317C30.0563 37.2958 28.4398 34.024 29.7869 31.2975C31.1339 28.571 33.0198 25.8446 34.6362 23.1181C36.2527 20.3916 38.1385 22.3001 37.0609 25.5719C35.9833 28.8437 34.0974 30.7522 34.0974 32.9334C34.0974 35.1146 37.0609 40.0223 38.6773 40.0223C40.2938 40.0223 41.102 39.8115 42.7185 37.3577C43.2889 36.4918 43.271 34.2677 43.3125 32.8125L52.0625 35.875C55.5625 38.9375 55.8313 42.7641 58.8829 43.0214C61.4692 43.2395 71.4553 40.7494 76.125 39.477V54.2C71.9043 54.2909 62.924 54.5272 60.7688 54.7453C58.0747 55.0179 56.7276 55.5632 54.0336 54.4726C51.3395 53.382 40.0244 50.1103 36.7915 49.2923C36.403 49.194 36.0457 49.1076 35.7139 49.0291M17.6635 36.4599C18.8046 38.9431 19.9803 41.3127 20.8964 41.9308C22.5129 43.0214 28.1704 45.7479 30.3257 47.1111C31.0321 47.558 31.6228 47.8583 32.2116 48.0891M17.6635 36.4599C16.7655 35.8297 14.8078 34.7875 14.1612 35.6599C13.353 36.7505 15.7777 38.659 17.1247 40.8402C18.4718 43.0214 21.1658 45.7479 22.5129 46.2932C22.8774 46.4407 23.7864 46.6462 24.9376 46.8697M32.2116 48.0891C30.3693 47.8132 27.1899 47.307 24.9376 46.8697M32.2116 48.0891C33.2031 48.4777 34.1893 48.6687 35.7139 49.0291M24.9376 46.8697C23.4109 46.7684 20.0882 46.6749 19.0106 47.1111C17.6635 47.6564 17.6635 49.2923 19.0106 49.2923C20.3576 49.2923 23.8599 49.565 26.2846 50.1103C28.2243 50.5465 33.379 49.5713 35.7139 49.0291" stroke="#FF7A5C" stroke-width="0.875" stroke-linecap="round" stroke-linejoin="round"/>
<path d="M40.5439 31.8086L54.6874 36.9193" stroke="#786DF5" stroke-width="0.875"/>
</g>
<defs>
<clipPath id="clip0">
<rect width="77" height="56" fill="white"/>
</clipPath>
</defs>
</svg>
