<svg width="77" height="56" viewBox="0 0 77 56" fill="none" xmlns="http://www.w3.org/2000/svg">
<g clip-path="url(#clip0)">
<path d="M38.4065 42.7414C36.6741 44.4738 30.8465 50.8644 28.9903 54.1643L18.515 43.6889C22.1286 40.694 27.3007 35.5219 29.0331 33.7895C31.1986 31.624 30.2582 24.9072 32.9446 20.8776C34.5647 18.3492 37.4811 16.0282 36.5774 11.9003C35.8963 8.78893 37.6977 8.02544 39.7162 10.7825C41.3311 12.9881 41.0428 15.2495 40.6694 16.5411C40.1636 18.5338 40.1076 20.1004 40.2375 21.4546C43.0422 20.6356 44.5869 21.6418 48.8321 18.9403C52.2351 16.7747 56.6123 13.1958 60.8971 10.5875C63.5396 8.97898 65.2282 11.2062 62.4439 13.3718C61.3048 14.2578 55.0193 19.7652 51.6163 22.3432C51.6163 22.3432 61.2065 17.084 64.3001 15.2279C67.3937 13.3717 68.6826 15.8982 66.1563 17.7028C63.9907 19.2496 53.7818 26.3649 53.7818 26.3649C53.7818 26.3649 61.2991 22.9424 65.4675 21.0149C66.7992 20.3992 67.9208 20.3839 68.3218 21.1057C68.6845 21.7586 68.0775 22.5647 66.9397 23.436C63.2254 26.2805 54.0913 31.0052 54.0913 31.0052C54.0913 31.0052 57.2993 30.6983 62.3024 28.2768C64.1031 27.4052 64.6711 27.6429 64.9189 28.221C65.1886 28.8504 64.734 29.6164 63.8448 30.4378C61.6748 32.4423 56.8154 34.1182 53.7853 35.8083C43.2736 41.6713 40.572 40.5759 38.4065 42.7414Z" fill="#140C28"/>
<path d="M40.2375 21.4546C43.0422 20.6356 44.5869 21.6418 48.8321 18.9403C52.2351 16.7747 56.6123 13.1958 60.8971 10.5875C63.5396 8.97898 65.2282 11.2062 62.4439 13.3718C61.3048 14.2578 55.0193 19.7652 51.6163 22.3432C51.6163 22.3432 61.2065 17.084 64.3001 15.2279C67.3937 13.3717 68.6826 15.8982 66.1563 17.7028C63.9907 19.2496 53.7818 26.3649 53.7818 26.3649C53.7818 26.3649 61.2991 22.9424 65.4675 21.0149C66.7992 20.3992 67.9208 20.3839 68.3218 21.1057C68.6845 21.7586 68.0775 22.5647 66.9397 23.436C63.2254 26.2805 54.0913 31.0052 54.0913 31.0052C54.0913 31.0052 57.2993 30.6983 62.3024 28.2768C64.1031 27.4052 64.6711 27.6429 64.9189 28.221C65.1886 28.8504 64.734 29.6164 63.8448 30.4378C61.6748 32.4423 56.8154 34.1182 53.7853 35.8083C43.2736 41.6713 40.572 40.5759 38.4065 42.7414C36.6741 44.4738 30.8465 50.8644 28.9903 54.1643L18.515 43.6889C22.1286 40.694 27.3007 35.5219 29.0331 33.7895C31.1986 31.624 30.2582 24.9072 32.9446 20.8776C34.5647 18.3492 37.4811 16.0282 36.5774 11.9003C35.8963 8.78893 37.6977 8.02544 39.7162 10.7825C41.3311 12.9881 41.0428 15.2495 40.6694 16.5411C38.9214 23.4283 42.5463 25.226 40.6473 30.7516" stroke="#FF7A5C" stroke-width="0.875" stroke-linecap="round" stroke-linejoin="round"/>
<path d="M36.5393 42.7414C38.2717 44.4738 44.0993 50.8644 45.9555 54.1643L56.4308 43.6889C52.8172 40.694 47.6451 35.5219 45.9127 33.7895C43.7472 31.624 44.6876 24.9072 42.0012 20.8776C40.3811 18.3492 37.4647 16.0282 38.3684 11.9003C39.0495 8.78893 37.2481 8.02544 35.2296 10.7825C33.6147 12.9881 33.903 15.2495 34.2764 16.5411C34.7822 18.5338 34.8382 20.1004 34.7083 21.4546C31.9036 20.6356 30.3589 21.6418 26.1137 18.9403C22.7107 16.7747 18.3335 13.1958 14.0487 10.5875C11.4062 8.97898 9.71757 11.2062 12.5019 13.3718C13.641 14.2578 19.9265 19.7652 23.3295 22.3432C23.3295 22.3432 13.7393 17.084 10.6457 15.2279C7.5521 13.3717 6.26315 15.8982 8.78954 17.7028C10.9551 19.2496 21.164 26.3649 21.164 26.3649C21.164 26.3649 13.6467 22.9424 9.47827 21.0149C8.14659 20.3992 7.02504 20.3839 6.62402 21.1057C6.26128 21.7586 6.86827 22.5647 8.00614 23.436C11.7204 26.2805 20.8545 31.0052 20.8545 31.0052C20.8545 31.0052 17.6465 30.6983 12.6434 28.2768C10.8427 27.4052 10.2747 27.6429 10.0269 28.221C9.75718 28.8504 10.2118 29.6164 11.101 30.4378C13.271 32.4423 18.1304 34.1182 21.1605 35.8083C31.6722 41.6713 34.3738 40.5759 36.5393 42.7414Z" fill="#140C28"/>
<path d="M34.7083 21.4546C31.9036 20.6356 30.3589 21.6418 26.1137 18.9403C22.7107 16.7747 18.3335 13.1958 14.0487 10.5875C11.4062 8.97898 9.71757 11.2062 12.5019 13.3718C13.641 14.2578 19.9265 19.7652 23.3295 22.3432C23.3295 22.3432 13.7393 17.084 10.6457 15.2279C7.5521 13.3717 6.26315 15.8982 8.78954 17.7028C10.9551 19.2496 21.164 26.3649 21.164 26.3649C21.164 26.3649 13.6467 22.9424 9.47827 21.0149C8.14659 20.3992 7.02504 20.3839 6.62402 21.1057C6.26128 21.7586 6.86827 22.5647 8.00614 23.436C11.7204 26.2805 20.8545 31.0052 20.8545 31.0052C20.8545 31.0052 17.6465 30.6983 12.6434 28.2768C10.8427 27.4052 10.2747 27.6429 10.0269 28.221C9.75718 28.8504 10.2118 29.6164 11.101 30.4378C13.271 32.4423 18.1304 34.1182 21.1605 35.8083C31.6722 41.6713 34.3738 40.5759 36.5393 42.7414C38.2717 44.4738 44.0993 50.8644 45.9555 54.1643L56.4308 43.6889C52.8172 40.694 47.6451 35.5219 45.9127 33.7895C43.7472 31.624 44.6876 24.9072 42.0012 20.8776C40.3811 18.3492 37.4647 16.0282 38.3684 11.9003C39.0495 8.78893 37.2481 8.02544 35.2296 10.7825C33.6147 12.9881 33.903 15.2495 34.2764 16.5411C36.0244 23.4283 32.3995 25.226 34.2985 30.7516" stroke="#FF7A5C" stroke-width="0.875" stroke-linecap="round" stroke-linejoin="round"/>
<path d="M10.9375 39.375L9.1875 40.6875M4.8125 33.25L0.4375 35M4.375 7.875L2.1875 7M20.125 7L15.75 1.3125M29.3125 3.5L28.4375 0.875M60.8125 38.0625L62.5625 39.375M71.75 33.25L76.125 35.875M69.125 9.1875L71.3125 8.3125M53.375 8.3125L60.8125 1.3125M47.25 3.5L48.125 0.875M39.375 4.8125L40.25 0.4375" stroke="#786DF5" stroke-width="0.875" stroke-linecap="round"/>
</g>
<defs>
<clipPath id="clip0">
<rect width="77" height="56" fill="white"/>
</clipPath>
</defs>
</svg>
