<svg width="77" height="56" viewBox="0 0 77 56" fill="none" xmlns="http://www.w3.org/2000/svg">
<g clip-path="url(#clip0)">
<path d="M0.4375 10.5C0.4375 9.05025 1.61275 7.875 3.0625 7.875H73.9375C75.3872 7.875 76.5625 9.05025 76.5625 10.5V46.8125C76.5625 48.2622 75.3873 49.4375 73.9375 49.4375H3.0625C1.61275 49.4375 0.4375 48.2622 0.4375 46.8125V10.5Z" stroke="#786DF5" stroke-width="0.875"/>
<path d="M36.7693 12.8426C37.3627 16.2048 33.9563 15.857 33.2086 13.4223C29.8852 14.2338 29.0544 9.94425 28.2236 9.01676C27.6588 8.38627 26.9969 7.26468 26.6165 6.56247H31.5424C31.3141 5.83159 31.0096 5.0026 30.5974 4.30528C31.4282 1.68068 32.0217 1.24903 33.2086 1.01716C34.1581 0.831658 35.1867 1.63548 35.5824 2.06058C35.978 1.71277 37.0066 1.01716 37.9562 1.01716C38.9057 1.01716 40.0135 1.71277 40.4487 2.06058C40.686 1.4809 41.4694 0.34473 42.7038 0.437479C43.8317 0.52223 44.8962 1.04064 45.4336 1.81159C45.6314 2.09527 45.7578 2.41315 45.7897 2.75619C45.875 3.67261 45.4087 5.12775 45.1836 6.56247C45.1643 6.68521 45.1468 6.8078 45.1316 6.92989C45.077 7.36673 45.0515 7.79717 45.0776 8.20518C45.1963 10.0602 44.7215 12.6107 43.0598 12.8426C41.3982 13.0745 40.8047 11.7992 40.4487 9.82832V12.2629C40.4487 14.9295 37.4814 15.5091 36.7693 12.8426Z" fill="#140C28"/>
<path d="M23.625 7.74147C23.8228 6.11837 26.5619 2.75619 28.4609 2.75619C29.3866 2.75619 30.0776 3.42608 30.5974 4.30528M33.2086 13.4223C32.8525 12.2629 32.3777 9.24861 32.0217 8.20518C31.8044 7.56863 31.4105 5.68079 30.5974 4.30528M33.2086 13.4223C33.9563 15.857 37.3627 16.2048 36.7693 12.8426M33.2086 13.4223C29.8852 14.2338 29.0544 9.94425 28.2236 9.01676C27.5589 8.27477 26.7597 6.85263 26.4432 6.2343M36.7693 12.8426C36.611 11.4514 36.247 8.32112 36.0571 6.92989C35.8672 5.53866 35.6615 3.104 35.5824 2.06058M36.7693 12.8426C37.4814 15.5091 40.4487 14.9295 40.4487 12.2629C40.4487 11.1849 40.4487 10.5563 40.4487 9.82832M35.5824 2.06058C35.1867 1.63548 34.1581 0.831658 33.2086 1.01716C32.0217 1.24903 31.4282 1.68068 30.5974 4.30528M35.5824 2.06058C35.978 1.71277 37.0066 1.01716 37.9562 1.01716C38.9057 1.01716 40.0135 1.71277 40.4487 2.06058M40.4487 2.06058C40.4487 3.5291 40.4487 6.81395 40.4487 8.20518C40.4487 8.87568 40.4487 9.37154 40.4487 9.82832M40.4487 2.06058C40.686 1.4809 41.4694 0.34473 42.7038 0.437479C43.8317 0.52223 44.8962 1.04064 45.4336 1.81159M40.4487 9.82832C40.8047 11.7992 41.3982 13.0745 43.0598 12.8426C44.7215 12.6107 45.1963 10.0602 45.0776 8.20518C45.0515 7.79717 45.077 7.36673 45.1316 6.92989M45.4336 1.81159C45.6314 2.09527 45.7578 2.41315 45.7897 2.75619C45.8823 3.75101 45.3249 5.38066 45.1316 6.92989M45.4336 1.81159C45.6315 1.58545 46.1933 1.2259 46.8579 1.59687C47.6888 2.06058 47.8074 3.88343 49.2317 4.30528C50.656 4.72714 52.0803 5.19088 51.4868 7.74147M45.7897 7.74147L45.1316 6.92989M27.125 49.4375L26.4432 55.125H46.375C46.2292 53.5208 45.6848 50.75 45.6848 49.4375" stroke="#FF7A5C" stroke-width="0.875" stroke-linecap="round" stroke-linejoin="round"/>
<path d="M19.25 7.875H25.375M53.375 7.875H45.5M24.5 49.4375H30.625M49.875 49.4375H42" stroke="#786DF5" stroke-width="0.875"/>
<path d="M72.625 26.6875C72.625 34.1779 66.5529 40.25 59.0625 40.25C55.5181 40.25 52.2912 38.8903 49.875 36.6641C47.1851 34.1858 45.5 30.6334 45.5 26.6875C45.5 25.1567 45.7536 23.6851 46.2211 22.3125C48.0412 16.9688 53.1029 13.125 59.0625 13.125C61.8088 13.125 64.3644 13.9412 66.5 15.3444C69.1243 17.0686 71.1144 19.679 72.0446 22.75C72.4221 23.9961 72.625 25.3181 72.625 26.6875Z" fill="#140C28"/>
<path d="M45.5 26.6875H59.0625M45.5 26.6875C45.5 30.6334 47.1851 34.1858 49.875 36.6641M45.5 26.6875C45.5 25.1567 45.7536 23.6851 46.2211 22.3125M59.0625 13.125V26.6875M59.0625 13.125C53.1029 13.125 48.0412 16.9688 46.2211 22.3125M59.0625 13.125C61.8088 13.125 64.3644 13.9412 66.5 15.3444M59.0625 26.6875L49.875 36.6641M59.0625 26.6875L46.2211 22.3125M59.0625 26.6875L72.0446 22.75M59.0625 26.6875L66.5 15.3444M49.875 36.6641C52.2912 38.8903 55.5181 40.25 59.0625 40.25C66.5529 40.25 72.625 34.1779 72.625 26.6875C72.625 25.3181 72.4221 23.9961 72.0446 22.75M72.0446 22.75C71.1144 19.679 69.1243 17.0686 66.5 15.3444M38.0625 45.5H10.9375M10.9375 45.5H3.9375V34.125H10.9375V45.5ZM3.9375 11.8125H24.5M3.9375 14.875H24.5M3.9375 17.9375H24.5M43.75 45.5H72.625M15.75 24.5V45.5H22.75V24.5H15.75ZM27.5625 28.875V45.5H34.5625V28.875H27.5625Z" stroke="#786DF5" stroke-width="0.875" stroke-linecap="round" stroke-linejoin="round"/>
<path d="M66.5 26.6875C66.5 30.7951 63.1701 34.125 59.0625 34.125C54.9549 34.125 51.625 30.7951 51.625 26.6875C51.625 22.5799 54.9549 19.25 59.0625 19.25C63.1701 19.25 66.5 22.5799 66.5 26.6875Z" fill="#140C28" stroke="#786DF5" stroke-width="0.875"/>
</g>
<defs>
<clipPath id="clip0">
<rect width="77" height="56" fill="white"/>
</clipPath>
</defs>
</svg>
