<svg width="77" height="56" viewBox="0 0 77 56" fill="none" xmlns="http://www.w3.org/2000/svg">
<path d="M68.25 8.88971C63.3359 3.93994 56.5259 0.875 49 0.875C34.0193 0.875 21.875 13.0193 21.875 28C21.875 42.9807 34.0193 55.125 49 55.125C63.9807 55.125 76.125 42.9807 76.125 28C76.125 22.5075 74.4925 17.3962 71.6863 13.125M68.25 8.88971H63M68.25 8.88971V4.375M49 50.75V44.625M71.75 28H65.625M65.1875 43.75L60.375 38.9375M49 10.5V4.375" stroke="#786DF5" stroke-width="0.875" stroke-linecap="round" stroke-linejoin="round"/>
<path d="M16.6399 21.0101C14.2232 21.6632 4.83136 21.1008 0.4375 20.738V36.7917C5.83828 36.0661 17.5736 34.9415 21.3084 36.2475C25.977 37.8801 29.8215 37.608 32.0185 37.608C34.2154 37.608 40.2944 36.7917 41.3929 35.7033C42.2717 34.8326 41.759 33.6007 41.3929 33.0935C43.3009 32.9274 44.6883 31.894 44.9629 30.8056C45.2959 29.4857 44.2306 28.6288 43.8644 28.3567C46.4491 27.0762 46.7029 24.6385 44.139 23.1869C44.9628 22.3706 45.3954 21.7384 44.9629 20.738C44.139 18.8324 38.6093 17.2008 35.863 17.2008C30.9123 17.2008 30.0961 16.3845 30.0961 14.7519C30.0961 13.1193 33.9407 9.58208 34.2153 6.04483C34.4899 2.50758 33.1168 0.875 32.293 0.875C31.4691 0.875 31.1945 1.1471 30.6453 4.41225C30.096 7.67741 25.9768 8.76579 23.2306 13.3914C20.4845 18.0171 19.6606 20.1938 16.6399 21.0101Z" fill="#140C28"/>
<path d="M44.139 23.1869C44.9628 22.3706 45.3954 21.7384 44.9629 20.738C44.139 18.8324 38.6093 17.2008 35.863 17.2008C30.9123 17.2008 30.0961 16.3845 30.0961 14.7519C30.0961 13.1193 33.9407 9.58208 34.2153 6.04483C34.4899 2.50758 33.1168 0.875 32.293 0.875C31.4691 0.875 31.1945 1.1471 30.6453 4.41225C30.096 7.67741 25.9768 8.76579 23.2306 13.3914C20.4845 18.0171 19.6606 20.1938 16.6399 21.0101C14.2232 21.6632 4.83136 21.1008 0.4375 20.738V36.7917C5.83828 36.0661 17.5736 34.9415 21.3084 36.2475C25.977 37.8801 29.8215 37.608 32.0185 37.608C34.2154 37.608 40.2944 36.7917 41.3929 35.7033C42.2717 34.8326 41.759 33.6007 41.3929 33.0935M44.139 23.1869C43.2602 23.1869 37.2735 22.9148 35.9005 22.9148M44.139 23.1869C46.7029 24.6385 46.4491 27.0762 43.8644 28.3567M43.8644 28.3567C44.2306 28.6288 45.2959 29.4857 44.9629 30.8056C44.6883 31.894 43.3009 32.9274 41.3929 33.0935M43.8644 28.3567C42.6744 28.4474 36.9989 28.6288 35.9005 28.6288M35.9005 33.5266C37.4986 33.2626 40.2762 33.1907 41.3929 33.0935" stroke="#FF7A5C" stroke-width="0.875" stroke-linecap="round" stroke-linejoin="round"/>
</svg>
