<svg width="77" height="56" viewBox="0 0 77 56" fill="none" xmlns="http://www.w3.org/2000/svg">
<g clip-path="url(#clip0)">
<path d="M18.3326 33.6979C20.2416 33.6979 20.6203 31.9193 21.1711 33.2128C22.014 35.1918 22.1381 36.3069 22.088 37.4167M28.1214 32.081C28.1995 31.3662 28.1214 30.5068 27.5234 29.0089C26.7487 27.0686 20.7063 13.8101 18.5373 11.5465C17.0499 9.99426 10.6874 3.7854 7.69203 0.875L0.875 11.5465C3.922 13.6484 10.2639 18.014 11.2555 18.6608C12.4949 19.4692 11.5653 24.6433 11.2555 27.392C10.9456 30.1407 13.8893 35.4764 14.664 38.2252C15.5754 41.4589 17.1886 41.4589 18.5373 40.9739C18.9789 40.815 19.5509 40.5102 19.7319 39.842M28.1214 32.081C29.4198 33.8057 32.2333 37.449 33.1009 38.2252C34.1855 39.1953 33.8756 43.3992 35.7348 48.5732C36.5137 50.7409 33.5361 50.878 32.324 47.8059C31.2395 45.0572 30.6197 42.1468 30 41.5C29.5042 40.9826 27.6926 38.9793 26.6801 38.2786M28.1214 32.081C27.942 33.7246 27.2426 35.5575 26.6801 38.2786M26.6801 38.2786C26.4698 39.2956 26.257 40.808 26.129 41.944C25.728 45.5012 26.067 51.1603 26.4388 53.1005C26.9966 56.0109 24.4054 55.9527 23.5 53C22.4068 49.4347 22.3309 45.6351 21.9887 41.944M18.5373 29.6556C18.5373 30.2144 18.1672 32.4724 18.399 34.668M19.7319 39.842C19.8741 39.3173 19.7704 38.5547 19.157 37.4167C18.7264 36.6177 18.5026 35.6491 18.399 34.668M19.7319 39.842L21.9887 41.944M21.9887 41.944C21.7863 39.7612 22.0349 38.5919 22.088 37.4167M18.399 34.668C19.0563 34.9375 20.7144 35.8645 22.088 37.4167" stroke="#FF7A5C" stroke-width="0.875" stroke-linecap="round" stroke-linejoin="round"/>
<path d="M30.1875 50.75V55.5625H76.5625V31.5H66.9375V36.3125H57.75V41.125H48.5625V45.9375H39.375V50.75H30.1875Z" stroke="#786DF5" stroke-width="0.875" stroke-linecap="round" stroke-linejoin="round"/>
<path d="M53.8171 8.36379L76.5619 2.52033M76.5619 2.52033L72.8878 0.855809M76.5619 2.52033L74.4773 6.31668" stroke="#786DF5" stroke-width="0.875" stroke-linecap="round" stroke-linejoin="round"/>
</g>
<defs>
<clipPath id="clip0">
<rect width="77" height="56" fill="white"/>
</clipPath>
</defs>
</svg>
