<svg width="77" height="56" viewBox="0 0 77 56" fill="none" xmlns="http://www.w3.org/2000/svg">
<path d="M42.3903 6.22483C40.5886 5.32401 33.7358 3.7986 31.0131 3.9494C30.3943 3.98367 29.7855 4.00223 28.5849 4.53536L22.0585 0.4375L20.6171 2.34761L26.118 5.7206C22.166 7.72096 17.1707 10.5865 14.1041 11.6971C9.79056 13.0241 6.47001 12.5516 0.437485 12.9035V25.9224C5.68703 24.7327 12.9656 22.1944 17.7169 22.6995C21.0267 23.0514 25.4236 23.1515 27.7725 22.0959C30.6667 20.7953 33.9054 20.1082 36.8593 20.0916C37.3041 20.6451 38.01 22.1122 38.6079 22.9567C39.3553 24.0122 40.156 24.2133 41.1704 24.0625C41.9818 23.9419 42.3626 23.5048 42.4516 23.251C43.0404 23.645 43.6448 23.8045 44.2133 23.6604C45.3237 23.3789 44.9251 22.0072 44.587 21.3565C45.1528 21.7222 45.7825 21.8218 46.6354 21.7C48.0432 21.4989 47.4164 19.438 47.4164 19.2233L52.7549 22.5043L55.9581 23.2583L54.2497 20.8958L50.5128 18.2243C51.048 17.9767 51.2102 17.3345 50.8865 16.6231C49.9255 14.512 50.2189 12.803 48.6767 11.295C47.2887 9.93777 44.2106 7.13501 42.3903 6.22483Z" fill="#140C28"/>
<path d="M37.4872 10.1251C40.4851 9.99432 44.2133 13.1213 45.2276 13.7077C45.8754 14.1065 46.149 14.9724 46.6354 15.8692M30.7214 13.1799C33.2466 15.5576 38.0168 14.9237 41.1704 14.9502M41.1704 14.9502C42.7813 14.9638 44.3201 15.0725 45.7615 15.8692C47.3474 16.7456 47.5752 18.0204 46.948 18.9354M41.1704 14.9502L26.118 5.7206M46.6354 15.8692C46.9828 16.5095 47.4388 17.1657 48.2172 17.6787C49.2334 18.3485 50.0268 18.4491 50.5128 18.2243M46.6354 15.8692L28.5849 4.53536M50.5128 18.2243C51.048 17.9767 51.2102 17.3345 50.8865 16.6231C49.9255 14.512 50.2189 12.803 48.6767 11.295C47.2887 9.93777 44.2106 7.13501 42.3903 6.22483C40.5886 5.32401 33.7358 3.7986 31.0131 3.9494C30.3943 3.98367 29.7855 4.00223 28.5849 4.53536M50.5128 18.2243L54.2497 20.8958L55.9581 23.2583L52.7549 22.5043L47.4164 19.2233M46.948 18.9354L47.4164 19.2233M46.948 18.9354C46.2239 19.9917 44.5452 19.7855 43.3397 19.9493M47.4164 19.2233C47.4164 19.438 48.0432 21.4989 46.6354 21.7C45.7825 21.8218 45.1528 21.7222 44.587 21.3565M43.3397 19.9493C43.6977 20.4248 44.2189 21.1186 44.587 21.3565M43.3397 19.9493C41.0609 20.259 39.1334 20.0787 36.8593 20.0916M44.587 21.3565C44.9251 22.0072 45.3237 23.3789 44.2133 23.6604C43.6448 23.8045 43.0404 23.645 42.4516 23.251M39.9749 20.131C40.6052 21.4665 41.6029 22.6832 42.4516 23.251M42.4516 23.251C42.3626 23.5048 41.9818 23.9419 41.1704 24.0625C40.156 24.2133 39.3553 24.0122 38.6079 22.9567C38.01 22.1122 37.3041 20.6451 36.8593 20.0916M36.8593 20.0916C33.9054 20.1082 30.6668 20.7953 27.7725 22.0959C25.4236 23.1515 21.0267 23.0514 17.7169 22.6995C12.9656 22.1944 5.68703 24.7327 0.437485 25.9224V12.9035C6.47001 12.5516 9.79056 13.0241 14.1041 11.6971C17.1707 10.5865 22.166 7.72096 26.118 5.7206M28.5849 4.53536L22.0585 0.4375L20.6171 2.34761L26.118 5.7206" stroke="#FF7A5C" stroke-width="0.875" stroke-linecap="round" stroke-linejoin="round"/>
<path d="M24.0625 55.5625H76.5625M24.0625 52.9375H76.5625M24.0625 50.3125H76.5625M24.0625 47.6875H76.5625M24.0625 45.0625H76.5625M24.0625 42.4375H76.5625M24.0625 39.8125H76.5625M24.0625 37.1875H76.5625M24.0625 34.5625H76.5625M24.0625 31.9375H76.5625M24.0625 29.3125H76.5625M24.0625 26.6875H76.5625M24.0625 24.0625H76.5625" stroke="#786DF5" stroke-width="0.875" stroke-linecap="round" stroke-linejoin="round"/>
</svg>
