<svg width="77" height="56" viewBox="0 0 77 56" fill="none" xmlns="http://www.w3.org/2000/svg">
<g clip-path="url(#clip0)">
<path d="M3.5 16.625V7M7 3.5H51.625M55.125 3.5H70.4375M6.125 18.8125H16.625M16.625 18.8125L13.5625 15.75M16.625 18.8125L13.5625 21.875M73.5 7V23.625M52.5 25.375H71.75" stroke="#786DF5" stroke-width="0.875" stroke-linecap="round"/>
<path d="M45.0974 21.9832L38.5921 8.09416C37.9698 6.76546 36.3792 6.20484 35.0613 6.84967L32.8643 7.92462M47.8947 27.6291L49.9268 31.9402M34.0392 43.1379L35.4893 46.1987L36.1556 47.605C36.7763 48.9151 38.3416 49.474 39.6517 48.8533L53.5197 42.2829C54.0989 42.0085 54.3466 41.3169 54.0734 40.7371V40.7371M29.3642 33.7371L28.2382 31.3034L24.7677 23.8021L21.2634 16.2279C20.6586 14.9206 21.2202 13.3701 22.5219 12.7534L24.1188 11.9968M24.1188 11.9968L24.1729 12.0638C24.9411 13.0127 26.2621 13.3068 27.3602 12.7734L31.9794 10.5295C32.9481 10.059 33.3459 8.88786 32.8643 7.92462V7.92462M24.1188 11.9968L32.8643 7.92462" stroke="#786DF5" stroke-width="0.875" stroke-linecap="round"/>
<rect x="28.0815" y="24.8295" width="14.6788" height="14.6597" rx="1.3125" transform="rotate(-25.0299 28.0815 24.8295)" stroke="#786DF5" stroke-width="0.875"/>
<path d="M34.1479 29.6465L38.9603 31.3965L39.8354 23.084" stroke="#786DF5" stroke-width="0.875" stroke-linecap="round" stroke-linejoin="round"/>
<path d="M25.7726 26.2485C25.0115 26.2663 23.4964 26.6063 23.5249 27.824C23.5534 29.0418 26.5665 30.095 27.779 30.3839M31.5798 38.4872C31.049 40.213 29.7126 40.0538 29.1106 38.7353C28.7571 37.961 27.9423 37.6204 27.7209 36.2929C27.5437 35.2309 28.8009 34.0673 29.3643 33.7368C30.3296 34.8122 32.1105 36.7614 31.5798 38.4872ZM31.5798 38.4872C32.4268 40.2993 34.1258 41.2774 33.9756 42.9943C33.9034 43.8193 33.3494 44.5015 32.892 44.5646M30.1549 39.7319C29.754 41.57 31.0578 42.7599 31.4114 43.5341C31.7373 44.2479 32.3522 44.639 32.892 44.5646M32.892 44.5646C33.0852 44.9969 33.4769 46.09 33.4983 47.0034C33.5249 48.145 34.8791 49.0652 36.1799 47.7021M46.0385 45.9486C47.5843 46.668 51.6143 48.2932 54.2781 48.2309C56.9419 48.1686 57.1277 47.9739 61.1724 49.9734C64.4082 51.5731 69.4536 54.0316 71.5718 55.0608L76.1768 43.3618C70.8125 41.3222 63.4893 38.5493 60.8462 36.2799C58.8041 34.5265 57.8542 30.4481 56.0928 28.3952C54.3314 26.3422 49.3895 23.8215 48.5164 21.9091C47.9144 20.5905 48.0558 18.4931 47.0999 18.3251C45.8255 18.101 44.4895 20.6706 45.5165 23.8831C46.5435 27.0955 49.7868 28.46 49.8591 31.5528C50.3643 39.7319 55.4986 41.8056 56.4191 42.0887" stroke="#FF7A5C" stroke-width="0.875" stroke-linecap="round" stroke-linejoin="round"/>
<path d="M25.4949 25.4248L28.9654 32.926M35.0518 45.5498C35.3434 46.2789 36.3643 48.6123 37.6768 49.0498M44.6768 46.4248L47.7393 45.1123" stroke="#786DF5" stroke-width="0.875" stroke-linecap="round"/>
<circle cx="3.5" cy="19.25" r="2.1875" stroke="#786DF5" stroke-width="0.875"/>
<circle cx="3.5" cy="3.5" r="3.0625" stroke="#786DF5" stroke-width="0.875"/>
<circle cx="73.5" cy="3.5" r="3.0625" stroke="#786DF5" stroke-width="0.875"/>
<circle cx="53.375" cy="3.5" r="1.3125" stroke="#786DF5" stroke-width="0.875"/>
<circle cx="73.5" cy="25.375" r="1.3125" stroke="#786DF5" stroke-width="0.875"/>
</g>
<defs>
<clipPath id="clip0">
<rect width="77" height="56" fill="white"/>
</clipPath>
</defs>
</svg>
