<svg width="234" height="234" viewBox="0 0 234 234" fill="none" xmlns="http://www.w3.org/2000/svg">
<g opacity="0.5">
<path d="M129.839 7.00233L128.849 6.91441L126.671 3.83304L125.963 4.50047L125.77 6.63865L124.973 6.56671L125.544 0.196152L126.341 0.26809L126.043 3.56527L129.179 0.519875L130.181 0.6078L127.235 3.39742L129.839 7.00233Z" fill="white"/>
<path d="M132.906 7.54155C132.254 7.44963 131.775 7.10992 131.461 6.51843L131.119 8.96034L130.402 8.86043L131.292 2.52584L132.008 2.62576L131.912 3.30917C132.117 3.09336 132.367 2.9295 132.665 2.82159C132.958 2.71368 133.264 2.68171 133.586 2.72567C134.198 2.8096 134.665 3.09735 134.983 3.58094C135.301 4.06852 135.41 4.68 135.305 5.41137C135.2 6.14675 134.931 6.70627 134.488 7.08994C134.045 7.47361 133.518 7.62548 132.906 7.54155ZM132.813 6.87812C133.264 6.94207 133.651 6.82617 133.965 6.53042C134.279 6.23467 134.472 5.82702 134.544 5.30746C134.617 4.78791 134.544 4.34429 134.323 3.9806C134.102 3.61291 133.763 3.40109 133.313 3.33715C133.039 3.29718 132.761 3.33315 132.483 3.44106C132.206 3.54897 131.988 3.69284 131.831 3.87669L131.541 5.94692C131.638 6.17472 131.807 6.37455 132.045 6.5544C132.282 6.73025 132.54 6.83816 132.813 6.87812Z" fill="white"/>
<path d="M135.453 9.63176L135.687 9.01229C135.791 9.08423 135.916 9.13219 136.061 9.16017C136.226 9.19214 136.367 9.18015 136.488 9.13219C136.608 9.08423 136.725 8.97233 136.834 8.80447L137.269 8.17301L136.21 3.21725L136.979 3.35713L137.808 7.37369L140.026 3.92065L140.807 4.06452L137.482 9.1202C137.116 9.67573 136.608 9.90353 135.96 9.79562C135.771 9.75965 135.602 9.7077 135.453 9.63176Z" fill="white"/>
<path d="M144.841 4.97576L144.7 5.59524L142.22 5.03571L141.327 8.93638L140.618 8.77652L141.653 4.26038L144.841 4.97576Z" fill="white"/>
<path d="M144.1 9.67174L144.257 9.09624C144.47 9.15219 144.679 9.06027 144.893 8.82047C145.106 8.58068 145.343 8.14905 145.609 7.52158L146.503 5.3954L149.634 6.24268L148.411 10.7149L147.71 10.527L148.765 6.66631L146.945 6.17473L146.281 7.79335C145.955 8.58867 145.621 9.12821 145.275 9.41596C144.937 9.70771 144.542 9.79164 144.1 9.67174Z" fill="white"/>
<path d="M153.438 11.682C152.891 11.9978 152.287 12.0497 151.627 11.8339C150.967 11.6221 150.508 11.2264 150.25 10.6549C149.993 10.0834 149.973 9.46792 150.186 8.80848C150.399 8.15304 150.782 7.66546 151.325 7.35372C151.868 7.04199 152.472 6.99403 153.136 7.20585C153.797 7.41767 154.259 7.80933 154.513 8.38085C154.771 8.95236 154.791 9.56384 154.577 10.2233C154.364 10.8827 153.982 11.3663 153.438 11.682ZM150.906 10.3791C151.063 10.7948 151.369 11.0785 151.824 11.2224C152.279 11.3663 152.69 11.3183 153.06 11.0705C153.43 10.8228 153.696 10.4631 153.849 9.98747C154.002 9.51188 154.002 9.06826 153.849 8.65661C153.692 8.24496 153.386 7.9652 152.935 7.81733C152.48 7.67345 152.066 7.72141 151.691 7.9692C151.317 8.21699 151.051 8.57268 150.898 9.04028C150.745 9.51588 150.749 9.96349 150.906 10.3791Z" fill="white"/>
<path d="M156.788 13.6363C156.144 13.3966 155.701 12.9849 155.459 12.3974C155.218 11.8099 155.222 11.1944 155.471 10.543C155.717 9.89155 156.124 9.42395 156.691 9.14419C157.259 8.86443 157.862 8.84445 158.511 9.08424C159.187 9.33602 159.626 9.78764 159.827 10.4351L159.219 10.6789C159.086 10.1993 158.784 9.87157 158.321 9.69971C157.862 9.52786 157.436 9.54784 157.045 9.75567C156.655 9.96349 156.365 10.3152 156.18 10.8068C155.995 11.2983 155.979 11.75 156.136 12.1696C156.293 12.5892 156.599 12.881 157.057 13.0489C157.516 13.2207 157.959 13.1687 158.382 12.897L158.68 13.4805C158.092 13.8362 157.46 13.8881 156.788 13.6363Z" fill="white"/>
<path d="M158.35 16.0503L158.712 15.4948C158.796 15.5867 158.909 15.6626 159.046 15.7186C159.199 15.7825 159.34 15.8065 159.469 15.7825C159.597 15.7585 159.734 15.6786 159.879 15.5387L160.439 15.0152L160.483 9.94751L161.204 10.2513L161.143 14.3517L164.061 11.4542L164.79 11.762L160.447 15.9864C159.968 16.45 159.424 16.5619 158.813 16.3181C158.635 16.2421 158.478 16.1542 158.35 16.0503Z" fill="white"/>
<path d="M165.015 16.9895L164.359 16.6817L166.07 13.0608L164.846 12.4893L165.116 11.9178L168.228 13.3686L167.958 13.9401L166.726 13.3646L165.015 16.9895Z" fill="white"/>
<path d="M170.606 19.1316C170.014 19.3515 169.411 19.3035 168.795 18.9838C168.179 18.664 167.792 18.2004 167.635 17.593C167.478 16.9855 167.563 16.374 167.881 15.7625C168.203 15.151 168.658 14.7354 169.25 14.5196C169.837 14.3038 170.441 14.3517 171.061 14.6715C171.681 14.9912 172.067 15.4548 172.224 16.0583C172.381 16.6618 172.301 17.2732 171.979 17.8847C171.657 18.4962 171.198 18.9118 170.606 19.1316ZM168.328 17.4291C168.412 17.8687 168.67 18.1964 169.093 18.4123C169.515 18.6281 169.93 18.6481 170.336 18.4682C170.743 18.2844 171.065 17.9726 171.298 17.533C171.532 17.0894 171.604 16.6538 171.52 16.2181C171.435 15.7865 171.182 15.4588 170.759 15.239C170.336 15.0192 169.922 14.9992 169.507 15.183C169.097 15.3629 168.779 15.6706 168.549 16.1102C168.316 16.5499 168.243 16.9895 168.328 17.4291Z" fill="white"/>
<path d="M174.125 16.43L174.749 16.7937L174.089 17.9207C173.879 18.2804 173.815 18.5761 173.899 18.8119C173.984 19.0477 174.201 19.2675 174.555 19.4674C174.99 19.7191 175.389 19.851 175.751 19.871L176.846 18.0046L177.474 18.3683L175.123 22.3689L174.499 22.0052L175.457 20.3746C174.998 20.3466 174.535 20.1987 174.076 19.931C173.553 19.6272 173.235 19.3035 173.123 18.9558C173.01 18.6081 173.086 18.2044 173.356 17.7488L174.125 16.43Z" fill="white"/>
<path d="M176.902 23.476L176.294 23.0843L178.83 19.1956L179.438 19.5873L178.383 21.2059L180.428 22.5208L181.482 20.9022L182.09 21.2938L179.554 25.1825L178.947 24.7908L180.082 23.0523L178.037 21.7374L176.902 23.476Z" fill="white"/>
<path d="M183.653 28.044L183.065 27.6244L183.375 27.1968C182.803 27.3206 182.26 27.1967 181.741 26.8291C181.39 26.5813 181.161 26.2496 181.052 25.8379C180.948 25.4263 181.032 25.0266 181.306 24.6389C181.592 24.2433 181.942 24.0315 182.36 24.0035C182.779 23.9755 183.169 24.0874 183.524 24.3392C184.063 24.7229 184.361 25.1905 184.413 25.746L184.9 25.0666C185.081 24.8188 185.13 24.559 185.053 24.2912C184.977 24.0235 184.796 23.7917 184.514 23.5918C184.067 23.2761 183.556 23.1762 182.972 23.2921L182.988 22.6926C183.693 22.5607 184.349 22.7126 184.957 23.1442C185.391 23.452 185.669 23.8076 185.794 24.2073C185.919 24.607 185.822 25.0266 185.512 25.4582L183.653 28.044ZM182.252 26.5573C182.723 26.893 183.186 26.9809 183.632 26.8291L184.144 26.1177C184.144 25.6461 183.906 25.2424 183.435 24.9067C183.161 24.7149 182.884 24.6309 182.598 24.6589C182.312 24.6869 182.083 24.8268 181.906 25.0706C181.732 25.3104 181.68 25.5701 181.745 25.8459C181.809 26.1297 181.978 26.3655 182.252 26.5573Z" fill="white"/>
<path d="M185.303 29.291L184.635 28.7714L186.748 28.1C186.498 27.8482 186.362 27.5565 186.341 27.2248C186.321 26.893 186.43 26.5733 186.672 26.2736C186.925 25.9498 187.239 25.766 187.613 25.718C187.988 25.6701 188.354 25.782 188.716 26.0657L190.653 27.5765L187.774 31.2213L187.203 30.7777L188.318 29.3669L187.316 28.5836L185.303 29.291ZM187.404 27.8402L188.712 28.8594L189.69 27.6204L188.382 26.6053C188.185 26.4494 187.984 26.3855 187.783 26.4095C187.577 26.4334 187.404 26.5373 187.255 26.7252C187.106 26.913 187.046 27.1049 187.066 27.3047C187.086 27.5045 187.199 27.6844 187.404 27.8402Z" fill="white"/>
<path d="M193.595 36.249L193.056 35.7654L195.753 32.792L193.945 31.1734L191.248 34.1428L190.709 33.6632L193.833 30.2222L196.719 32.804L193.595 36.249Z" fill="white"/>
<path d="M197.644 39.3584C197.012 39.3943 196.453 39.1705 195.957 38.6829C195.462 38.1954 195.233 37.6398 195.261 37.0124C195.289 36.3849 195.551 35.8294 196.042 35.3378C196.533 34.8462 197.089 34.5864 197.721 34.5505C198.348 34.5145 198.912 34.7423 199.403 35.2259C199.898 35.7135 200.132 36.265 200.099 36.8925C200.067 37.5199 199.81 38.0755 199.323 38.563C198.836 39.0586 198.276 39.3224 197.644 39.3584ZM195.978 37.0643C195.929 37.5079 196.074 37.8956 196.412 38.2273C196.75 38.559 197.141 38.6989 197.588 38.647C198.03 38.591 198.429 38.3872 198.783 38.0355C199.137 37.6798 199.339 37.2841 199.387 36.8445C199.435 36.4049 199.29 36.0212 198.952 35.6855C198.614 35.3498 198.22 35.2099 197.777 35.2619C197.33 35.3138 196.932 35.5136 196.585 35.8653C196.227 36.221 196.026 36.6207 195.978 37.0643Z" fill="white"/>
<path d="M197.189 41.4006L198.506 40.2016C198.699 40.3455 198.932 40.3855 199.202 40.3215C199.472 40.2576 199.874 40.0378 200.41 39.6621L202.306 38.3392L204.499 40.7132L201.529 43.4189L201.895 43.8146L200.551 45.0415L200.059 44.51L200.933 43.7106L198.55 41.1289L197.677 41.9282L197.189 41.4006ZM202.265 39.2345L200.832 40.2536C200.156 40.7212 199.601 40.925 199.166 40.8611L201.042 42.8913L203.541 40.6173L202.265 39.2345Z" fill="white"/>
<path d="M200.759 45.2773L202.131 44.1423C202.317 44.2941 202.55 44.3461 202.82 44.2981C203.093 44.2462 203.504 44.0463 204.06 43.6986L206.016 42.4637L208.093 44.9376L204.997 47.4994L205.344 47.911L203.943 49.0701L203.48 48.5185L204.394 47.7632L202.135 45.0735L201.222 45.8288L200.759 45.2773ZM205.935 43.3549L204.458 44.3061C203.758 44.7418 203.194 44.9176 202.763 44.8337L204.539 46.9479L207.143 44.7897L205.935 43.3549Z" fill="white"/>
<path d="M206.604 50.7766C206.185 50.2251 206.02 49.6376 206.117 49.0141C206.209 48.3906 206.547 47.8591 207.127 47.4235C207.67 47.0158 208.266 46.84 208.906 46.9039C209.546 46.9679 210.065 47.2596 210.464 47.7792C210.878 48.3267 211.019 48.8982 210.887 49.5017C210.754 50.1052 210.395 50.6207 209.82 51.0524L209.675 51.1603L207.397 48.1708C207.05 48.4706 206.845 48.8343 206.785 49.2579C206.72 49.6815 206.833 50.0852 207.127 50.4689C207.477 50.9285 207.924 51.1883 208.463 51.2562L208.294 51.8157C207.622 51.7238 207.059 51.3761 206.604 50.7766ZM209.663 50.281C209.977 50.0372 210.182 49.7135 210.279 49.3139C210.375 48.9142 210.275 48.5185 209.977 48.1309C209.695 47.7632 209.349 47.5674 208.938 47.5474C208.524 47.5234 208.149 47.6273 207.815 47.8551L209.663 50.281Z" fill="white"/>
<path d="M209.832 55.2528C209.462 54.7132 209.389 54.1297 209.623 53.5023L207.574 54.8931L207.163 54.2976L212.485 50.6887L212.895 51.2842L212.319 51.6758C212.621 51.6798 212.907 51.7558 213.189 51.8996C213.467 52.0435 213.696 52.2473 213.877 52.5111C214.227 53.0187 214.328 53.5502 214.179 54.1137C214.03 54.6733 213.648 55.1648 213.032 55.5845C212.416 56.0041 211.816 56.18 211.233 56.116C210.649 56.0441 210.182 55.7563 209.832 55.2528ZM210.263 54.7372C210.52 55.1129 210.866 55.3167 211.297 55.3487C211.728 55.3807 212.162 55.2488 212.597 54.953C213.032 54.6573 213.314 54.3056 213.438 53.8939C213.563 53.4863 213.495 53.0906 213.237 52.7189C213.08 52.4911 212.871 52.3113 212.601 52.1794C212.336 52.0475 212.078 51.9836 211.836 51.9956L210.098 53.1745C209.993 53.3984 209.957 53.6581 209.985 53.9539C210.013 54.2496 210.11 54.5094 210.263 54.7372Z" fill="white"/>
<path d="M211.861 58.0584L211.378 57.271L214.634 57.7226L215.371 54.8771L215.846 55.6564L215.129 58.422L216.888 57.363L217.263 57.9784L215.512 59.0335L218.305 59.685L218.78 60.4643L215.894 59.7889L214.795 62.8742L214.312 62.0869L215.234 59.5811L214.783 59.4731L213.274 60.3844L212.899 59.7689L214.409 58.8577L214.522 58.4101L211.861 58.0584Z" fill="white"/>
<path d="M217.098 67.1586L216.659 66.3473L217.709 63.8934L216.671 63.5777L215.495 64.2051L215.153 63.5697L219.263 61.3755L219.605 62.011L217.42 63.178L220.769 64.1572L221.203 64.9605L218.361 64.1452L217.098 67.1586Z" fill="white"/>
<path d="M219.026 71.1152L218.712 70.4678L219.191 70.24C218.631 70.0761 218.213 69.7084 217.935 69.1369C217.746 68.7492 217.706 68.3496 217.814 67.9379C217.923 67.5263 218.189 67.2145 218.619 67.0107C219.058 66.7989 219.473 66.7829 219.855 66.9588C220.238 67.1346 220.523 67.4184 220.713 67.81C220.998 68.4015 221.031 68.957 220.809 69.4686L221.566 69.1049C221.844 68.973 222.013 68.7692 222.077 68.4974C222.138 68.2257 222.093 67.9339 221.944 67.6262C221.707 67.1346 221.304 66.8029 220.741 66.627L221.047 66.1075C221.727 66.3273 222.226 66.7749 222.552 67.4423C222.786 67.9219 222.858 68.3656 222.769 68.7772C222.685 69.1888 222.399 69.5086 221.916 69.7404L219.026 71.1152ZM218.519 69.1449C218.768 69.6644 219.131 69.9642 219.598 70.0441L220.391 69.6644C220.62 69.2488 220.608 68.7852 220.354 68.2656C220.209 67.9659 220.004 67.7621 219.738 67.6502C219.473 67.5383 219.203 67.5502 218.933 67.6781C218.668 67.806 218.495 68.0059 218.418 68.2816C218.342 68.5574 218.374 68.8451 218.519 69.1449Z" fill="white"/>
<path d="M222.016 78.1692L221.747 77.5018L225.486 76.0151L224.58 73.773L220.841 75.2597L220.571 74.5923L224.902 72.8698L226.348 76.4507L222.016 78.1692Z" fill="white"/>
<path d="M223.144 81.6502C222.931 81.0348 223.015 80.4513 223.405 79.9077L221.059 80.715L220.821 80.0356L226.911 77.9454L227.149 78.6248L226.493 78.8486C226.783 78.9326 227.04 79.0804 227.27 79.2922C227.499 79.5041 227.668 79.7598 227.773 80.0636C227.974 80.6431 227.93 81.1866 227.64 81.6862C227.346 82.1898 226.851 82.5614 226.143 82.8052C225.434 83.049 224.81 83.061 224.267 82.8452C223.723 82.6294 223.345 82.2297 223.144 81.6502ZM223.695 81.2706C223.844 81.6982 224.122 81.9859 224.533 82.1298C224.939 82.2737 225.394 82.2617 225.893 82.0898C226.392 81.918 226.755 81.6502 226.984 81.2905C227.213 80.9268 227.25 80.5312 227.101 80.1035C227.012 79.8438 226.855 79.616 226.63 79.4161C226.404 79.2163 226.179 79.0924 225.941 79.0405L223.953 79.7239C223.796 79.9117 223.687 80.1555 223.635 80.4473C223.587 80.735 223.607 81.0108 223.695 81.2706Z" fill="white"/>
<path d="M225.857 87.9528C225.285 87.6811 224.907 87.2135 224.709 86.55C224.516 85.8866 224.585 85.2871 224.919 84.7556C225.253 84.224 225.752 83.8603 226.42 83.6645C227.088 83.4727 227.704 83.5087 228.272 83.7804C228.839 84.0522 229.218 84.5198 229.415 85.1832C229.612 85.8466 229.544 86.4421 229.214 86.9737C228.884 87.5052 228.384 87.8689 227.716 88.0607C227.044 88.2645 226.424 88.2246 225.857 87.9528ZM225.518 85.1432C225.261 85.5069 225.196 85.9186 225.329 86.3702C225.462 86.8258 225.736 87.1335 226.15 87.3014C226.565 87.4692 227.012 87.4812 227.495 87.3413C227.978 87.2015 228.348 86.9497 228.602 86.59C228.859 86.2303 228.92 85.8227 228.787 85.367C228.654 84.9114 228.38 84.5997 227.962 84.4319C227.547 84.264 227.1 84.248 226.625 84.3839C226.146 84.5278 225.776 84.7796 225.518 85.1432Z" fill="white"/>
<path d="M226.123 91.8335C225.962 91.1621 226.046 90.5586 226.384 90.0231C226.723 89.4875 227.246 89.1358 227.954 88.968C228.619 88.8081 229.23 88.888 229.794 89.1998C230.357 89.5115 230.716 89.9871 230.869 90.6226C231.03 91.286 230.925 91.8695 230.559 92.3691C230.192 92.8686 229.657 93.2003 228.957 93.3682L228.78 93.4122L227.898 89.7673C227.459 89.9032 227.129 90.155 226.896 90.5186C226.662 90.8823 226.606 91.298 226.719 91.7656C226.855 92.3251 227.157 92.7447 227.628 93.0205L227.25 93.4641C226.674 93.1084 226.3 92.5689 226.123 91.8335ZM229.13 92.5969C229.516 92.4969 229.834 92.2851 230.084 91.9574C230.333 91.6297 230.398 91.226 230.285 90.7544C230.176 90.3068 229.939 89.9911 229.568 89.8073C229.198 89.6234 228.816 89.5675 228.417 89.6434L229.13 92.5969Z" fill="white"/>
<path d="M227.733 98.9674L227.56 98.0642L229.303 96.0339L228.409 95.4224L227.101 95.6702L226.964 94.9628L231.545 94.0916L231.681 94.799L229.242 95.2626L232.144 97.1889L232.317 98.0842L229.85 96.4655L227.733 98.9674Z" fill="white"/>
<path d="M228.082 101.297L227.974 100.586L231.955 99.9865L231.753 98.6597L232.385 98.5638L232.901 101.941L232.269 102.037L232.063 100.698L228.082 101.297Z" fill="white"/>
<path d="M229.399 107.096C228.884 106.729 228.59 106.205 228.514 105.518C228.437 104.83 228.61 104.255 229.033 103.787C229.456 103.32 230.011 103.048 230.703 102.972C231.396 102.896 231.996 103.04 232.507 103.408C233.018 103.775 233.312 104.299 233.384 104.986C233.457 105.674 233.288 106.249 232.869 106.717C232.45 107.184 231.895 107.456 231.207 107.532C230.514 107.608 229.91 107.464 229.399 107.096ZM229.556 104.271C229.238 104.587 229.105 104.978 229.158 105.45C229.21 105.921 229.423 106.273 229.806 106.509C230.184 106.745 230.623 106.837 231.122 106.781C231.621 106.725 232.028 106.545 232.346 106.233C232.66 105.921 232.793 105.53 232.74 105.062C232.688 104.591 232.47 104.239 232.092 103.999C231.714 103.759 231.275 103.667 230.784 103.723C230.285 103.775 229.874 103.959 229.556 104.271Z" fill="white"/>
<path d="M229.13 111.473L228.969 108.879L233.626 108.591L233.783 111.137C233.807 111.541 233.719 111.864 233.513 112.108C233.308 112.352 233.026 112.488 232.668 112.512C232.402 112.528 232.173 112.472 231.976 112.34C231.778 112.208 231.638 112.04 231.561 111.832C231.517 112.072 231.392 112.28 231.183 112.456C230.973 112.632 230.74 112.728 230.474 112.744C230.096 112.768 229.782 112.668 229.536 112.44C229.291 112.22 229.154 111.896 229.13 111.473ZM229.758 111.293C229.774 111.521 229.846 111.701 229.983 111.824C230.12 111.952 230.297 112.008 230.518 111.992C230.72 111.98 230.885 111.904 231.018 111.76C231.15 111.617 231.211 111.433 231.195 111.201L231.086 109.466L229.649 109.554L229.758 111.293ZM231.827 111.133C231.839 111.349 231.911 111.517 232.036 111.629C232.161 111.744 232.322 111.792 232.515 111.78C232.72 111.768 232.881 111.697 232.99 111.569C233.103 111.441 233.151 111.269 233.135 111.049L233.03 109.347L231.718 109.426L231.827 111.133Z" fill="white"/>
<path d="M229.323 117.224L229.335 116.532L234 116.608L233.988 117.328L230.426 117.272L233.952 119.754L233.94 120.465L229.274 120.389L229.286 119.67L232.917 119.73L229.323 117.224Z" fill="white"/>
<path d="M228.783 128.922L228.84 128.206L232.491 128.486L228.956 126.704L228.976 126.436L232.744 125.205L229.093 124.925L229.15 124.21L233.803 124.57L233.73 125.517L230.172 126.668L233.509 128.33L233.432 129.286L228.783 128.922Z" fill="white"/>
<path d="M228.248 132.335C228.337 131.651 228.635 131.116 229.142 130.736C229.649 130.357 230.265 130.213 230.985 130.305C231.662 130.393 232.209 130.68 232.62 131.172C233.034 131.663 233.199 132.231 233.115 132.878C233.026 133.558 232.72 134.065 232.201 134.401C231.682 134.737 231.062 134.861 230.345 134.769L230.164 134.745L230.647 131.024C230.188 130.996 229.79 131.112 229.444 131.372C229.098 131.631 228.896 131.999 228.832 132.475C228.759 133.046 228.892 133.542 229.23 133.965L228.715 134.249C228.305 133.722 228.148 133.082 228.248 132.335ZM230.78 134.109C231.179 134.153 231.549 134.065 231.899 133.846C232.249 133.626 232.455 133.274 232.519 132.794C232.579 132.339 232.471 131.959 232.189 131.655C231.907 131.352 231.569 131.164 231.171 131.096L230.78 134.109Z" fill="white"/>
<path d="M227.395 137.77C227.511 137.127 227.87 136.663 228.481 136.375L226.038 135.944L226.167 135.236L232.511 136.359L232.382 137.067L231.698 136.947C231.907 137.159 232.06 137.415 232.16 137.71C232.257 138.006 232.277 138.314 232.221 138.626C232.112 139.229 231.806 139.681 231.307 139.98C230.804 140.276 230.188 140.36 229.451 140.232C228.715 140.1 228.163 139.813 227.793 139.357C227.419 138.905 227.286 138.374 227.395 137.77ZM228.067 137.702C227.986 138.15 228.087 138.534 228.373 138.857C228.658 139.181 229.061 139.389 229.58 139.481C230.1 139.573 230.55 139.517 230.925 139.309C231.303 139.101 231.533 138.777 231.613 138.33C231.661 138.058 231.637 137.782 231.541 137.502C231.444 137.223 231.307 137.003 231.126 136.839L229.053 136.471C228.82 136.559 228.61 136.719 228.421 136.951C228.232 137.183 228.115 137.435 228.067 137.702Z" fill="white"/>
<path d="M226.67 144.584C226.308 144.073 226.203 143.477 226.356 142.806C226.513 142.135 226.867 141.643 227.419 141.339C227.97 141.035 228.586 140.96 229.262 141.115C229.939 141.271 230.458 141.603 230.82 142.115C231.183 142.626 231.283 143.218 231.13 143.893C230.973 144.564 230.623 145.056 230.072 145.36C229.52 145.664 228.908 145.739 228.232 145.584C227.556 145.432 227.032 145.096 226.67 144.584ZM227.753 141.967C227.346 142.159 227.093 142.486 226.984 142.95C226.875 143.413 226.964 143.813 227.246 144.161C227.528 144.509 227.91 144.736 228.401 144.848C228.892 144.96 229.335 144.92 229.737 144.728C230.14 144.536 230.394 144.213 230.498 143.749C230.603 143.29 230.518 142.882 230.241 142.534C229.963 142.187 229.58 141.955 229.097 141.847C228.606 141.735 228.16 141.775 227.753 141.967Z" fill="white"/>
<path d="M224.621 149.848L224.818 149.157L228.699 150.236L229.355 147.91L225.474 146.831L225.672 146.139L230.164 147.39L229.113 151.103L224.621 149.848Z" fill="white"/>
<path d="M223.385 153.273C223.595 152.654 224.017 152.246 224.661 152.046L222.307 151.267L222.536 150.583L228.65 152.606L228.421 153.289L227.761 153.069C227.938 153.309 228.055 153.585 228.107 153.892C228.159 154.2 228.135 154.504 228.034 154.808C227.841 155.391 227.471 155.791 226.932 156.015C226.392 156.238 225.768 156.23 225.06 155.999C224.351 155.763 223.848 155.399 223.546 154.896C223.244 154.4 223.192 153.857 223.385 153.273ZM224.058 153.305C223.913 153.737 223.957 154.132 224.194 154.492C224.428 154.852 224.798 155.115 225.297 155.283C225.801 155.451 226.251 155.455 226.654 155.307C227.056 155.155 227.33 154.868 227.475 154.436C227.564 154.176 227.58 153.9 227.523 153.609C227.467 153.317 227.362 153.077 227.209 152.893L225.213 152.234C224.971 152.29 224.738 152.418 224.52 152.618C224.303 152.817 224.146 153.045 224.058 153.305Z" fill="white"/>
<path d="M222.214 156.918L222.463 156.274L226.815 157.949L226.553 158.62L223.228 157.342L225.671 160.883L225.414 161.542L221.062 159.867L221.324 159.196L224.713 160.499L222.214 156.918Z" fill="white"/>
<path d="M220.258 161.758L220.6 160.986L221.776 162.857C221.961 162.553 222.21 162.349 222.532 162.249C222.85 162.149 223.189 162.177 223.543 162.329C223.921 162.493 224.179 162.753 224.32 163.101C224.461 163.448 224.436 163.832 224.251 164.248L223.257 166.486L218.99 164.611L219.284 163.952L220.934 164.679L221.45 163.52L220.258 161.758ZM222.19 163.42L221.518 164.931L222.967 165.567L223.639 164.056C223.74 163.828 223.756 163.62 223.68 163.428C223.607 163.237 223.458 163.097 223.241 163.001C223.024 162.905 222.818 162.893 222.629 162.965C222.44 163.037 222.295 163.189 222.19 163.42Z" fill="white"/>
<path d="M217.698 167.249L218.016 166.602L221.631 168.364L222.227 167.157L222.798 167.437L221.281 170.502L220.709 170.223L221.309 169.008L217.698 167.249Z" fill="white"/>
<path d="M216.361 169.855L216.695 169.247L220.797 171.457L220.451 172.089L217.319 170.398L219.288 174.219L218.945 174.843L214.844 172.632L215.19 172.001L218.382 173.72L216.361 169.855Z" fill="white"/>
<path d="M213.797 174.411L214.155 173.819L218.148 176.217L217.774 176.833L214.723 174.998L216.506 178.907L216.136 179.515L212.143 177.117L212.517 176.501L215.624 178.368L213.797 174.411ZM217.452 180.014C217.182 179.367 217.235 178.743 217.601 178.14C217.963 177.544 218.498 177.209 219.207 177.133L219.287 177.596C218.716 177.644 218.285 177.904 217.995 178.38C217.701 178.863 217.669 179.359 217.899 179.87L217.452 180.014Z" fill="white"/>
<path d="M207.22 184.29L207.795 183.483L211.571 183.159L211.346 182.212L209.579 180.973L210.041 180.322L215.307 184.011L214.844 184.662L212.123 182.752L213.201 186.972L212.622 187.788L211.668 183.855L207.22 184.29Z" fill="white"/>
<path d="M205.219 186.644C205.626 186.133 206.165 185.889 206.838 185.917L204.881 184.398L205.328 183.831L210.4 187.775L209.953 188.343L209.406 187.915C209.49 188.199 209.506 188.499 209.454 188.807C209.402 189.114 209.273 189.394 209.076 189.646C208.693 190.129 208.21 190.385 207.627 190.413C207.043 190.441 206.455 190.229 205.868 189.77C205.28 189.314 204.93 188.799 204.813 188.227C204.704 187.656 204.837 187.128 205.219 186.644ZM205.839 186.896C205.558 187.252 205.465 187.644 205.566 188.059C205.666 188.475 205.924 188.847 206.339 189.17C206.753 189.494 207.176 189.654 207.606 189.646C208.037 189.638 208.391 189.458 208.673 189.098C208.842 188.883 208.951 188.627 208.999 188.335C209.047 188.043 209.027 187.783 208.947 187.556L207.288 186.265C207.043 186.237 206.781 186.277 206.508 186.393C206.234 186.517 206.012 186.68 205.839 186.896Z" fill="white"/>
<path d="M202.115 187.78L202.538 188.291C202.425 188.343 202.317 188.427 202.22 188.539C202.111 188.667 202.047 188.791 202.031 188.923C202.015 189.05 202.051 189.206 202.144 189.382L202.478 190.07L207.324 191.648L206.813 192.24L202.896 190.937L204.792 194.574L204.277 195.169L201.54 189.778C201.238 189.182 201.298 188.635 201.713 188.131C201.846 187.991 201.979 187.871 202.115 187.78Z" fill="white"/>
<path d="M201.464 198.183L200.997 197.751L202.724 195.901L199.773 193.179L200.265 192.651L203.686 195.805L201.464 198.183Z" fill="white"/>
<path d="M197.744 195.197L198.167 195.621C198.01 195.773 197.985 196 198.09 196.304C198.195 196.608 198.452 197.028 198.863 197.571L200.268 199.402L197.961 201.672L194.677 198.382L195.192 197.875L198.026 200.716L199.362 199.402L198.283 198.019C197.752 197.343 197.45 196.784 197.374 196.344C197.293 195.896 197.418 195.517 197.744 195.197Z" fill="white"/>
<path d="M191.312 202.223C191.312 201.596 191.569 201.052 192.084 200.589C192.6 200.125 193.175 199.929 193.803 199.993C194.431 200.061 194.978 200.349 195.445 200.86C195.912 201.372 196.142 201.943 196.142 202.567C196.142 203.19 195.884 203.734 195.365 204.197C194.85 204.661 194.278 204.861 193.65 204.797C193.022 204.733 192.479 204.445 192.012 203.93C191.545 203.418 191.312 202.847 191.312 202.223ZM193.711 200.696C193.268 200.625 192.869 200.744 192.515 201.064C192.161 201.38 192 201.76 192.028 202.203C192.056 202.647 192.241 203.054 192.575 203.422C192.91 203.794 193.3 204.014 193.739 204.086C194.177 204.157 194.572 204.038 194.926 203.718C195.28 203.398 195.445 203.018 195.417 202.575C195.389 202.131 195.212 201.724 194.878 201.36C194.544 200.992 194.153 200.772 193.711 200.696Z" fill="white"/>
<path d="M187.931 204.126C188.462 203.69 189.046 203.518 189.674 203.602C190.306 203.686 190.841 204.002 191.288 204.537C191.735 205.077 191.936 205.656 191.9 206.288C191.86 206.915 191.578 207.447 191.043 207.882C190.487 208.338 189.875 208.49 189.207 208.338L189.296 207.69C189.783 207.814 190.217 207.722 190.6 207.407C190.978 207.099 191.175 206.723 191.188 206.28C191.2 205.836 191.039 205.416 190.704 205.009C190.37 204.605 189.98 204.365 189.541 204.289C189.098 204.213 188.692 204.333 188.313 204.641C187.935 204.949 187.758 205.356 187.782 205.856L187.126 205.82C187.106 205.149 187.376 204.581 187.931 204.126Z" fill="white"/>
<path d="M185.053 204.257L185.355 204.849C185.23 204.877 185.11 204.937 184.993 205.025C184.86 205.125 184.771 205.237 184.727 205.356C184.683 205.476 184.687 205.636 184.735 205.832L184.912 206.575L189.312 209.141L188.688 209.609L185.142 207.511L186.212 211.467L185.581 211.943L184.063 206.096C183.894 205.452 184.071 204.929 184.586 204.525C184.743 204.409 184.896 204.321 185.053 204.257Z" fill="white"/>
<path d="M180.898 209.529L181.494 209.117L183.801 212.398L184.908 211.631L185.274 212.151L182.452 214.105L182.086 213.585L183.205 212.81L180.898 209.529Z" fill="white"/>
<path d="M176.241 213.27C176.342 212.65 176.688 212.155 177.276 211.783C177.863 211.411 178.459 211.311 179.067 211.479C179.675 211.647 180.166 212.023 180.54 212.606C180.914 213.19 181.047 213.789 180.943 214.405C180.838 215.02 180.492 215.516 179.908 215.887C179.32 216.259 178.725 216.363 178.117 216.195C177.509 216.031 177.018 215.656 176.644 215.072C176.273 214.489 176.136 213.889 176.241 213.27ZM178.862 212.163C178.435 212.019 178.024 212.075 177.622 212.331C177.219 212.586 176.998 212.934 176.954 213.374C176.909 213.813 177.022 214.245 177.292 214.669C177.561 215.088 177.908 215.372 178.326 215.516C178.745 215.66 179.159 215.604 179.558 215.348C179.956 215.092 180.186 214.744 180.23 214.301C180.278 213.857 180.17 213.43 179.9 213.014C179.634 212.586 179.288 212.307 178.862 212.163Z" fill="white"/>
<path d="M176.846 217.646L176.218 218.006L175.566 216.875C175.356 216.515 175.131 216.311 174.881 216.267C174.632 216.223 174.334 216.303 173.98 216.503C173.545 216.751 173.227 217.027 173.034 217.33L174.117 219.201L173.489 219.56L171.166 215.544L171.794 215.184L172.74 216.823C172.993 216.443 173.356 216.119 173.819 215.856C174.342 215.556 174.785 215.444 175.147 215.52C175.505 215.596 175.819 215.864 176.085 216.323L176.846 217.646Z" fill="white"/>
<path d="M169.314 216.519L169.958 216.191L172.092 220.312L171.448 220.639L170.562 218.925L168.397 220.028L169.282 221.742L168.638 222.07L166.509 217.95L167.153 217.622L168.107 219.464L170.272 218.361L169.314 216.519Z" fill="white"/>
<path d="M161.952 220.048L162.612 219.748L162.834 220.228C163.011 219.676 163.389 219.269 163.969 219.005C164.363 218.825 164.766 218.797 165.176 218.909C165.591 219.025 165.897 219.297 166.094 219.728C166.295 220.172 166.307 220.579 166.122 220.955C165.937 221.331 165.647 221.611 165.249 221.79C164.645 222.062 164.09 222.086 163.578 221.854L163.929 222.614C164.057 222.893 164.259 223.065 164.528 223.133C164.798 223.201 165.092 223.161 165.41 223.017C165.909 222.79 166.251 222.402 166.44 221.842L166.956 222.158C166.718 222.83 166.259 223.317 165.579 223.625C165.092 223.845 164.645 223.909 164.23 223.813C163.816 223.717 163.502 223.429 163.28 222.945L161.952 220.048ZM163.949 219.588C163.421 219.828 163.111 220.18 163.023 220.643L163.389 221.439C163.8 221.675 164.271 221.671 164.798 221.431C165.104 221.291 165.313 221.095 165.43 220.831C165.547 220.571 165.543 220.304 165.418 220.032C165.293 219.764 165.096 219.588 164.822 219.508C164.54 219.42 164.251 219.448 163.949 219.588Z" fill="white"/>
<path d="M160.04 220.847L160.829 220.531L160.358 222.686C160.704 222.594 161.026 222.626 161.328 222.774C161.63 222.921 161.851 223.173 161.996 223.533C162.149 223.913 162.153 224.276 162.012 224.624C161.868 224.972 161.586 225.227 161.159 225.399L158.873 226.315L157.13 222.018L157.802 221.75L158.478 223.413L159.662 222.941L160.04 220.847ZM160.253 223.381L158.712 223.997L159.304 225.455L160.845 224.84C161.079 224.748 161.236 224.608 161.316 224.42C161.397 224.232 161.393 224.029 161.304 223.809C161.215 223.589 161.079 223.441 160.893 223.357C160.704 223.277 160.491 223.285 160.253 223.381Z" fill="white"/>
<path d="M149.836 224.5L150.524 224.276L151.768 228.081L154.083 227.334L152.839 223.529L153.527 223.309L154.968 227.717L151.273 228.908L149.836 224.5Z" fill="white"/>
<path d="M145.095 226.423C145.38 225.863 145.855 225.491 146.528 225.311C147.2 225.132 147.8 225.212 148.331 225.551C148.862 225.891 149.216 226.395 149.402 227.062C149.583 227.729 149.534 228.341 149.249 228.896C148.963 229.452 148.488 229.824 147.816 230.003C147.143 230.183 146.544 230.107 146.012 229.768C145.481 229.432 145.127 228.928 144.946 228.261C144.761 227.598 144.813 226.982 145.095 226.423ZM147.932 226.139C147.57 225.875 147.16 225.807 146.701 225.931C146.242 226.055 145.924 226.323 145.747 226.73C145.574 227.138 145.549 227.582 145.682 228.065C145.815 228.545 146.061 228.916 146.419 229.18C146.777 229.444 147.188 229.508 147.647 229.384C148.105 229.26 148.428 228.992 148.605 228.585C148.782 228.177 148.806 227.733 148.677 227.258C148.54 226.774 148.295 226.403 147.932 226.139Z" fill="white"/>
<path d="M143.532 225.008L143.919 226.742C143.697 226.838 143.544 227.014 143.464 227.278C143.383 227.542 143.371 227.997 143.432 228.645L143.633 230.939L140.465 231.634L139.596 227.729L139.068 227.845L138.674 226.075L139.382 225.919L139.64 227.07L143.081 226.315L142.824 225.164L143.532 225.008ZM142.872 230.459L142.703 228.717C142.635 227.901 142.735 227.322 143.009 226.978L140.3 227.57L141.033 230.859L142.872 230.459Z" fill="white"/>
<path d="M138.369 226.135L138.67 227.885C138.445 227.969 138.284 228.141 138.191 228.401C138.099 228.661 138.067 229.116 138.095 229.764L138.187 232.066L134.987 232.609L134.307 228.665L133.772 228.756L133.466 226.97L134.178 226.85L134.38 228.013L137.853 227.422L137.652 226.259L138.369 226.135ZM137.451 231.546L137.366 229.8C137.338 228.98 137.467 228.409 137.757 228.081L135.024 228.545L135.595 231.862L137.451 231.546Z" fill="white"/>
<path d="M130.651 228.393C131.339 228.309 131.935 228.465 132.43 228.856C132.925 229.252 133.219 229.808 133.308 230.523C133.392 231.194 133.243 231.79 132.865 232.309C132.487 232.829 131.971 233.129 131.323 233.209C130.639 233.293 130.068 233.125 129.613 232.705C129.158 232.285 128.884 231.722 128.796 231.011L128.775 230.831L132.523 230.375C132.434 229.927 132.221 229.572 131.883 229.304C131.545 229.036 131.138 228.932 130.655 228.988C130.08 229.056 129.629 229.308 129.299 229.744L128.896 229.32C129.315 228.792 129.898 228.485 130.651 228.393ZM129.548 231.27C129.605 231.662 129.782 232.002 130.084 232.281C130.386 232.565 130.776 232.677 131.263 232.617C131.722 232.561 132.068 232.361 132.293 232.018C132.519 231.674 132.62 231.302 132.587 230.899L129.548 231.27Z" fill="white"/>
<path d="M125.129 228.92C125.785 228.872 126.329 229.104 126.759 229.62L126.574 227.162L127.299 227.11L127.774 233.488L127.049 233.54L126.997 232.853C126.84 233.109 126.631 233.321 126.365 233.484C126.099 233.652 125.805 233.748 125.483 233.768C124.868 233.812 124.352 233.632 123.938 233.225C123.523 232.817 123.29 232.241 123.233 231.502C123.177 230.763 123.326 230.159 123.676 229.692C124.03 229.224 124.513 228.968 125.129 228.92ZM125.359 229.548C124.904 229.58 124.554 229.776 124.308 230.131C124.062 230.487 123.962 230.927 123.998 231.446C124.038 231.97 124.203 232.385 124.497 232.697C124.791 233.009 125.165 233.149 125.624 233.113C125.902 233.093 126.164 233.001 126.413 232.837C126.663 232.673 126.844 232.485 126.957 232.273L126.804 230.187C126.659 229.987 126.453 229.824 126.18 229.7C125.91 229.58 125.636 229.528 125.359 229.548Z" fill="white"/>
<path d="M121.664 229.252L122.59 229.232L120.565 231.806L122.674 233.864L121.756 233.884L119.708 231.882L119.748 233.924L119.023 233.94L118.983 231.906L117.015 233.98L116.097 234L118.13 231.858L115.992 229.368L116.918 229.348L118.641 231.394L118.963 231.063L118.927 229.308L119.651 229.292L119.687 231.047L120.021 231.366L121.664 229.252Z" fill="white"/>
<path d="M111.113 229.196L112.039 229.224L113.653 231.354L114.45 230.623L114.491 229.3L115.215 229.324L115.07 233.956L114.346 233.932L114.422 231.466L111.894 233.856L110.977 233.828L113.11 231.794L111.113 229.196Z" fill="white"/>
<path d="M106.69 228.872L107.41 228.924L107.37 229.452C107.793 229.052 108.324 228.876 108.96 228.924C109.391 228.956 109.757 229.12 110.067 229.42C110.373 229.72 110.51 230.103 110.473 230.575C110.437 231.059 110.248 231.422 109.902 231.662C109.556 231.902 109.165 232.006 108.731 231.974C108.07 231.926 107.571 231.674 107.237 231.226L107.173 232.058C107.149 232.365 107.241 232.609 107.446 232.801C107.652 232.993 107.929 233.097 108.276 233.121C108.823 233.161 109.314 232.985 109.749 232.585L110.047 233.109C109.515 233.58 108.875 233.792 108.131 233.736C107.599 233.696 107.173 233.536 106.859 233.257C106.545 232.977 106.408 232.573 106.444 232.042L106.69 228.872ZM108.662 229.424C108.082 229.38 107.644 229.54 107.338 229.904L107.273 230.775C107.519 231.178 107.934 231.402 108.513 231.442C108.847 231.466 109.129 231.394 109.358 231.222C109.588 231.051 109.713 230.815 109.737 230.515C109.757 230.223 109.668 229.971 109.467 229.768C109.266 229.564 108.996 229.448 108.662 229.424Z" fill="white"/>
<path d="M99.0332 227.921L99.7497 228.021L99.1781 231.982L101.589 232.325L102.161 228.365L102.877 228.465L102.217 233.053L98.373 232.505L99.0332 227.921Z" fill="white"/>
<path d="M95.4434 227.154C96.0875 227.278 96.5544 227.641 96.8362 228.249L97.3031 225.827L98.0156 225.963L96.7999 232.245L96.0875 232.11L96.2203 231.43C96.0029 231.638 95.7453 231.786 95.4434 231.878C95.1455 231.97 94.8356 231.986 94.5176 231.926C93.9098 231.81 93.459 231.502 93.1691 230.999C92.8793 230.495 92.7988 229.879 92.9397 229.152C93.0806 228.425 93.3825 227.877 93.8414 227.518C94.3043 227.162 94.8356 227.038 95.4434 227.154ZM95.4998 227.821C95.0489 227.737 94.6625 227.833 94.3324 228.109C94.0024 228.389 93.789 228.784 93.6884 229.3C93.5878 229.816 93.6401 230.259 93.8414 230.639C94.0426 231.015 94.3687 231.246 94.8195 231.334C95.0932 231.386 95.371 231.366 95.6527 231.274C95.9345 231.182 96.1599 231.047 96.3249 230.871L96.7234 228.816C96.6389 228.585 96.4779 228.373 96.2525 228.185C96.0231 227.993 95.7735 227.873 95.4998 227.821Z" fill="white"/>
<path d="M88.5877 226.343C89.107 225.987 89.7068 225.891 90.383 226.055C91.0593 226.219 91.5463 226.574 91.8442 227.13C92.142 227.685 92.2105 228.293 92.0454 228.964C91.8804 229.636 91.5383 230.147 91.019 230.499C90.4997 230.851 89.9 230.947 89.2237 230.783C88.5475 230.619 88.0604 230.263 87.7626 229.712C87.4647 229.16 87.3963 228.553 87.5613 227.881C87.7263 227.21 88.0685 226.694 88.5877 226.343ZM91.2082 227.454C91.019 227.05 90.693 226.79 90.2301 226.678C89.7671 226.566 89.3606 226.646 89.0064 226.922C88.6522 227.198 88.4187 227.574 88.302 228.061C88.1852 228.545 88.2174 228.988 88.4026 229.388C88.5877 229.788 88.9138 230.043 89.3767 230.155C89.8396 230.267 90.2502 230.187 90.6044 229.916C90.9586 229.644 91.1961 229.268 91.3128 228.789C91.4336 228.301 91.4014 227.857 91.2082 227.454Z" fill="white"/>
<path d="M85.0698 224.632C85.738 224.828 86.221 225.204 86.5149 225.763C86.8128 226.319 86.857 226.946 86.6517 227.637C86.4585 228.289 86.0842 228.776 85.5287 229.104C84.9732 229.432 84.3815 229.504 83.7536 229.32C83.0934 229.124 82.6345 228.748 82.385 228.185C82.1354 227.621 82.1112 226.994 82.3125 226.307L82.3648 226.131L85.9876 227.194C86.0882 226.75 86.0359 226.339 85.8306 225.959C85.6293 225.579 85.2952 225.323 84.8323 225.188C84.2768 225.024 83.7616 225.076 83.2866 225.343L83.0854 224.796C83.6811 224.472 84.3412 224.42 85.0698 224.632ZM82.9042 226.838C82.7955 227.222 82.8237 227.601 82.9888 227.977C83.1538 228.357 83.4678 228.613 83.9387 228.748C84.3815 228.88 84.78 228.832 85.1262 228.605C85.4723 228.381 85.7098 228.077 85.8467 227.693L82.9042 226.838Z" fill="white"/>
<path d="M78.042 222.458L78.9195 222.758L79.8212 225.271L80.7993 224.808L81.2341 223.557L81.9183 223.793L80.3928 228.173L79.7085 227.937L80.5216 225.607L77.39 227.142L76.5205 226.842L79.1651 225.527L78.042 222.458Z" fill="white"/>
<path d="M75.8279 221.591L76.5042 221.854L75.039 225.579L76.2989 226.067L76.0654 226.658L72.8613 225.415L73.0948 224.824L74.3628 225.315L75.8279 221.591Z" fill="white"/>
<path d="M70.1115 219.828C70.6871 219.568 71.295 219.58 71.931 219.856C72.5669 220.132 72.9856 220.571 73.1828 221.167C73.38 221.762 73.3398 222.378 73.058 223.009C72.7763 223.641 72.3496 224.085 71.778 224.34C71.2064 224.596 70.5986 224.584 69.9626 224.308C69.3266 224.029 68.908 223.597 68.7107 223.001C68.5135 222.406 68.5538 221.794 68.8315 221.163C69.1092 220.532 69.5399 220.088 70.1115 219.828ZM72.4985 221.375C72.3818 220.943 72.1081 220.631 71.6693 220.444C71.2346 220.252 70.816 220.264 70.4215 220.472C70.027 220.679 69.7291 221.011 69.5279 221.471C69.3266 221.926 69.2823 222.37 69.395 222.798C69.5077 223.225 69.7855 223.533 70.2202 223.725C70.6549 223.917 71.0736 223.909 71.4721 223.701C71.8706 223.493 72.1684 223.165 72.3657 222.714C72.571 222.25 72.6152 221.806 72.4985 221.375Z" fill="white"/>
<path d="M66.4243 217.406L68.767 218.565L66.686 222.714L64.3876 221.579C64.0253 221.399 63.7878 221.159 63.6751 220.863C63.5624 220.568 63.5865 220.256 63.7475 219.936C63.8643 219.7 64.0333 219.532 64.2467 219.428C64.46 219.325 64.6774 219.289 64.8988 219.329C64.7136 219.173 64.5928 218.961 64.5445 218.693C64.4962 218.425 64.5284 218.174 64.6452 217.942C64.8142 217.602 65.0598 217.386 65.3778 217.286C65.6958 217.174 66.046 217.218 66.4243 217.406ZM65.3737 219.896C65.1765 219.8 64.9994 219.776 64.8344 219.828C64.6733 219.88 64.5486 219.992 64.46 220.164C64.3674 220.348 64.3513 220.52 64.4077 220.679C64.464 220.839 64.5888 220.967 64.786 221.063L66.3237 221.822L66.9114 220.655L65.3737 219.896ZM66.2714 218.038C66.0621 217.934 65.8729 217.91 65.6917 217.966C65.5106 218.022 65.3737 218.146 65.2771 218.341C65.1886 218.517 65.1725 218.701 65.2288 218.885C65.2852 219.069 65.418 219.217 65.6273 219.317L67.1931 220.092L67.8332 218.813L66.2714 218.038Z" fill="white"/>
<path d="M61.3162 214.68L61.9159 215.032L59.5531 219.029L58.9292 218.665L60.7325 215.612L56.82 217.434L56.2041 217.074L58.5669 213.078L59.1908 213.442L57.3513 216.551L61.3162 214.68Z" fill="white"/>
<path d="M51.4028 208.366L51.9985 208.774L49.9215 211.767L53.2463 209.629L53.4677 209.781L52.6466 213.633L54.7236 210.64L55.3193 211.048L52.6707 214.864L51.8818 214.325L52.6667 210.692L49.5431 212.726L48.7461 212.183L51.4028 208.366Z" fill="white"/>
<path d="M48.7051 206.196C49.2566 206.615 49.5705 207.139 49.647 207.766C49.7235 208.394 49.5383 208.993 49.0956 209.565C48.681 210.104 48.1536 210.424 47.5177 210.532C46.8817 210.64 46.302 210.496 45.7828 210.1C45.2353 209.685 44.9455 209.169 44.9173 208.55C44.8851 207.934 45.0904 207.343 45.5292 206.771L45.6419 206.627L48.6407 208.909C48.8943 208.53 48.9949 208.126 48.9426 207.699C48.8903 207.271 48.6729 206.911 48.2905 206.619C47.8316 206.268 47.3325 206.136 46.7891 206.216L46.8012 205.632C47.4653 205.552 48.1013 205.74 48.7051 206.196ZM45.8874 207.483C45.6499 207.802 45.5372 208.166 45.5533 208.578C45.5694 208.989 45.7707 209.341 46.1571 209.637C46.5234 209.917 46.9098 210.013 47.3164 209.925C47.7189 209.837 48.053 209.641 48.3147 209.333L45.8874 207.483Z" fill="white"/>
<path d="M44.3904 202.735C44.8936 203.154 45.115 203.702 45.0626 204.365L46.6647 202.483L47.2162 202.947L43.054 207.83L42.5026 207.367L42.9534 206.839C42.6636 206.915 42.3657 206.919 42.0558 206.851C41.7499 206.787 41.4721 206.651 41.2266 206.444C40.7556 206.048 40.5141 205.56 40.5061 204.977C40.498 204.397 40.7355 203.822 41.2185 203.258C41.7016 202.691 42.2329 202.363 42.8125 202.271C43.3922 202.183 43.9195 202.339 44.3904 202.735ZM44.1127 203.342C43.7625 203.05 43.3761 202.943 42.9534 203.027C42.5267 203.11 42.1443 203.35 41.8062 203.75C41.4641 204.15 41.291 204.565 41.2789 204.993C41.2709 205.42 41.4399 205.78 41.7861 206.076C41.9994 206.252 42.249 206.372 42.5428 206.428C42.8367 206.484 43.0983 206.476 43.3278 206.404L44.6883 204.809C44.7285 204.565 44.6923 204.305 44.5877 204.026C44.483 203.746 44.322 203.522 44.1127 203.342Z" fill="white"/>
<path d="M38.8117 198.686C39.4397 198.63 40.0113 198.838 40.5184 199.31C41.0256 199.781 41.2752 200.329 41.2631 200.956C41.251 201.584 41.0095 202.151 40.5345 202.655C40.0596 203.158 39.5081 203.438 38.8842 203.494C38.2562 203.546 37.6887 203.338 37.1815 202.867C36.6743 202.395 36.4248 201.847 36.4328 201.224C36.4409 200.601 36.6824 200.033 37.1573 199.529C37.6323 199.026 38.1798 198.742 38.8117 198.686ZM40.5466 200.932C40.5828 200.489 40.4259 200.105 40.0757 199.781C39.7255 199.458 39.331 199.33 38.8882 199.398C38.4454 199.466 38.055 199.681 37.7128 200.045C37.3707 200.409 37.1815 200.812 37.1453 201.252C37.109 201.692 37.266 202.075 37.6162 202.395C37.9664 202.719 38.3609 202.847 38.8077 202.783C39.2545 202.719 39.645 202.503 39.9831 202.143C40.3252 201.78 40.5104 201.376 40.5466 200.932Z" fill="white"/>
<path d="M35.257 194.302L35.7642 194.818L32.8821 197.611L34.5807 199.342L37.4628 196.548L37.97 197.064L34.629 200.297L31.916 197.535L35.257 194.302Z" fill="white"/>
<path d="M32.8784 191.52C33.3131 192.008 33.458 192.579 33.3091 193.231L35.1647 191.596L35.6477 192.136L30.8295 196.38L30.3465 195.841L30.8657 195.381C30.5679 195.413 30.27 195.377 29.9761 195.265C29.6823 195.157 29.4287 194.981 29.2154 194.746C28.8048 194.286 28.6357 193.77 28.7122 193.195C28.7887 192.619 29.1067 192.084 29.6662 191.592C30.2257 191.101 30.7973 190.849 31.385 190.841C31.9686 190.833 32.4678 191.061 32.8784 191.52ZM32.5161 192.08C32.2142 191.74 31.8439 191.58 31.4132 191.604C30.9825 191.628 30.5679 191.812 30.1734 192.16C29.7789 192.507 29.5454 192.891 29.473 193.315C29.4005 193.734 29.5173 194.118 29.8232 194.458C30.0083 194.662 30.2378 194.813 30.5196 194.913C30.8013 195.013 31.063 195.041 31.3005 195.001L32.8743 193.615C32.9468 193.379 32.9508 193.115 32.8864 192.827C32.822 192.535 32.7012 192.288 32.5161 192.08Z" fill="white"/>
<path d="M30.2906 188.695L30.7253 189.234L27.0905 192.14L26.6357 191.58L29.4131 189.358L25.1021 189.69L24.6553 189.138L28.2901 186.233L28.7449 186.792L25.9152 189.054L30.2906 188.695Z" fill="white"/>
<path d="M27.0382 184.586L27.5413 185.266L25.3234 185.346C25.4965 185.657 25.5489 185.973 25.4764 186.297C25.4039 186.62 25.2148 186.896 24.9008 187.124C24.5667 187.368 24.2125 187.46 23.8421 187.408C23.4718 187.356 23.1458 187.144 22.8761 186.78L21.4189 184.806L25.1826 182.068L25.6092 182.648L24.1521 183.707L24.9048 184.73L27.0382 184.586ZM24.623 185.417L23.6409 184.087L22.3609 185.018L23.343 186.349C23.4919 186.549 23.665 186.664 23.8703 186.696C24.0756 186.728 24.2688 186.672 24.462 186.533C24.6552 186.393 24.768 186.225 24.8002 186.025C24.8364 185.825 24.776 185.621 24.623 185.417Z" fill="white"/>
<path d="M23.5237 179.642L23.9262 180.238L20.5812 182.468L21.338 183.583L20.8107 183.935L18.8906 181.101L19.4179 180.75L20.1787 181.873L23.5237 179.642Z" fill="white"/>
<path d="M21.9217 177.205L22.288 177.792L18.3111 180.218L17.9327 179.607L20.9677 177.752L16.6527 177.54L16.2783 176.937L20.2512 174.511L20.6296 175.122L17.5342 177.013L21.9217 177.205Z" fill="white"/>
<path d="M12.5068 173.068C13.2072 173.16 13.7264 173.516 14.0686 174.131C14.4067 174.743 14.4349 175.37 14.145 176.018L13.7023 175.854C13.9478 175.342 13.9317 174.839 13.662 174.355C13.3883 173.863 12.9697 173.588 12.4102 173.532L12.5068 173.068ZM19.2209 172.716L19.555 173.32L15.4693 175.558L15.1192 174.927L18.2387 173.216L13.9357 172.8L13.5896 172.181L17.6752 169.943L18.0254 170.574L14.8454 172.317L19.2209 172.716Z" fill="white"/>
<path d="M13.879 162.133L14.2977 163.029L12.6956 166.442L13.6335 166.718L15.5978 165.814L15.9359 166.538L10.0873 169.223L9.74913 168.5L12.7721 167.109L8.5496 165.93L8.12695 165.027L12.0355 166.17L13.879 162.133Z" fill="white"/>
<path d="M12.8203 159.232C13.0658 159.835 13.0094 160.423 12.6472 160.986L14.9496 160.063L15.2193 160.731L9.2418 163.125L8.97211 162.457L9.61615 162.197C9.32231 162.129 9.05664 161.994 8.81512 161.794C8.57361 161.594 8.39247 161.346 8.27172 161.05C8.04228 160.483 8.05838 159.939 8.32404 159.42C8.58971 158.9 9.06872 158.505 9.76106 158.229C10.4534 157.953 11.0773 157.905 11.6328 158.093C12.1963 158.285 12.5908 158.66 12.8203 159.232ZM12.2889 159.64C12.1199 159.22 11.826 158.948 11.4114 158.824C10.9968 158.7 10.546 158.736 10.0549 158.932C9.56382 159.128 9.21765 159.412 9.00431 159.787C8.795 160.159 8.77487 160.559 8.94796 160.978C9.05261 161.234 9.21765 161.454 9.45111 161.642C9.68458 161.83 9.91804 161.942 10.1596 161.986L12.1118 161.202C12.2607 161.006 12.3533 160.759 12.3895 160.467C12.4258 160.175 12.3936 159.895 12.2889 159.64Z" fill="white"/>
<path d="M13.3799 155.995L12.7238 156.103C12.7318 155.979 12.7157 155.847 12.6634 155.707C12.607 155.551 12.5305 155.431 12.4259 155.351C12.3212 155.271 12.1723 155.227 11.967 155.215L11.1982 155.159L7.39835 158.54L7.14074 157.809L10.2321 155.091L6.11027 154.904L5.84863 154.16L11.9187 154.5C12.5869 154.536 13.0377 154.864 13.2672 155.471C13.3316 155.655 13.3678 155.827 13.3799 155.995Z" fill="white"/>
<path d="M4.63281 150.236L5.24063 150.048L5.98932 152.458L9.83746 151.283L10.0508 151.97L5.59082 153.333L4.63281 150.236Z" fill="white"/>
<path d="M9.10158 148.529L8.52194 148.681C8.46559 148.469 8.28043 148.333 7.96646 148.269C7.64846 148.205 7.15335 148.217 6.47711 148.301L4.17869 148.593L3.35352 145.476L7.86582 144.301L8.05099 144.996L4.15454 146.011L4.63355 147.822L6.38051 147.586C7.23386 147.47 7.87387 147.49 8.29653 147.642C8.71918 147.794 8.98887 148.089 9.10158 148.529Z" fill="white"/>
<path d="M6.20232 139.485C6.74975 139.797 7.09593 140.292 7.23681 140.968C7.37769 141.643 7.26499 142.234 6.89466 142.742C6.52032 143.25 5.99703 143.573 5.31676 143.717C4.6365 143.861 4.02466 143.773 3.48125 143.461C2.93784 143.146 2.59167 142.654 2.45078 141.979C2.3099 141.303 2.41456 140.708 2.78488 140.2C3.1552 139.693 3.67849 139.369 4.35875 139.229C5.03902 139.085 5.65489 139.173 6.20232 139.485ZM6.32308 142.31C6.60887 141.967 6.70145 141.563 6.60485 141.099C6.50421 140.636 6.25465 140.308 5.85615 140.108C5.45765 139.912 5.01085 139.864 4.51976 139.968C4.02868 140.072 3.64226 140.292 3.35647 140.636C3.07067 140.98 2.98212 141.379 3.07872 141.839C3.17936 142.302 3.42892 142.634 3.82742 142.834C4.22995 143.034 4.67272 143.082 5.15575 142.982C5.65086 142.878 6.03729 142.658 6.32308 142.31Z" fill="white"/>
<path d="M6.2387 135.64C6.35141 136.315 6.21052 136.903 5.82007 137.399C5.42962 137.894 4.88621 138.202 4.19387 138.314C3.50153 138.426 2.88969 138.31 2.36238 137.962C1.83507 137.614 1.51708 137.103 1.40437 136.427C1.28764 135.72 1.46072 135.12 1.92765 134.621L2.44289 135.021C2.08866 135.376 1.95583 135.796 2.03634 136.283C2.11684 136.763 2.34628 137.119 2.72465 137.351C3.10303 137.582 3.55386 137.658 4.07311 137.574C4.59237 137.49 4.99892 137.275 5.28471 136.935C5.57051 136.595 5.67516 136.184 5.59466 135.704C5.51415 135.224 5.25251 134.869 4.80168 134.637L5.15993 134.093C5.76372 134.417 6.12197 134.933 6.2387 135.64Z" fill="white"/>
<path d="M7.5672 133.086L6.89901 133.05C6.93524 132.93 6.94731 132.799 6.92719 132.651C6.90706 132.487 6.85473 132.355 6.7702 132.255C6.68567 132.155 6.54881 132.079 6.35158 132.023L5.61496 131.803L1.17108 134.293L1.07447 133.522L4.68512 131.532L0.700122 130.469L0.603516 129.689L6.45623 131.32C7.10028 131.5 7.4706 131.911 7.56318 132.559C7.59538 132.747 7.59136 132.922 7.5672 133.086Z" fill="white"/>
<path d="M5.05973 126.872L5.12011 127.587L1.10693 127.919L1.21963 129.258L0.583645 129.309L0.297852 125.908L0.933842 125.856L1.04655 127.203L5.05973 126.872Z" fill="white"/>
<path d="M4.13749 120.993C4.62454 121.392 4.88216 121.936 4.91436 122.627C4.94656 123.319 4.73322 123.882 4.2824 124.318C3.83157 124.757 3.25596 124.989 2.56361 125.017C1.87127 125.045 1.27956 124.861 0.796527 124.462C0.313497 124.062 0.0558807 123.518 0.0236786 122.827C-0.00852338 122.136 0.204815 121.572 0.651618 121.136C1.10245 120.697 1.67403 120.465 2.36638 120.437C3.05872 120.409 3.65043 120.597 4.13749 120.993ZM3.79131 123.802C4.12944 123.51 4.29045 123.127 4.27032 122.655C4.25019 122.184 4.05698 121.816 3.69471 121.556C3.33244 121.296 2.90173 121.176 2.39858 121.196C1.89542 121.216 1.47679 121.372 1.1427 121.664C0.808603 121.956 0.647593 122.335 0.667719 122.807C0.687845 123.279 0.881057 123.646 1.24333 123.91C1.6056 124.174 2.0363 124.294 2.53141 124.274C3.03054 124.25 3.45319 124.094 3.79131 123.802Z" fill="white"/>
<path d="M0 119.286L0.0120758 118.567L1.32431 118.587C1.74293 118.595 2.03275 118.503 2.19779 118.311C2.36282 118.123 2.44735 117.827 2.4554 117.424C2.46345 116.924 2.38697 116.516 2.22596 116.193L0.0523283 116.157L0.064404 115.437L4.72967 115.513L4.7176 116.233L2.81365 116.201C3.01491 116.612 3.10749 117.084 3.09944 117.615C3.09139 118.215 2.95856 118.651 2.71302 118.918C2.46345 119.186 2.073 119.314 1.53765 119.306L0 119.286Z" fill="white"/>
<path d="M4.77755 113.411L4.74132 114.13L0.0800781 113.899L0.116305 113.179L2.05648 113.275L2.17723 110.861L0.237063 110.765L0.27329 110.046L4.93453 110.274L4.89831 110.993L2.81322 110.889L2.69247 113.303L4.77755 113.411Z" fill="white"/>
<path d="M5.37706 105.322L5.30863 106.037L4.78132 105.989C5.17177 106.417 5.34083 106.949 5.28045 107.58C5.2402 108.008 5.06711 108.367 4.75717 108.667C4.45125 108.967 4.0608 109.091 3.58582 109.047C3.09876 108.999 2.73649 108.803 2.50303 108.459C2.26956 108.116 2.16893 107.724 2.21321 107.288C2.27761 106.633 2.53523 106.145 2.99411 105.822L2.15685 105.742C1.84691 105.714 1.59734 105.798 1.40413 105.997C1.21092 106.197 1.09821 106.469 1.06601 106.813C1.01368 107.352 1.18274 107.844 1.57319 108.287L1.04186 108.575C0.574929 108.036 0.377691 107.396 0.450146 106.661C0.502474 106.133 0.671535 105.714 0.957328 105.41C1.24312 105.106 1.6537 104.974 2.18906 105.026L5.37706 105.322ZM4.78534 107.268C4.8417 106.697 4.68874 106.253 4.33049 105.945L3.45701 105.862C3.04643 106.097 2.81297 106.505 2.75662 107.076C2.72441 107.408 2.79284 107.688 2.9619 107.92C3.13096 108.152 3.36443 108.279 3.66632 108.307C3.96017 108.335 4.21376 108.251 4.42307 108.056C4.63238 107.86 4.75314 107.6 4.78534 107.268Z" fill="white"/>
<path d="M5.63516 103.276L5.5144 104.111L3.8721 102.632C3.77951 102.976 3.59033 103.236 3.31259 103.42C3.03082 103.603 2.70075 103.667 2.31835 103.615C1.9118 103.559 1.58978 103.38 1.36034 103.084C1.1309 102.788 1.04637 102.412 1.11077 101.965L1.45694 99.5429L6.07793 100.19L5.9773 100.902L4.19009 100.65L4.01298 101.905L5.63516 103.276ZM3.32064 102.193L3.5541 100.558L1.98425 100.338L1.75079 101.973C1.71456 102.221 1.75884 102.424 1.88362 102.588C2.0084 102.752 2.18551 102.848 2.423 102.88C2.66049 102.912 2.85773 102.872 3.02277 102.752C3.1878 102.632 3.28441 102.448 3.32064 102.193Z" fill="white"/>
<path d="M7.54742 92.6768L7.39849 93.3802L3.45776 92.5489L2.95058 94.9149L6.8913 95.7461L6.74237 96.4495L2.17773 95.4864L2.98278 91.7136L7.54742 92.6768Z" fill="white"/>
<path d="M8.23602 87.6291C8.5822 88.1526 8.67075 88.7481 8.49364 89.4156C8.31653 90.083 7.94621 90.5626 7.3867 90.8463C6.82316 91.1341 6.2073 91.186 5.53508 91.0142C4.86286 90.8383 4.35568 90.4906 4.00951 89.9671C3.66334 89.4435 3.58283 88.848 3.75994 88.1806C3.93705 87.5132 4.30335 87.0336 4.86286 86.7498C5.42237 86.4621 6.03824 86.4061 6.71045 86.582C7.38267 86.7578 7.88985 87.1055 8.23602 87.6291ZM7.0687 90.2109C7.47928 90.031 7.74494 89.7113 7.8657 89.2517C7.98646 88.7921 7.914 88.3884 7.64431 88.0327C7.37462 87.6771 6.99625 87.4373 6.51322 87.3094C6.03019 87.1815 5.57936 87.2094 5.17281 87.3853C4.76626 87.5651 4.50059 87.8809 4.37983 88.3405C4.25908 88.8001 4.33153 89.2077 4.60122 89.5634C4.87091 89.9231 5.24526 90.1629 5.72427 90.2868C6.21132 90.4187 6.65812 90.3907 7.0687 90.2109Z" fill="white"/>
<path d="M10.2481 86.9977L8.54541 86.4621C8.57359 86.2223 8.49309 86.0025 8.3039 85.8027C8.11471 85.6029 7.72024 85.3671 7.12853 85.0913L5.02734 84.1201L6.00146 81.0468L9.84155 82.2497L10.0026 81.7382L11.7455 82.2817L11.5281 82.9691L10.393 82.6134L9.33436 85.9506L10.4695 86.3063L10.2481 86.9977ZM5.82434 83.7125L7.42639 84.4359C8.17509 84.7836 8.62995 85.1592 8.79096 85.5669L9.62418 82.9411L6.3919 81.93L5.82434 83.7125Z" fill="white"/>
<path d="M11.8466 81.9899L10.1681 81.3744C10.2083 81.1386 10.1399 80.9148 9.95874 80.703C9.77761 80.4952 9.39923 80.2394 8.81557 79.9357L6.7627 78.8646L7.88574 75.8392L11.6655 77.222L11.8546 76.7184L13.5654 77.3459L13.3158 78.0213L12.2008 77.6137L10.9812 80.8988L12.0962 81.3065L11.8466 81.9899ZM7.58385 78.4969L9.14967 79.2962C9.87824 79.6799 10.313 80.0756 10.4579 80.4912L11.4159 77.9094L8.23594 76.7424L7.58385 78.4969Z" fill="white"/>
<path d="M13.7258 74.2326C13.4521 74.868 13.0214 75.2997 12.4297 75.5315C11.838 75.7633 11.206 75.7353 10.5378 75.4515C9.9099 75.1877 9.4631 74.7641 9.19743 74.1766C8.93177 73.5931 8.92774 73.0016 9.18536 72.4021C9.45505 71.7707 9.88575 71.367 10.4775 71.1792C11.0692 70.9913 11.6971 71.0433 12.3613 71.323L12.5303 71.395L11.0531 74.848C11.4878 74.9959 11.9064 74.9919 12.309 74.836C12.7115 74.6802 13.0093 74.3804 13.1985 73.9368C13.424 73.4053 13.432 72.8937 13.2187 72.3941L13.7902 72.2582C14.0479 72.8817 14.0237 73.5372 13.7258 74.2326ZM11.7655 71.8426C11.3952 71.6947 11.0128 71.6787 10.6143 71.7946C10.2158 71.9105 9.92198 72.1943 9.73279 72.6419C9.55166 73.0656 9.55568 73.4612 9.74084 73.8289C9.926 74.1966 10.2037 74.4684 10.57 74.6402L11.7655 71.8426Z" fill="white"/>
<path d="M16.0251 69.2168C15.7393 69.8043 15.2644 70.156 14.6002 70.2719L16.8342 71.343L16.5202 71.9905L10.7158 69.2088L11.0298 68.5614L11.6577 68.8611C11.5128 68.6014 11.4323 68.3136 11.4202 68.0019C11.4082 67.6901 11.4685 67.3904 11.6094 67.1026C11.8791 66.5511 12.2937 66.1994 12.8573 66.0435C13.4208 65.8917 14.0407 65.9756 14.7129 66.2993C15.3851 66.623 15.84 67.0507 16.0734 67.5862C16.3149 68.1218 16.2948 68.6653 16.0251 69.2168ZM15.365 69.1009C15.5622 68.6933 15.5703 68.2936 15.3811 67.9059C15.1959 67.5183 14.8618 67.2105 14.3869 66.9827C13.9119 66.7549 13.4651 66.691 13.0464 66.7869C12.6278 66.8828 12.3179 67.1386 12.1206 67.5462C11.9999 67.794 11.9475 68.0658 11.9677 68.3616C11.9878 68.6573 12.0562 68.9091 12.1891 69.1129L14.085 70.0201C14.3345 69.9962 14.576 69.9002 14.8216 69.7284C15.0631 69.5605 15.2442 69.3487 15.365 69.1009Z" fill="white"/>
<path d="M17.4658 66.0755L17.019 66.8828L15.7913 63.8534L12.9414 64.6368L13.3842 63.8374L16.1576 63.0781L14.3543 62.0909L14.7045 61.4595L16.4957 62.4426L15.6746 59.713L16.1173 58.9137L16.9667 61.7352L20.207 61.1437L19.7602 61.9511L17.1116 62.4067L17.2404 62.8503L18.7901 63.6976L18.4399 64.329L16.8942 63.4817L16.4474 63.6096L17.4658 66.0755Z" fill="white"/>
<path d="M22.8072 57.0352L22.3161 57.8186L19.6474 58.1383L19.8889 59.1894L21.02 59.8888L20.6376 60.5003L16.6768 58.0544L17.0592 57.4429L19.1684 58.7458L18.3553 55.3767L18.8383 54.6013L19.5427 57.4549L22.8072 57.0352Z" fill="white"/>
<path d="M25.3027 53.4024L24.8921 53.9979L24.4534 53.6981C24.5862 54.2616 24.4735 54.8052 24.1153 55.3287C23.8697 55.6804 23.5437 55.9162 23.1291 56.0281C22.7145 56.14 22.3119 56.0641 21.9175 55.7963C21.5149 55.5206 21.2936 55.1769 21.2573 54.7612C21.2211 54.3456 21.3258 53.9579 21.5753 53.5982C21.9497 53.0547 22.4166 52.7509 22.9761 52.691L22.2838 52.2194C22.0302 52.0475 21.7685 51.9996 21.4988 52.0835C21.2332 52.1674 20.9997 52.3473 20.8025 52.635C20.4925 53.0826 20.3999 53.5942 20.5288 54.1697L19.925 54.1657C19.7801 53.4703 19.9169 52.8149 20.3396 52.2034C20.6415 51.7638 20.9917 51.48 21.3942 51.3521C21.7967 51.2242 22.2153 51.3082 22.6581 51.6079L25.3027 53.4024ZM23.8335 54.8212C24.1595 54.3456 24.2441 53.886 24.0831 53.4423L23.3585 52.9508C22.8835 52.9628 22.481 53.2025 22.155 53.6781C21.9658 53.9539 21.8893 54.2297 21.9215 54.5134C21.9577 54.7972 22.0986 55.025 22.3482 55.1928C22.5937 55.3607 22.8554 55.4087 23.1331 55.3367C23.4108 55.2688 23.6443 55.0969 23.8335 54.8212Z" fill="white"/>
<path d="M29.9754 47.3076L29.5245 47.8711L26.3607 45.3932L24.8512 47.2916L28.0151 49.7695L27.5683 50.333L23.9053 47.4634L26.3084 44.434L29.9754 47.3076Z" fill="white"/>
<path d="M32.4433 44.6099C32.0125 45.1015 31.4611 45.3173 30.7889 45.2573L32.6646 46.8719L32.1897 47.4155L27.3271 43.2191L27.8021 42.6755L28.3254 43.1271C28.253 42.8394 28.253 42.5396 28.3254 42.2359C28.3938 41.9322 28.5347 41.6604 28.7481 41.4166C29.1546 40.953 29.6497 40.7212 30.2334 40.7212C30.817 40.7212 31.3927 40.965 31.9562 41.4526C32.5197 41.9402 32.8458 42.4717 32.9263 43.0472C33.0108 43.6267 32.8498 44.1463 32.4433 44.6099ZM31.8354 44.3261C32.1333 43.9824 32.246 43.5987 32.1695 43.1791C32.0931 42.7555 31.8515 42.3718 31.453 42.0281C31.0545 41.6844 30.6399 41.5045 30.2092 41.4885C29.7785 41.4726 29.4122 41.6364 29.1144 41.9801C28.9332 42.1879 28.8125 42.4357 28.7481 42.7275C28.6877 43.0192 28.6917 43.279 28.7642 43.5068L30.3541 44.8776C30.5997 44.9176 30.8613 44.8896 31.1431 44.7897C31.4249 44.6858 31.6543 44.5339 31.8354 44.3261Z" fill="white"/>
<path d="M36.593 39.1226C36.6413 39.746 36.4239 40.3095 35.9449 40.8091C35.4659 41.3087 34.9064 41.5485 34.2785 41.5285C33.6465 41.5085 33.079 41.2607 32.5758 40.7811C32.0726 40.3015 31.7989 39.754 31.7546 39.1306C31.7104 38.5071 31.9277 37.9476 32.4067 37.448C32.8898 36.9484 33.4412 36.7086 34.0732 36.7286C34.7011 36.7486 35.2687 36.9924 35.7718 37.472C36.271 37.9436 36.5447 38.4951 36.593 39.1226ZM34.3107 40.8171C34.7575 40.8571 35.1479 40.7052 35.474 40.3655C35.804 40.0258 35.9369 39.6341 35.8765 39.1945C35.8161 38.7549 35.6028 38.3632 35.2405 38.0195C34.8782 37.6758 34.4757 37.484 34.0329 37.44C33.5902 37.4 33.2037 37.5519 32.8737 37.8916C32.5436 38.2353 32.4108 38.627 32.4671 39.0666C32.5235 39.5062 32.7368 39.8979 33.0951 40.2416C33.4573 40.5853 33.8639 40.7771 34.3107 40.8171Z" fill="white"/>
<path d="M39.8459 36.9524C39.3428 37.428 38.7712 37.6558 38.1352 37.6318C37.4992 37.6079 36.9316 37.3361 36.4325 36.8125C35.9616 36.321 35.7241 35.7534 35.716 35.114C35.708 34.4745 35.9414 33.931 36.4164 33.4794C36.9155 33.0078 37.4751 32.804 38.0909 32.8719C38.7108 32.9359 39.2663 33.2316 39.7614 33.7512L39.8862 33.883L37.145 36.4648C37.4831 36.7726 37.8695 36.9324 38.3002 36.9484C38.7309 36.9644 39.1254 36.8085 39.4756 36.4768C39.8942 36.0812 40.1076 35.6096 40.1116 35.07L40.6912 35.1739C40.6832 35.8374 40.3974 36.4329 39.8459 36.9524ZM39.0087 33.987C38.7269 33.7032 38.3848 33.5393 37.9742 33.4874C37.5636 33.4354 37.1812 33.5793 36.827 33.915C36.4929 34.2307 36.3359 34.5944 36.356 35.0061C36.3802 35.4177 36.5251 35.7734 36.7908 36.0772L39.0087 33.987Z" fill="white"/>
<path d="M45.2641 31.9927L44.5637 32.5961L41.9191 32.1166L41.8346 33.1916L42.7081 34.1908L42.1606 34.6624L39.1055 31.1614L39.6529 30.6898L41.2791 32.5522L41.5085 29.0951L42.2009 28.4996L42.0238 31.4331L45.2641 31.9927Z" fill="white"/>
<path d="M47.1196 30.5259L46.552 30.9775L44.0322 27.8562L42.9776 28.6955L42.5791 28.1999L45.2639 26.0657L45.6624 26.5613L44.5998 27.4086L47.1196 30.5259Z" fill="white"/>
<path d="M51.5192 26.4854C51.4588 27.1088 51.1488 27.6244 50.5853 28.0361C50.0258 28.4437 49.4341 28.5876 48.8182 28.4597C48.1983 28.3318 47.6831 27.9881 47.2725 27.4326C46.8619 26.877 46.6848 26.2856 46.7492 25.6661C46.8136 25.0466 47.1236 24.5311 47.6831 24.1194C48.2426 23.7118 48.8303 23.5679 49.4502 23.6918C50.066 23.8157 50.5813 24.1594 50.9918 24.7149C51.4064 25.2704 51.5836 25.8619 51.5192 26.4854ZM48.9792 27.7643C49.4139 27.8802 49.8205 27.7963 50.2069 27.5165C50.5893 27.2367 50.7906 26.873 50.8067 26.4294C50.8228 25.9858 50.6819 25.5622 50.384 25.1625C50.0862 24.7589 49.7239 24.5031 49.2932 24.3872C48.8625 24.2713 48.4559 24.3552 48.0735 24.635C47.6911 24.9147 47.4899 25.2784 47.4697 25.722C47.4536 26.1697 47.5905 26.5893 47.8843 26.985C48.1782 27.3886 48.5445 27.6484 48.9792 27.7643Z" fill="white"/>
<path d="M55.468 24.523L53.2864 25.9618L50.7021 22.1051L52.8436 20.6943C53.1817 20.4705 53.5077 20.3866 53.8257 20.4385C54.1437 20.4905 54.4014 20.6663 54.5986 20.9621C54.7435 21.1819 54.8119 21.4097 54.7958 21.6455C54.7797 21.8813 54.7032 22.0851 54.5624 22.257C54.7918 22.173 55.0373 22.177 55.295 22.269C55.5526 22.3609 55.7538 22.5128 55.9028 22.7326C56.1121 23.0483 56.1805 23.364 56.1081 23.6917C56.0356 24.0115 55.8223 24.2912 55.468 24.523ZM53.8217 22.3729C54.0029 22.253 54.1115 22.1091 54.1478 21.9452C54.184 21.7814 54.1478 21.6175 54.0431 21.4577C53.9304 21.2858 53.7895 21.1859 53.6205 21.1539C53.4514 21.1219 53.2783 21.1659 53.0972 21.2858L51.6642 22.229L52.3928 23.3161L53.8217 22.3729ZM54.9931 24.0754C55.1863 23.9475 55.303 23.7957 55.3433 23.6118C55.3835 23.432 55.3433 23.2481 55.2225 23.0683C55.1138 22.9044 54.9609 22.8005 54.7717 22.7565C54.5825 22.7126 54.3893 22.7565 54.1961 22.8844L52.7389 23.8436L53.5359 25.0346L54.9931 24.0754Z" fill="white"/>
<path d="M60.4026 21.4816L59.7988 21.8253L57.4883 17.8008L58.1162 17.4451L59.8793 20.5185L60.2375 16.2421L60.8574 15.8904L63.1679 19.915L62.54 20.2707L60.7407 17.1374L60.4026 21.4816Z" fill="white"/>
<path d="M70.8436 16.1102L70.1915 16.418L68.6136 13.1368L68.8229 17.0654L68.5774 17.1813L65.6228 14.5516L67.2007 17.8328L66.5486 18.1405L64.54 13.9601L65.4014 13.5524L68.1829 16.0383L67.9655 12.3375L68.839 11.9258L70.8436 16.1102Z" fill="white"/>
<path d="M74.0963 14.8673C73.4523 15.1311 72.8404 15.143 72.2568 14.8953C71.6731 14.6475 71.2424 14.1919 70.9606 13.5244C70.699 12.897 70.6789 12.2855 70.9003 11.686C71.1216 11.0865 71.5362 10.6589 72.1441 10.4111C72.78 10.1473 73.3758 10.1593 73.9272 10.4391C74.4787 10.7188 74.8973 11.1904 75.171 11.8539L75.2435 12.0217L71.7536 13.4605C71.9589 13.8681 72.2608 14.1559 72.6593 14.3237C73.0578 14.4916 73.4804 14.4836 73.9272 14.2998C74.4626 14.08 74.8289 13.7163 75.0302 13.2127L75.5333 13.5124C75.2757 14.1239 74.7967 14.5755 74.0963 14.8673ZM74.3821 11.7979C74.2211 11.4342 73.9594 11.1585 73.5931 10.9666C73.2268 10.7748 72.8163 10.7708 72.3654 10.9586C71.9388 11.1345 71.661 11.4182 71.5362 11.8099C71.4115 12.2016 71.4155 12.5852 71.5523 12.9649L74.3821 11.7979Z" fill="white"/>
<path d="M79.2691 12.885C78.6492 13.1048 78.0656 13.0249 77.5101 12.6452L78.3513 14.9632L77.6711 15.207L75.4854 9.19215L76.1656 8.94836L76.3991 9.5998C76.4796 9.31205 76.6245 9.05227 76.8338 8.82047C77.0431 8.58866 77.3007 8.42081 77.6026 8.3089C78.1863 8.10108 78.7297 8.14105 79.2409 8.42081C79.7521 8.70457 80.1305 9.19615 80.3841 9.89155C80.6377 10.591 80.6578 11.2104 80.4485 11.754C80.2432 12.3015 79.8487 12.6772 79.2691 12.885ZM78.8746 12.3455C79.3053 12.1936 79.5911 11.9098 79.732 11.5062C79.8729 11.0985 79.8528 10.6509 79.6757 10.1553C79.4985 9.66375 79.2248 9.30405 78.8545 9.08024C78.4882 8.85644 78.0857 8.82446 77.659 8.97633C77.3974 9.06825 77.1719 9.22812 76.9747 9.45193C76.7775 9.67573 76.6527 9.90354 76.6044 10.1393L77.3169 12.1057C77.5101 12.2615 77.7516 12.3614 78.0494 12.4094C78.3393 12.4574 78.617 12.4374 78.8746 12.3455Z" fill="white"/>
<path d="M85.585 10.1154C85.3193 10.6829 84.8524 11.0705 84.1882 11.2704C83.524 11.4702 82.9202 11.4103 82.3809 11.0865C81.8415 10.7628 81.4671 10.2712 81.2659 9.6078C81.0646 8.94836 81.0968 8.33289 81.3625 7.76937C81.6281 7.20185 82.0951 6.81818 82.7592 6.61835C83.4234 6.41852 84.0272 6.47447 84.5666 6.7982C85.106 7.11792 85.4763 7.6095 85.6816 8.26894C85.8788 8.93237 85.8506 9.54385 85.585 10.1154ZM82.7592 10.483C83.1296 10.7348 83.5442 10.7908 83.999 10.6549C84.4539 10.515 84.7638 10.2393 84.9248 9.82761C85.0858 9.41596 85.0939 8.96834 84.949 8.49275C84.8041 8.01716 84.5465 7.65347 84.1802 7.40168C83.8139 7.1499 83.4033 7.09394 82.9484 7.23383C82.4936 7.37371 82.1836 7.64947 82.0146 8.06112C81.8495 8.47676 81.8375 8.92038 81.9824 9.38798C82.1273 9.86757 82.3889 10.2313 82.7592 10.483Z" fill="white"/>
<path d="M91.1961 9.25609L90.4917 9.43194L89.5015 5.55525L87.1427 6.15075L88.1329 10.0274L87.4284 10.2033L86.2812 5.71112L90.0449 4.76393L91.1961 9.25609Z" fill="white"/>
<path d="M94.8066 8.60863C94.1626 8.73652 93.595 8.57666 93.0999 8.12105L93.595 10.535L92.8866 10.6789L91.6025 4.40822L92.311 4.26435L92.4478 4.93977C92.5686 4.668 92.7497 4.4322 92.9953 4.23237C93.2368 4.03255 93.5145 3.90066 93.8325 3.83671C94.4403 3.71282 94.9717 3.82872 95.4386 4.18442C95.9015 4.53611 96.2074 5.07965 96.3564 5.80703C96.5053 6.53441 96.4369 7.14988 96.147 7.66144C95.8572 8.17301 95.4145 8.48474 94.8066 8.60863ZM94.5007 8.01314C94.9475 7.92122 95.2736 7.68542 95.4708 7.30575C95.668 6.92607 95.7163 6.47446 95.6117 5.96289C95.507 5.44734 95.2897 5.05567 94.9556 4.7839C94.6255 4.51214 94.2351 4.42021 93.7842 4.51214C93.5145 4.56809 93.265 4.69198 93.0355 4.88382C92.8101 5.07565 92.6531 5.28747 92.5686 5.51128L92.9872 7.56153C93.1563 7.74137 93.3817 7.87726 93.6675 7.96918C93.9493 8.05311 94.227 8.06909 94.5007 8.01314Z" fill="white"/>
<path d="M98.5579 7.80533L97.8696 7.90924L97.1611 3.32916L97.8776 3.22125L98.421 6.71826L100.297 2.84957L101.001 2.74166L101.71 7.32175L100.993 7.42965L100.442 3.8647L98.5579 7.80533Z" fill="white"/>
<path d="M103.774 7.07396L102.929 7.16188L103.976 5.21954C103.617 5.21155 103.316 5.09565 103.07 4.87184C102.825 4.64803 102.68 4.34429 102.639 3.96461C102.595 3.55696 102.692 3.20526 102.925 2.91351C103.159 2.61777 103.505 2.44591 103.96 2.39795L106.411 2.13818L106.906 6.74624L106.186 6.82217L105.996 5.0397L104.728 5.17158L103.774 7.07396ZM104.266 4.58009L105.916 4.40424L105.747 2.84157L104.096 3.01742C103.847 3.0454 103.658 3.13732 103.529 3.29319C103.4 3.45305 103.348 3.64888 103.372 3.88468C103.396 4.12048 103.489 4.30033 103.646 4.42822C103.803 4.55611 104.008 4.60806 104.266 4.58009Z" fill="white"/>
<path d="M109.845 6.53441L109.12 6.58237L108.855 2.58979L107.506 2.67771L107.466 2.04625L110.899 1.82244L110.94 2.4539L109.579 2.54183L109.845 6.53441Z" fill="white"/>
<path d="M112.779 6.38654L112.083 6.40253L111.962 1.77049L112.686 1.75051L112.779 5.28748L115.13 1.68656L115.846 1.66658L115.967 6.29862L115.243 6.3186L115.15 2.71368L112.779 6.38654Z" fill="white"/>
<path d="M118.032 6.31061L117.336 6.29862L117.429 1.66658L118.153 1.68257L118.081 5.21955L120.596 1.73053L121.313 1.74651L121.22 6.37856L120.496 6.36257L120.568 2.75765L118.032 6.31061ZM121.087 0.367693C120.657 0.923219 120.089 1.19099 119.381 1.179C118.68 1.16701 118.117 0.871263 117.698 0.299751L118.06 7.62939e-06C118.387 0.467608 118.829 0.707403 119.389 0.715396C119.956 0.727386 120.403 0.503577 120.737 0.0519632L121.087 0.367693Z" fill="white"/>
</g>
</svg>
