<svg width="722" height="722" viewBox="0 0 722 722" fill="none" xmlns="http://www.w3.org/2000/svg">
<g opacity="0.3">
<path d="M360.75 -0.000488281V49.4995M360.75 672V721.5" stroke="white"/>
<path d="M453.118 12.2917L440.307 60.1051M279.192 661.394L266.38 709.207" stroke="white"/>
<path d="M453.118 12.2917L440.307 60.1051M279.192 661.394L266.38 709.207" stroke="white"/>
<path d="M541.125 48.3308L516.375 91.1991M205.125 630.3L180.375 673.168" stroke="white"/>
<path d="M614.838 105.661L579.836 140.662M139.662 580.836L104.661 615.838" stroke="white"/>
<path d="M672.168 180.374L629.3 205.124M90.1992 516.374L47.3309 541.124" stroke="white"/>
<path d="M709.207 267.38L661.394 280.192M60.1051 441.307L12.2918 454.118" stroke="white"/>
<path d="M721.5 360.749L672 360.749M49.4995 360.749L-0.000488281 360.749" stroke="white"/>
<path d="M709.207 454.118L661.394 441.307M60.1051 280.192L12.2918 267.38" stroke="white"/>
<path d="M673.168 541.125L630.3 516.375M91.1992 205.124L48.3309 180.374" stroke="white"/>
<path d="M615.838 615.838L580.837 580.836M140.663 140.663L105.661 105.661" stroke="white"/>
<path d="M541.125 673.168L516.375 630.3M205.124 91.1991L180.374 48.3308" stroke="white"/>
<path d="M454.118 709.207L441.307 661.394M280.192 60.1051L267.38 12.2917" stroke="white"/>
</g>
</svg>
