<svg width="51" height="121" viewBox="0 0 51 121" fill="none" xmlns="http://www.w3.org/2000/svg">
<g>
<path d="M36.0482 90.2126C34.9694 92.6938 35.0593 110.844 35.2391 119.609H5.30371C7.46119 101.809 7.05669 94.6625 5.30371 90.2126C3.55073 85.7627 0.57564 70.3905 0.710485 64.5922C0.845329 58.7939 2.46346 53.8046 3.81191 51.2426C4.89066 49.193 8.61509 49.2528 10.3425 49.539C9.56248 46.4485 9.06893 43.506 9.47535 41.9383C10.4193 38.2975 16.0154 37.6233 17.8357 40.0505C19.6561 42.4777 19.5078 43.0171 20.2629 43.0171C21.2068 43.0171 16.7698 28.5888 15.1453 22.7904C13.5207 16.9921 12.1498 10.6545 11.3632 5.93491C10.5766 1.21536 16.2176 -1.61643 19.0493 4.58641C20.5326 9.2161 23.7419 19.1767 24.7128 21.9814C25.9264 25.4874 30.9326 40.0505 32.1377 40.0505C33.0007 40.0505 34.4216 19.2845 35.0874 8.49694C35.3287 4.58641 36.7025 2.29409 38.8715 2.29409C41.029 2.29409 42.4018 4.04703 42.9084 7.95756C43.4149 11.8681 43.1012 18.7144 43.3298 20.9026C43.7666 25.0828 43.15 43.6343 43.3298 49.539C45.4867 50.0868 46.9549 50.6578 47.3751 52.591C48.0494 55.6925 50.072 63.6483 49.1281 67.9633C48.1842 72.2783 37.3966 87.1112 36.0482 90.2126Z" fill="#FF7A5C"/>
<path d="M40.9026 57.5803C40.0566 58.0033 38.7129 58.1775 37.2618 57.9077M37.2618 57.9077C37.2169 59.7314 37.2888 63.891 37.936 65.9407M37.2618 57.9077C34.5794 57.409 32.059 55.3163 30.5437 53.1304C29.2553 51.2719 28.6919 49.1824 29.1711 47.1973C30.115 43.2868 34.1604 46.6579 38.7451 48.276C40.4719 48.8855 42.0266 49.208 43.3298 49.539M43.3298 49.539C45.4867 50.0868 46.9549 50.6578 47.3751 52.591C48.0494 55.6925 50.072 63.6483 49.1281 67.9633C48.1842 72.2783 37.3966 87.1112 36.0482 90.2126C34.9694 92.6938 35.0593 110.844 35.2391 119.609H5.30371C7.46119 101.809 7.05669 94.6625 5.30371 90.2126C3.55073 85.7628 0.57564 70.3905 0.710485 64.5922C0.845329 58.7939 2.46346 53.8046 3.81191 51.2426C4.89066 49.193 8.61509 49.2528 10.3425 49.539M43.3298 49.539C43.15 43.6343 43.7666 25.0828 43.3298 20.9026C43.1012 18.7144 43.4149 11.8681 42.9084 7.95756C42.4018 4.04703 41.029 2.29409 38.8715 2.29409C36.7025 2.29409 35.3287 4.58641 35.0874 8.49694C34.4216 19.2845 33.0007 40.0505 32.1377 40.0505C30.9326 40.0505 25.9264 25.4874 24.7128 21.9814C23.7419 19.1767 20.5326 9.2161 19.0493 4.58641C16.2176 -1.61643 10.5766 1.21536 11.3632 5.93491C12.1498 10.6545 13.5207 16.9921 15.1453 22.7904C16.7698 28.5888 21.2068 43.0171 20.2629 43.0171C19.5078 43.0171 19.6561 42.4777 17.8357 40.0505C16.0154 37.6233 10.4193 38.2975 9.47535 41.9383C9.06893 43.506 9.56248 46.4485 10.3425 49.539M10.3425 49.539C11.374 53.6261 12.9064 57.9718 13.5207 59.7378C13.9277 60.908 14.4499 62.5965 15.1453 64.1877M3.00287 58.9287C3.44534 59.8874 4.25075 61.5477 5.15446 63.2438M15.1453 64.1877C16.2928 66.8136 17.9119 69.1744 20.2629 68.5027C23.2835 67.6397 23.2295 63.5213 22.825 61.5699C22.1957 58.9815 21.3417 55.9622 20.2629 52.0517C19.8634 50.6033 19.0207 47.5587 18.7061 45.4911M15.1453 64.1877C16.6311 68.233 16.8919 71.0648 14.3298 72.2784C11.7678 73.492 9.47535 70.1208 7.45274 67.1542C6.71954 66.0788 5.90326 64.6491 5.15446 63.2438M2.59834 62.7044C3.08882 62.8842 4.28671 63.2438 5.15446 63.2438" stroke="#3700D4" stroke-width="0.705882" stroke-linecap="round" stroke-linejoin="round"/>
</g>
</svg>
