<svg width="135" height="121" viewBox="0 0 135 121" fill="none" xmlns="http://www.w3.org/2000/svg">
<g>
<path d="M87.3236 85.8656C88.9498 89.1179 88.0012 109.716 87.3236 119.609L117.272 119.609C116.821 112.336 115.917 96.7068 115.917 92.3703C115.917 85.8656 117.55 81.4911 119.314 75.844C121.079 70.197 124.319 54.4262 124.997 50.9028C125.674 47.3794 130.959 31.1176 132.179 26.1035C133.399 21.0895 128.588 19.7264 126.706 23.9617C125.622 26.4009 125.132 27.3232 122.964 33.1503C118.085 46.4308 117.814 46.2953 116.73 45.3467C115.646 44.3981 117.408 32.6083 117.814 29.0849C118.221 25.5615 119.305 15.6689 119.441 10.5194C119.576 5.36982 114.02 5.77636 113.478 9.02872C112.936 12.2811 111.31 20.5475 110.361 24.8839C109.413 29.2204 108.057 39.7906 107.109 39.7906C106.16 39.7906 106.16 30.7111 106.025 26.1035C105.889 21.496 105.618 10.5194 105.212 5.09876C104.805 -0.321851 99.1134 0.220234 98.5714 3.47259C98.0293 6.72494 97.4872 16.753 97.3517 21.7671C97.2162 26.7811 97.7583 39.113 95.319 39.113C92.8797 39.113 91.9311 32.4727 90.576 26.1035C89.4919 21.0082 87.3236 13.591 86.375 10.5194C84.3423 4.82776 79.4773 7.13148 79.8703 11.0614C80.1413 13.7717 81.2255 22.5802 81.7675 26.6456C82.3096 30.7111 84.3774 40.7331 85.0199 44.5336C86.375 52.5499 83.3937 57.814 81.2255 56.4589C77.8376 54.0196 76.7535 48.1925 72.688 43.1784C68.6226 38.1644 64.0151 36.8092 62.3889 39.113C60.7627 41.4167 65.1554 43.5062 66.7262 48.6676C69.1968 56.7852 73.246 63.2008 75.5498 68.0793C77.8535 72.9579 85.2909 81.8001 87.3236 85.8656Z" fill="#FF7A5C"/>
<path d="M86.375 58.5499C98.8237 63.1382 105.388 69.9852 104.824 81.844M87.3236 119.609C88.0012 109.716 88.9498 89.1179 87.3236 85.8656C85.2909 81.8001 77.8535 72.9579 75.5498 68.0793C73.246 63.2008 69.1968 56.7852 66.7262 48.6676C65.1554 43.5062 60.7627 41.4167 62.3889 39.113C64.0151 36.8092 68.6226 38.1644 72.688 43.1784C76.7535 48.1925 77.8376 54.0196 81.2255 56.4589C83.3937 57.814 86.375 52.5499 85.0199 44.5336C84.3774 40.7331 82.3096 30.7111 81.7675 26.6456C81.2255 22.5802 80.1413 13.7717 79.8703 11.0614C79.4773 7.13148 84.3423 4.82776 86.375 10.5194C87.3236 13.591 89.4919 21.0082 90.576 26.1036C91.9311 32.4727 92.8797 39.113 95.319 39.113C97.7583 39.113 97.2162 26.7811 97.3517 21.7671C97.4872 16.753 98.0293 6.72494 98.5713 3.47259C99.1134 0.220234 104.805 -0.321851 105.212 5.09876C105.618 10.5194 105.889 21.496 106.025 26.1036C106.16 30.7111 106.16 39.7906 107.109 39.7906C108.057 39.7906 109.413 29.2204 110.361 24.8839C111.31 20.5475 112.936 12.2811 113.478 9.02872C114.02 5.77636 119.576 5.36982 119.441 10.5194C119.305 15.6689 118.221 25.5615 117.814 29.0849C117.408 32.6083 115.646 44.3981 116.73 45.3467C117.814 46.2953 118.085 46.4308 122.964 33.1503C125.132 27.3232 125.622 26.4009 126.706 23.9617C128.588 19.7264 133.399 21.0895 132.179 26.1036C130.959 31.1176 125.674 47.3794 124.997 50.9028C124.319 54.4262 121.079 70.197 119.314 75.844C117.55 81.4911 115.917 85.8656 115.917 92.3703C115.917 96.7068 116.821 112.336 117.272 119.609L87.3236 119.609Z" stroke="#3700D4" stroke-width="0.705882" stroke-linecap="round" stroke-linejoin="round"/>
<path d="M35.5208 89.6633C34.4233 92.1908 34.5148 110.68 34.6977 119.608L5.60846 119.608C7.8034 101.476 8.48909 94.1963 6.70568 89.6633C3.55043 81.6434 0.588593 68.0974 0.725778 62.1908C0.862963 56.2843 2.17745 52.5755 3.54931 49.9656C4.64679 47.8777 8.85078 46.6521 10.6081 46.9436C9.81462 43.7955 9.59092 42.0845 10.0044 40.4876C10.9647 36.7788 16.5893 37.4656 18.4012 38.5645C18.4416 35.5325 18.7144 32.7731 19.333 31.4217C20.842 28.125 27.1525 28.2624 28.5244 30.1854C30.8822 33.4907 31.6125 42.6673 32.4905 42.6673C33.0611 42.6673 32.6802 32.61 32.4905 22.1967C32.3883 16.5866 32.4905 12.581 32.4905 7.02029C32.4905 -0.946743 39.7438 -1.09768 40.4595 7.02028C40.75 10.3149 41.0596 12.9934 42.0199 22.1967C42.7881 29.5593 42.7459 42.2153 42.9289 48.2302C45.1231 48.7882 46.6168 49.3698 47.0444 51.3392C47.7303 54.4985 49.7881 62.6029 48.8278 66.9985C47.8675 71.3941 36.8927 86.504 35.5208 89.6633Z" fill="#FF7A5C"/>
<path d="M40.4595 56.4216C39.5988 56.8526 38.2318 57.03 36.7555 56.7552M36.7555 56.7552C36.3495 56.6796 35.9351 56.5698 35.5208 56.4216C33.1568 55.3396 31.1919 53.7248 29.9207 51.8887M36.7555 56.7552C36.7098 58.6129 36.783 62.8502 37.4414 64.9381M42.9289 48.2302C45.1231 48.7882 46.6168 49.3698 47.0444 51.3392C47.7303 54.4985 49.7881 62.6029 48.8278 66.9985C47.8675 71.3941 36.8927 86.504 35.5208 89.6633C34.4233 92.1908 34.5148 110.68 34.6977 119.608L5.60846 119.608C7.8034 101.476 8.48909 94.1963 6.70568 89.6633C3.55043 81.6434 0.588593 68.0974 0.725778 62.1908C0.862963 56.2843 2.17745 52.5755 3.54931 49.9656C4.64679 47.8777 8.85078 46.6521 10.6081 46.9436M42.9289 48.2302C41.603 47.893 40.0213 47.5645 38.2645 46.9436C34.4827 45.6071 31.0615 43.0967 29.3906 44.318M42.9289 48.2302C42.7459 42.2153 42.7881 29.5593 42.0199 22.1967C41.0596 12.9934 40.75 10.3149 40.4595 7.02028C39.7438 -1.09768 32.4905 -0.946743 32.4905 7.02029C32.4905 12.581 32.3883 16.5866 32.4905 22.1967C32.6802 32.61 33.0611 42.6673 32.4905 42.6673C31.6125 42.6673 30.8822 33.4907 28.5244 30.1854C27.1525 28.2624 20.842 28.125 19.333 31.4217C18.7144 32.7731 18.4416 35.5325 18.4012 38.5645M29.9207 51.8887C28.61 49.9954 28.0369 47.867 28.5244 45.8447C28.7061 45.0911 29.0007 44.603 29.3906 44.318M29.9207 51.8887C30.3793 54.3062 30.3078 55.7348 30.3078 57.7952C30.3078 61.9823 26.0542 63.8772 23.5858 60.4858M18.4012 38.5645C18.343 42.929 18.7663 47.8582 19.333 49.9656C20.2933 53.537 20.7981 53.537 22.6255 58.6194C22.8932 59.3642 23.2199 59.9831 23.5858 60.4858M18.4012 38.5645C16.5893 37.4656 10.9647 36.7788 10.0044 40.4876C9.59092 42.0845 9.81462 43.7955 10.6081 46.9436M23.5858 60.4858C23.9973 62.4735 24.0522 66.6689 20.9793 67.548C19.333 68.0189 16.9402 65.8274 15.7727 63.1524M10.6081 46.9436C11.6575 51.107 13.495 56.8204 14.12 58.6194C14.5341 59.8115 15.0653 61.5315 15.7727 63.1524M3.54931 56.7552C3.99945 57.7317 4.6891 59.0218 5.60849 60.7495M15.7727 63.1524C17.2844 67.2733 17.5496 70.1579 14.9431 71.3941C11.5147 73.0202 7.15322 63.6523 5.60849 60.7495M3.008 60.2001C3.50699 60.3832 4.72568 60.7495 5.60849 60.7495M29.3906 44.318C29.3929 42.2383 29.3104 37.7259 28.9611 36.3142" stroke="#3700D4" stroke-width="0.705882" stroke-linecap="round" stroke-linejoin="round"/>
</g>
</svg>
