<svg width="51" height="121" viewBox="0 0 51 121" fill="none" xmlns="http://www.w3.org/2000/svg">
<g>
<path d="M40.2646 88.2689C39.0809 93.9719 39.7714 111.538 40.2646 119.609H8.79011C8.92461 111.673 9.19363 95.1824 9.19363 92.7075C9.19363 89.6575 7.49399 85.6923 5.89932 81.972L5.831 81.8125C4.21695 78.0464 0.450731 56.9289 0.719744 52.4902C0.988756 48.0515 1.25777 46.0339 4.62042 44.6889C7.31054 43.6128 9.4178 45.1372 10.1352 46.0339C9.68681 42.8058 8.79011 35.4079 8.79011 31.6418C8.79011 26.9341 8.38659 16.5771 8.79011 11.3314C9.19362 6.08561 14.8429 6.75817 15.2464 10.1208C15.6499 13.4835 15.9189 21.0158 16.726 25.7235C17.533 30.4312 18.7436 42.4023 19.4161 42.4023C20.0886 42.4023 19.8196 30.5657 20.0886 26.6651C20.3576 22.7644 20.6266 10.6585 21.2992 5.00921C21.9717 -0.640039 28.697 0.0325391 28.697 5.00921C28.697 8.77538 29.1005 14.6936 29.1005 19.6704C29.1005 24.6471 29.504 41.0572 31.1181 41.5953C32.3287 41.9988 33.8082 34.466 34.4808 29.0858C35.0188 24.7816 36.9019 15.5907 37.9779 11.3314C39.323 6.22013 45.6038 7.0272 45.3757 12.2729C45.2412 15.3665 42.2821 41.5952 41.8786 46.0339C41.5558 49.5849 41.8786 58.197 41.4752 63.6543C44.0308 67.1514 41.7442 81.1401 40.2646 88.2689Z" fill="#FF7A5C"/>
<path d="M41.4751 63.6543C44.0308 67.1514 41.7442 81.1401 40.2646 88.2689C39.0809 93.9719 39.7714 111.538 40.2646 119.609H8.79011C8.92461 111.673 9.19363 95.1824 9.19363 92.7075C9.19363 89.6139 7.44505 85.5787 5.831 81.8125C4.21695 78.0464 0.450731 56.9289 0.719744 52.4902C0.988756 48.0515 1.25777 46.0339 4.62042 44.6889C7.31054 43.6128 9.4178 45.1372 10.1352 46.0339C9.68681 42.8058 8.79011 35.4079 8.79011 31.6418C8.79011 26.9341 8.38659 16.5771 8.79011 11.3314C9.19362 6.08561 14.8429 6.75817 15.2464 10.1208C15.6499 13.4835 15.9189 21.0158 16.726 25.7235C17.533 30.4312 18.7436 42.4023 19.4161 42.4023C20.0886 42.4023 19.8196 30.5657 20.0886 26.6651C20.3576 22.7644 20.6266 10.6585 21.2992 5.00921C21.9717 -0.640039 28.697 0.0325391 28.697 5.00921C28.697 8.77538 29.1005 14.6936 29.1005 19.6704C29.1005 24.6471 29.504 41.0572 31.1181 41.5953C32.3287 41.9988 33.8082 34.466 34.4808 29.0858C35.0188 24.7816 36.9019 15.5907 37.9779 11.3314C39.323 6.22013 45.6038 7.0272 45.3757 12.2729C45.2412 15.3665 42.2821 41.5952 41.8786 46.0339C41.5558 49.5849 41.8786 58.197 41.4751 63.6543ZM41.4751 63.6543C38.9195 60.1571 31.3872 54.5079 27.621 53.1628C23.8549 51.8177 16.995 50.7416 13.2288 49.6656C9.46263 48.5895 6.738 48.7241 5.831 51.4142C4.92399 54.1043 6.99153 56.319 11.0768 58.005C12.0416 58.3427 13.4079 58.8153 14.8429 59.3025M28.697 67.4204C26.5036 66.3591 25.1663 64.8883 24.078 63.6543M24.078 63.6543C23.0975 62.5424 22.3192 61.6226 21.2992 61.3676C20.195 61.0916 17.409 60.1738 14.8429 59.3025M24.078 63.6543C21.5825 67.4204 17.3985 76.6206 20.6267 83.2921M2.19931 52.4902C2.91669 52.8937 4.64736 54.1312 5.831 55.8529M5.831 55.8529C7.31054 58.005 9.73165 62.3091 13.2288 61.3676C14.3049 61.0779 15.0671 59.7667 14.8429 59.3025M5.831 55.8529C5.3378 55.9425 4.1093 56.0681 3.14086 55.8529" stroke="#3700D4" stroke-width="0.705882" stroke-linecap="round" stroke-linejoin="round"/>
</g>
</svg>
