<svg width="73" height="121" viewBox="0 0 73 121" fill="none" xmlns="http://www.w3.org/2000/svg">
<g>
<path d="M45.7557 85.8656C44.1295 89.1179 45.0781 109.716 45.7557 119.609L15.807 119.609C16.2587 112.336 17.1621 96.7068 17.1621 92.3703C17.1621 85.8656 15.5296 81.4911 13.7649 75.844C12.0002 70.197 8.76018 54.4262 8.08261 50.9028C7.40504 47.3794 2.11997 31.1176 0.900338 26.1035C-0.319295 21.0895 4.55924 20.5475 5.64335 22.9867C6.72747 25.426 7.94711 27.3232 10.1153 33.1503C14.9939 46.4308 15.2649 46.2953 16.349 45.3467C17.4331 44.3981 15.6714 32.6083 15.2649 29.0849C14.8584 25.5615 13.7742 15.6689 13.6387 10.5194C13.5032 5.36982 19.0593 5.77636 19.6014 9.02872C20.1434 12.2811 21.7696 20.5475 22.7182 24.8839C23.6668 29.2204 25.022 39.7906 25.9706 39.7906C26.9192 39.7906 26.9192 30.7111 27.0547 26.1035C27.1902 21.496 27.4612 10.5194 27.8678 5.09876C28.2743 -0.321851 33.9659 0.220234 34.508 3.47259C35.05 6.72494 35.5921 16.753 35.7276 21.7671C35.8631 26.7811 35.3211 39.113 37.7603 39.113C40.1996 39.113 41.1482 32.4727 42.5034 26.1035C43.5875 21.0082 45.7557 13.591 46.7043 10.5194C48.737 4.82776 53.602 7.13148 53.209 11.0614C52.938 13.7717 51.8539 22.5802 51.3118 26.6456C50.7698 30.7111 48.7019 40.7331 48.0595 44.5336C46.7043 52.5499 49.6856 57.814 51.8539 56.4589C55.2417 54.0196 56.3259 48.1925 60.3913 43.1784C64.4567 38.1644 69.0642 36.8092 70.6904 39.113C72.3166 41.4167 67.7091 44.3981 66.625 49.6831C65.5409 54.9682 60.9334 61.8795 58.6296 66.758C56.3259 71.6365 47.7884 81.8001 45.7557 85.8656Z" fill="#FF7A5C"/>
<path d="M43.7649 58.9029C39.059 61.6087 29.7884 69.9852 30.3531 81.844M45.7557 119.609C45.0781 109.716 44.1295 89.1179 45.7557 85.8656C47.7884 81.8001 56.3259 71.6365 58.6296 66.758C60.9334 61.8795 65.5409 54.9682 66.625 49.6831C67.7091 44.3981 72.3166 41.4167 70.6904 39.113C69.0642 36.8092 64.4567 38.1644 60.3913 43.1784C56.3259 48.1925 55.2417 54.0196 51.8539 56.4589C49.6856 57.814 46.7043 52.5499 48.0595 44.5336C48.7019 40.7331 50.7698 30.7111 51.3118 26.6456C51.8539 22.5802 52.938 13.7717 53.209 11.0614C53.602 7.13148 48.737 4.82776 46.7043 10.5194C45.7557 13.591 43.5875 21.0082 42.5034 26.1036C41.1482 32.4727 40.1996 39.113 37.7603 39.113C35.3211 39.113 35.8631 26.7811 35.7276 21.7671C35.5921 16.753 35.05 6.72494 34.508 3.47259C33.9659 0.220234 28.2743 -0.321851 27.8678 5.09876C27.4612 10.5194 27.1902 21.496 27.0547 26.1036C26.9192 30.7111 26.9192 39.7906 25.9706 39.7906C25.022 39.7906 23.6668 29.2204 22.7182 24.8839C21.7696 20.5475 20.1434 12.2811 19.6014 9.02872C19.0593 5.77636 13.5032 5.36982 13.6387 10.5194C13.7742 15.6689 14.8584 25.5615 15.2649 29.0849C15.6714 32.6083 17.4331 44.3981 16.349 45.3467C15.2649 46.2953 14.9939 46.4308 10.1153 33.1503C7.94711 27.3232 6.72747 25.426 5.64335 22.9867C4.55924 20.5475 -0.319295 21.0895 0.900338 26.1036C2.11997 31.1176 7.40504 47.3794 8.08261 50.9028C8.76018 54.4262 12.0002 70.197 13.7649 75.844C15.5296 81.4911 17.1621 85.8656 17.1621 92.3703C17.1621 96.7068 16.2587 112.336 15.807 119.609L45.7557 119.609Z" stroke="#3700D4" stroke-width="0.705882" stroke-linecap="round" stroke-linejoin="round"/>
</g>
</svg>
