<svg width="58" height="121" viewBox="0 0 58 121" fill="none" xmlns="http://www.w3.org/2000/svg">
<g>
<path d="M49.9032 89.0404C48.7221 94.7315 49.4111 112.261 49.9032 120.315H19.0314C19.1656 112.396 19.7288 104.221 19.0314 97.0207C18.4573 91.0931 15.1917 87.5464 14.1178 80.4324C13.5075 76.3894 12.3065 65.0136 11.2327 56.1548C9.8457 52.6649 6.77642 45.0678 5.59524 42.5981C4.11876 39.5109 1.83698 32.665 0.897403 29.5782C-0.205727 25.9542 3.71609 23.5389 6.13214 27.5653C8.54819 31.5916 10.9643 36.8264 11.7696 38.5713C12.575 40.3162 17.0044 49.0409 18.4945 48.504C19.9846 47.9671 19.8529 46.759 19.5547 44.6114C19.1072 41.39 18.4945 36.2899 18.4945 32.5316C18.4945 27.8337 18.0918 17.4984 18.4945 12.2636C18.9488 6.35731 24.4702 7.16266 24.9373 11.0556C25.34 14.4112 25.6084 21.9278 26.4138 26.6257C27.2191 31.3236 28.4272 43.2696 29.0983 43.2696C29.7694 43.2696 29.501 31.4578 29.7694 27.5653C30.0379 23.6727 30.3063 11.5921 30.9774 5.95466C31.6486 0.317204 38.3598 0.317193 38.3598 5.95466C38.3598 9.71296 38.7625 15.6189 38.7625 20.5852C38.7625 25.5515 39.1652 41.9274 40.7759 42.4643C41.9839 42.8669 43.4604 35.3499 44.1315 29.9809C44.6684 25.6857 46.5475 16.5141 47.6213 12.2636C48.9636 7.16304 55.2313 7.96842 55.0037 13.2032C54.8695 16.2903 51.9165 42.4642 51.5139 46.8937C51.1917 50.4372 51.1112 60.0925 51.1113 64.4772C53.6616 67.967 51.3797 81.9265 49.9032 89.0404Z" fill="#FF7A5C"/>
<path d="M51.1113 64.4772C53.6616 67.967 51.3797 81.9265 49.9032 89.0404C48.7221 94.7315 49.4111 112.261 49.9032 120.315H19.0314C19.1656 112.396 19.7288 104.221 19.0314 97.0207C18.4573 91.0931 15.1917 87.5464 14.1178 80.4324C13.5075 76.3893 12.3065 65.0136 11.2327 56.1548C9.8457 52.6649 6.77642 45.0678 5.59524 42.5981C4.11876 39.5109 1.83698 32.665 0.897403 29.5782C-0.205727 25.9542 3.71609 23.5389 6.13214 27.5653C8.54819 31.5916 10.9643 36.8264 11.7696 38.5713C12.575 40.3162 17.0044 49.0409 18.4945 48.504C19.9846 47.9671 19.8529 46.759 19.5547 44.6114C19.1072 41.39 18.4945 36.2899 18.4945 32.5316C18.4945 27.8337 18.0918 17.4984 18.4945 12.2636C18.9488 6.35731 24.4702 7.16266 24.9373 11.0556C25.34 14.4112 25.6084 21.9278 26.4138 26.6257C27.2191 31.3236 28.4272 43.2696 29.0983 43.2696C29.7694 43.2696 29.501 31.4578 29.7694 27.5653C30.0379 23.6727 30.3063 11.5921 30.9774 5.95466C31.6486 0.317204 38.3598 0.317193 38.3598 5.95466C38.3598 9.71296 38.7625 15.6189 38.7625 20.5852C38.7625 25.5515 39.1652 41.9274 40.7759 42.4643C41.9839 42.8669 43.4604 35.3499 44.1315 29.9809C44.6684 25.6857 46.5475 16.5141 47.6213 12.2636C48.9636 7.16304 55.2313 7.96842 55.0037 13.2032C54.8695 16.2903 51.9165 42.4642 51.5139 46.8937C51.1917 50.4372 51.1112 60.0925 51.1113 64.4772ZM51.1113 64.4772C48.561 60.9873 41.0444 55.3499 37.2861 54.0076C33.5278 52.6654 26.6822 51.5915 22.9239 50.5177C19.1656 49.4439 16.7575 49.3089 16.0785 51.3227C15.3995 53.3365 16.7222 55.4832 20.7627 58.1682C24.1183 60.398 28.3061 61.0943 30.0242 61.5238C31.0421 61.7783 32.772 63.3676 33.7505 64.4772M38.3599 68.2354C36.171 67.1763 34.8365 65.7087 33.7505 64.4772M33.7505 64.4772C31.2602 68.2355 27.085 77.4164 30.3064 84.074" stroke="#3700D4" stroke-width="0.705882" stroke-linecap="round" stroke-linejoin="round"/>
</g>
</svg>
