<svg width="51" height="121" viewBox="0 0 51 121" fill="none" xmlns="http://www.w3.org/2000/svg">
<g>
<path d="M35.1477 89.6637C34.0502 92.1912 34.1417 110.68 34.3246 119.609H3.86954C6.06447 101.477 5.65295 94.1967 3.86954 89.6637C0.714286 81.6439 0.215497 68.0979 0.352683 62.1913C0.489868 56.2847 2.49769 52.5759 3.86954 49.966C4.96702 47.8781 8.7561 47.9391 10.5135 48.2306C9.71994 45.0825 9.21782 42.0849 9.6313 40.488C10.5916 36.7793 16.2162 37.4661 18.0281 38.565C18.0685 35.533 18.3413 32.7735 18.9599 31.4221C20.4689 28.1254 26.7794 28.2628 28.1513 30.1859C30.5091 33.4911 31.2394 43.0205 32.1174 43.0205C32.9954 43.0205 31.1694 31.1474 31.1694 7.38373C31.1694 -0.583304 37.377 -0.445976 38.5774 4.36176C39.2633 7.10901 40.0864 11.7793 41.0467 20.9826C41.815 28.3452 42.3728 42.2157 42.5558 48.2306C44.75 48.7887 46.2437 49.3703 46.6713 51.3397C47.3572 54.499 49.415 62.6034 48.4547 66.999C47.4944 71.3946 36.5196 86.5044 35.1477 89.6637Z" fill="#FF7A5C"/>
<path d="M40.0864 56.4221C39.2257 56.853 37.8587 57.0305 36.3824 56.7557M36.3824 56.7557C35.9764 56.6801 35.562 56.5703 35.1477 56.4221C32.7837 55.34 30.8188 53.7252 29.5476 51.8891M36.3824 56.7557C36.3367 58.6133 36.4099 62.8507 37.0683 64.9386M42.5558 48.2306C44.75 48.7887 46.2437 49.3703 46.6713 51.3397C47.3572 54.499 49.415 62.6034 48.4547 66.999C47.4944 71.3946 36.5196 86.5044 35.1477 89.6638C34.0502 92.1912 34.1417 110.68 34.3246 119.609H3.86954C6.06447 101.477 5.65295 94.1967 3.86954 89.6638C0.714286 81.6439 0.215497 68.0979 0.352683 62.1913C0.489868 56.2847 2.49769 52.5759 3.86954 49.966C4.96702 47.8781 8.7561 47.9391 10.5135 48.2306M42.5558 48.2306C41.2299 47.8935 39.6482 47.5649 37.8914 46.9441C34.1096 45.6076 30.6884 43.0971 29.0175 44.3184M42.5558 48.2306C42.3728 42.2157 41.815 28.3452 41.0467 20.9826C40.0864 11.7793 39.2633 7.10901 38.5774 4.36176C37.377 -0.445976 31.1694 -0.583304 31.1694 7.38373C31.1694 31.1474 32.9954 43.0205 32.1174 43.0205C31.2394 43.0205 30.5091 33.4911 28.1513 30.1859C26.7794 28.2628 20.4689 28.1254 18.9599 31.4221C18.3413 32.7735 18.0685 35.533 18.0281 38.565M29.5476 51.8891C28.2369 49.9959 27.6638 47.8674 28.1513 45.8452C28.333 45.0915 28.6276 44.6034 29.0175 44.3184M29.5476 51.8891C30.0062 54.3067 29.9347 55.7353 29.9347 57.7957C29.9347 61.9827 25.6811 63.8777 23.2127 60.4862M18.0281 38.565C17.9699 42.9294 18.3932 47.8586 18.9599 49.966C19.9202 53.5375 20.425 53.5375 22.2524 58.6199C22.5201 59.3646 22.8468 59.9835 23.2127 60.4862M18.0281 38.565C16.2162 37.4661 10.5916 36.7793 9.6313 40.488C9.21782 42.0849 9.71994 45.0825 10.5135 48.2306M23.2127 60.4862C23.6242 62.474 23.6791 66.6693 20.6062 67.5484C18.2143 68.2327 16.5671 65.8278 15.3996 63.1528M10.5135 48.2306C11.5629 52.394 13.1219 56.8209 13.7469 58.6199C14.161 59.8119 14.6922 61.532 15.3996 63.1528M3.17621 58.197C3.62636 59.1735 4.316 60.4636 5.2354 62.1913M15.3996 63.1528C16.9113 67.2737 17.1766 70.1583 14.57 71.3946C11.9635 72.6308 9.6313 69.1968 7.57358 66.1748C6.82764 65.0793 5.99719 63.6228 5.2354 62.1913M2.6349 61.6419C3.1339 61.825 4.35258 62.1913 5.2354 62.1913M29.0175 44.3184C29.0198 42.2387 28.9373 37.7264 28.588 36.3146" stroke="#3700D4" stroke-width="0.705882" stroke-linecap="round" stroke-linejoin="round"/>
</g>
</svg>
