<svg width="42" height="17" viewBox="0 0 42 17" fill="none" xmlns="http://www.w3.org/2000/svg">
<path d="M1 2.40126L1 13.4404C3.14145 13.4404 8.66325 13.5385 9.94813 13.931C11.5542 14.4216 12.4915 15.4029 15.2448 15.8935C17.9981 16.3841 23.7766 16.6846 25.2565 15.8935C26.1742 15.4029 26.6331 14.6669 26.6331 13.4404C27.3214 13.5221 28.4686 13.6857 29.1569 12.9498C29.6158 12.4591 30.0747 11.2326 29.6158 10.4966C30.3042 10.5784 31.7726 10.4966 32.1397 9.51536C32.5985 8.28879 32.1869 7.0185 29.6801 6.32628C31.6686 6.57159 37.2469 6.74435 38.5467 6.74435C40.1902 6.74435 40.8897 6.32628 40.9897 5.59034C41.0897 4.8544 40.4768 3.87313 38.3908 3.58417C36.3048 3.29522 29.5832 3.10391 26.83 2.61328C26.1352 2.38065 23.8865 1.73067 22.7968 1.42001C22.1085 1.22379 20.2526 0.619316 18.6465 1.35526C17.0404 2.0912 13.6786 3.07582 11.843 3.32114C10.0075 3.56645 1.22937 2.40126 1 2.40126Z" fill="#050012"/>
<path d="M26.6331 13.4404C26.6331 14.6669 26.1742 15.4029 25.2565 15.8935C23.7766 16.6846 17.9981 16.3841 15.2448 15.8935C12.4915 15.4029 11.5542 14.4216 9.94813 13.931C8.66326 13.5385 3.14145 13.4404 1 13.4404L1 2.40126C1.22936 2.40126 10.0075 3.56645 11.843 3.32114C13.6786 3.07582 17.0404 2.0912 18.6465 1.35526C20.2526 0.619316 22.1085 1.22379 22.7968 1.42001C23.944 1.74709 26.3761 2.45031 26.9268 2.64656C27.6151 2.89187 29.6802 3.62781 31.2862 3.87313C32.8923 4.11844 31.7452 6.32628 29.6801 6.32628M26.6331 13.4404C27.3214 13.5221 28.4686 13.6857 29.1569 12.9498C29.6158 12.4591 30.0747 11.2326 29.6158 10.4966M26.6331 13.4404C25.6389 12.868 22.4757 11.6251 21.1908 11.2326C20.9391 11.1557 20.71 11.1029 20.5025 11.0714M29.6158 10.4966C30.3042 10.5784 31.7726 10.4966 32.1397 9.51536C32.5985 8.28879 32.1869 7.0185 29.6801 6.32628M29.6158 10.4966C27.8568 9.84244 23.3016 8.48504 22.5674 8.28879M29.6801 6.32628C31.6686 6.57159 37.2469 6.74435 38.5467 6.74435C40.1902 6.74435 40.8897 6.32628 40.9897 5.59034C41.0897 4.8544 40.4768 3.87313 38.3908 3.58417C36.3048 3.29522 29.5832 3.10391 26.83 2.61328M29.6801 6.32628C27.6957 6.32628 25.6706 5.93175 23.7146 5.59034C22.7969 5.34503 22.0196 5.28985 21.6497 6.08097C21.4813 6.44109 21.4983 6.76817 21.61 7.06221M22.7873 14.7088C22.4814 14.5453 21.8672 14.2945 20.7659 13.7057C19.3893 12.9698 18.8964 12.7044 18.8964 11.9685C18.8964 11.3479 19.3859 10.9017 20.5025 11.0714M20.5025 11.0714C20.1965 10.6345 19.6765 9.56442 20.0436 8.77942C20.5025 7.79816 21.6497 8.04348 22.5674 8.28879M22.5674 8.28879C22.277 7.97822 21.8026 7.56936 21.61 7.06221M21.61 7.06221C21.4202 7.30752 20.5024 7.79818 17.9786 8.77942C15.4547 9.76066 13.8486 9.76069 12.472 9.51536" stroke="#FF7A5C" stroke-linecap="round" stroke-linejoin="round"/>
</svg>
