<svg width="77" height="56" viewBox="0 0 77 56" fill="none" xmlns="http://www.w3.org/2000/svg">
<path d="M39.4708 35.9376C36.4729 35.8068 32.7447 38.9338 31.7304 39.5202C31.0826 39.919 30.8091 40.7849 30.3226 41.6817M46.2366 38.9924C43.7114 41.3701 38.9412 40.7362 35.7877 40.7627M35.7877 40.7627C34.1767 40.7763 32.638 40.885 31.1966 41.6817C29.6106 42.5581 29.3829 43.8329 30.0101 44.7479M35.7877 40.7627L50.84 31.5331M30.3226 41.6817C29.9752 42.322 29.5193 42.9782 28.7408 43.4912C27.7246 44.161 26.9312 44.2616 26.4453 44.0368M30.3226 41.6817L48.3732 30.3479M26.4453 44.0368C25.9101 43.7892 25.7478 43.147 26.0716 42.4356C27.0325 40.3245 26.7391 38.6155 28.2814 37.1075C29.6694 35.7503 32.7474 32.9475 34.5678 32.0373C36.3694 31.1365 43.2223 29.6111 45.9449 29.7619C46.5637 29.7962 47.1725 29.8147 48.3732 30.3479M26.4453 44.0368L22.7083 46.7083L21 49.0708L24.2031 48.3168L29.5416 45.0358M30.0101 44.7479L29.5416 45.0358M30.0101 44.7479C30.7342 45.8042 32.4129 45.598 33.6183 45.7618M29.5416 45.0358C29.5416 45.2505 28.9149 47.3114 30.3226 47.5125C31.1755 47.6343 31.8052 47.5347 32.371 47.169M33.6183 45.7618C33.2604 46.2373 32.7391 46.9311 32.371 47.169M33.6183 45.7618C35.8971 46.0715 37.8247 45.8912 40.0988 45.9041M32.371 47.169C32.0329 47.8197 31.6343 49.1914 32.7447 49.4729C33.3133 49.617 33.9176 49.4575 34.5064 49.0635M36.9832 45.9435C36.3528 47.279 35.3552 48.4957 34.5064 49.0635M34.5064 49.0635C34.5954 49.3173 34.9762 49.8549 35.7877 49.9755C36.802 50.1263 37.6028 49.8247 38.3502 48.7692C38.9481 47.9247 39.6539 46.4576 40.0988 45.9041M40.0988 45.9041C43.0527 45.9207 46.2913 46.6078 49.1855 47.9084C51.5345 48.964 55.9313 48.8639 59.2412 48.512C63.9925 48.0069 71.271 50.5452 76.5206 51.7349V38.716C70.488 38.3641 67.1675 38.8366 62.854 37.5096C59.7874 36.399 54.792 33.5335 50.84 31.5331M48.3732 30.3479L54.8996 26.25L56.341 28.1601L50.84 31.5331" stroke="#FF7A5C" stroke-width="0.875" stroke-linecap="round" stroke-linejoin="round"/>
<path d="M62.125 55.5625H0.4375V49.875H62.125V55.5625Z" fill="#140C28" stroke="#786DF5" stroke-width="0.875" stroke-linecap="round" stroke-linejoin="round"/>
<path d="M6.30838 34.3922C6.33152 36.3677 2.14508 37.6847 1.04947 35.9287C-0.265253 33.5143 6.28069 32.0284 6.30838 34.3922ZM6.30838 34.3922V22.5395M6.30838 22.5395V20.125C8.13439 20.9298 11.3482 22.5395 12.0055 24.7344C12.6629 26.9294 11.7864 28.9049 11.7864 28.9049C11.7864 27.9537 11.4358 25.788 10.0334 24.7344C8.63106 23.6808 6.96574 22.8321 6.30838 22.5395Z" stroke="#786DF5" stroke-width="0.875" stroke-linecap="round" stroke-linejoin="round"/>
<path d="M76.3084 23.8922C76.3315 25.8677 72.1451 27.1847 71.0495 25.4287C69.7347 23.0143 76.2807 21.5284 76.3084 23.8922ZM76.3084 23.8922V12.0395V9.625" stroke="#786DF5" stroke-width="0.875" stroke-linecap="round" stroke-linejoin="round"/>
<path d="M23.8084 15.1422C23.8315 17.1177 19.6451 18.4347 18.5495 16.6787C17.2347 14.2643 23.7807 12.7784 23.8084 15.1422ZM23.8084 15.1422V4.375M32.8125 18.2047C32.8356 20.1802 28.6492 21.4972 27.5536 19.7412C26.2389 17.3268 32.7848 15.8409 32.8125 18.2047ZM32.8125 18.2047V7.4375M32.8125 7.4375V3.9375L23.8084 0.875V4.375M32.8125 7.4375L23.8084 4.375" stroke="#786DF5" stroke-width="0.875" stroke-linecap="round" stroke-linejoin="round"/>
<path d="M49.875 0.875V11.375M52.5 0.875V11.375M48.125 5.25L54.25 2.625M48.125 8.3125L54.25 5.6875" stroke="#786DF5" stroke-width="0.875" stroke-linecap="round" stroke-linejoin="round"/>
</svg>
