<svg width="77" height="56" viewBox="0 0 77 56" fill="none" xmlns="http://www.w3.org/2000/svg">
<g clip-path="url(#clip0)">
<path d="M34.2066 19.2499L24.5387 3.05934M34.2066 19.2499C26.5181 21.0713 18.1684 25.0655 12.2502 29.7499C9.89597 31.8519 6.22632 34.8065 7.20786 36.7499M34.2066 19.2499L40.7321 28.9454M24.5387 3.05934L23.7004 1.45734C23.2785 1.00471 24.1954 0.377846 24.5902 1.05092C25.7648 3.05336 27.4002 5.82113 29.7502 9.62494M24.5387 3.05934C19.3933 3.95909 3.18333 11.6275 0.875171 17.4999L7.20786 36.7499M45.3866 35.4374C49.6198 42.1617 51.6252 45.0624 51.6252 45.0624L50.7353 45.4689L43.6617 34.7828M42.207 29.1176C38.3842 23.0285 33.0899 15.0308 29.7502 9.62494M7.20786 36.7499C7.78129 37.8853 8.96823 38.6624 13.5627 37.6249C20.5699 36.0427 23.2831 32.8738 28.8752 29.7499M29.7502 9.62494C39.0551 4.81239 45.0627 3.93744 52.7662 3.93744C67.2037 3.93744 74.4373 15.8351 76.5627 20.1249C69.329 16.9423 65.3001 15.2958 58.6252 14.8749C68.2502 21.4374 70.4377 24.9374 73.0627 29.7499C63.0002 24.4999 58.1877 19.2499 38.7071 23.6249M42.8752 12.6874L44.6 7.87494L47.6877 18.3749" stroke="#786DF5" stroke-width="0.875" stroke-linecap="round" stroke-linejoin="round"/>
<path d="M31.6051 29.5182C26.6034 29.3676 23.6676 31.4101 22.9331 29.6236C22.0517 27.4797 28.4457 25.6862 30.8926 25.5156C33.4471 25.3374 35.6657 25.2572 38.0627 25.375M47.7772 29.8514C46.9126 29.7892 36.6985 28.7732 34.2208 27.4888C30.4889 25.5542 30.6142 29.1989 32.5904 30.6654M32.5904 30.6654C31.9651 30.5048 30.6166 30.558 30.2255 32.0554C29.8344 33.5529 31.7162 35.3411 32.706 36.048M32.5904 30.6654C33.3507 31.2295 34.085 31.7307 34.884 32.1626M56.5191 41.5873C52.49 41.9908 48.7466 39.8931 46.8941 36.75C45.5069 34.3964 41.5469 34.0839 38.8063 33.5399C37.2161 33.2243 35.9883 32.7596 34.884 32.1626M35.5455 39.8931C35.1216 40.9028 35.3504 42.4795 39.5433 44.515C43.7361 46.5504 46.4937 49.176 55.0576 48.5788C58.7279 48.3229 68.7561 53.6678 71.4534 54.7865L76.0339 42.4605C72.1349 41.1397 63.0755 38.7314 60.5027 36.3151C56.0816 32.1626 48.0373 26.4028 44.0732 25.9442C42.93 25.8119 41.2768 25.6098 40.0489 25.5156M35.5455 39.8931C34.4143 39.5227 32.2629 38.2352 32.706 36.048M35.5455 39.8931C36.6493 39.8569 39.5615 39.662 42.3802 39.1715C43.3393 39.0045 43.9478 38.7032 44.2841 38.3448M32.706 36.048C34.0691 37.0215 35.1991 36.7634 35.5191 35.4375M34.884 32.1626C35.6608 32.8518 35.7255 34.5823 35.5191 35.4375M35.5191 35.4375C37.3984 35.688 41.265 35.536 42.3802 35.6162C44.2841 35.7533 45.1832 37.3864 44.2841 38.3448M39.5433 42.4375C39.5433 42.4375 43.0791 41.8916 44.632 41.5873C46.5731 41.2069 46.9875 38.4424 44.2841 38.3448" stroke="#FF7A5C" stroke-width="0.875" stroke-linecap="round" stroke-linejoin="round"/>
<path d="M38.5 23.1875L41.5625 28M37.1875 23.625L39.8125 27.5625" stroke="#786DF5" stroke-width="0.875"/>
</g>
<defs>
<clipPath id="clip0">
<rect width="77" height="56" fill="white"/>
</clipPath>
</defs>
</svg>
