<svg width="77" height="56" viewBox="0 0 77 56" fill="none" xmlns="http://www.w3.org/2000/svg">
<g clip-path="url(#clip0)">
<path d="M6.1914 0.875C3.3914 0.875 4.4414 10.7917 5.3164 15.75H7.06644C7.94142 10.7917 8.9914 0.875 6.1914 0.875Z" stroke="#786DF5" stroke-width="0.875" stroke-linecap="round" stroke-linejoin="round"/>
<path d="M6.1914 18.375C4.44144 18.375 4.87886 21 6.1914 21C7.50394 21 7.94136 18.375 6.1914 18.375Z" stroke="#786DF5" stroke-width="0.875" stroke-linecap="round" stroke-linejoin="round"/>
<path d="M38.0625 40.25C36.0393 40.25 36.798 47.5797 37.4302 51.2446H38.6948C39.327 47.5797 40.0857 40.25 38.0625 40.25Z" stroke="#786DF5" stroke-width="0.875" stroke-linecap="round" stroke-linejoin="round"/>
<path d="M38.0625 53.1848C36.798 53.1848 37.1141 55.125 38.0625 55.125C39.0109 55.125 39.327 53.1848 38.0625 53.1848Z" stroke="#786DF5" stroke-width="0.875" stroke-linecap="round" stroke-linejoin="round"/>
<path d="M62.125 28.875C59.4274 28.875 60.439 38.7917 61.282 43.75H62.968C63.811 38.7917 64.8226 28.875 62.125 28.875Z" stroke="#786DF5" stroke-width="0.875" stroke-linecap="round" stroke-linejoin="round"/>
<path d="M62.125 46.375C60.439 46.375 60.8604 49 62.125 49C63.3895 49 63.811 46.375 62.125 46.375Z" stroke="#786DF5" stroke-width="0.875" stroke-linecap="round" stroke-linejoin="round"/>
<path d="M74.4414 9.625C71.6414 9.625 72.6914 19.5417 73.5664 24.5H75.3164C76.1914 19.5417 77.2414 9.625 74.4414 9.625Z" stroke="#786DF5" stroke-width="0.875" stroke-linecap="round" stroke-linejoin="round"/>
<path d="M74.4414 27.125C72.6914 27.125 73.1289 29.75 74.4414 29.75C75.7539 29.75 76.1914 27.125 74.4414 27.125Z" stroke="#786DF5" stroke-width="0.875" stroke-linecap="round" stroke-linejoin="round"/>
<path d="M50.8164 0.875C48.0164 0.875 49.0664 10.7917 49.9414 15.75H51.6914C52.5664 10.7917 53.6164 0.875 50.8164 0.875Z" stroke="#786DF5" stroke-width="0.875" stroke-linecap="round" stroke-linejoin="round"/>
<path d="M50.8164 18.375C49.0664 18.375 49.5039 21 50.8164 21C52.1289 21 52.5664 18.375 50.8164 18.375Z" stroke="#786DF5" stroke-width="0.875" stroke-linecap="round" stroke-linejoin="round"/>
<path d="M30.1842 29.846C30.191 28.5915 31.1031 24.7524 32.4956 21.5223C34.0924 17.8182 36.9297 12.9276 38.8233 8.28246C39.9912 5.41776 37.5238 4.10486 35.8285 7.19814C35.135 8.46364 30.6972 15.545 28.6932 19.3147C28.6932 19.3147 32.3603 9.01015 33.7008 5.66074C35.0414 2.31133 32.3421 1.44056 30.9623 4.22178C29.7795 6.60578 24.3783 17.8163 24.3783 17.8163C24.3783 17.8163 26.5617 9.85036 27.8018 5.42849C28.198 4.01582 28.0347 2.90611 27.2583 2.62498C26.556 2.3707 25.8567 3.09815 25.1774 4.36011C22.9599 8.47947 19.7478 18.2487 19.7478 18.2487C19.7478 18.2487 19.5406 15.0327 21.1357 9.70814C21.7098 7.79178 21.3848 7.26881 20.7747 7.11615C20.1104 6.94992 19.4265 7.52057 18.7569 8.52912C17.123 10.9903 16.2412 16.0543 15.0545 19.3147C10.9378 30.625 12.4489 33.1179 10.6553 35.6003C9.22048 37.5861 3.83793 44.3559 0.875276 46.7132L12.8832 55.3894C15.2653 51.3454 19.5491 45.4167 20.9839 43.4308C22.7775 40.9485 25.4602 42.4406 29.0113 39.1475C35.5543 33.0801 37.8826 31.3517 38.4647 27.4544C38.9859 23.9658 40.7318 22.0757 39.3133 21.0508C37.8948 20.0259 36.6137 21.799 35.4309 24.1829C34.2482 26.5669 33.5454 28.3901 32.1659 29.5523C31.0623 30.4821 27.2894 28.7277 22.1362 31.4813" stroke="#FF7A5C" stroke-width="0.875" stroke-linecap="round" stroke-linejoin="round"/>
</g>
<defs>
<clipPath id="clip0">
<rect width="77" height="56" fill="white"/>
</clipPath>
</defs>
</svg>
