<svg width="77" height="56" viewBox="0 0 77 56" fill="none" xmlns="http://www.w3.org/2000/svg">
<g clip-path="url(#clip0)">
<path d="M37.4496 13.5627V0.4375C37.4496 0.4375 41.4061 0.4375 50.7499 0.4375M47.2499 18.8127H50.7499M50.7499 0.4375C52.1696 0.4375 53.7137 0.4375 55.3872 0.4375L55.3872 18.8127H50.7499M50.7499 0.4375V18.8127" stroke="#786DF5" stroke-width="0.875" stroke-linecap="round" stroke-linejoin="round"/>
<path d="M39.8126 44.6248V40.6874C39.8126 40.6874 20.0798 40.6874 6.5625 40.6874M33.2501 49.8748H6.5625M6.5625 40.6874C4.48924 40.6874 2.5622 40.6874 0.875 40.6874V49.8748H6.5625M6.5625 40.6874V49.8748M12.25 40.6874V49.8748M17.9375 40.6874V49.8748M23.625 40.6874V49.8748M29.3125 40.6874V49.8748M5.25 30.1875V35.875H20.125V30.1875H5.25ZM61.25 0.4375V3.5H76.125V0.4375H61.25Z" stroke="#786DF5" stroke-width="0.875" stroke-linecap="round" stroke-linejoin="round"/>
<path d="M29.4331 10.8042C32.2823 13.0784 36.1549 13.7216 39.6231 14.3951C41.9501 14.8469 45.3661 15.4046 46.9482 17.2997C47.5224 17.9875 47.2839 18.9906 46.5989 19.4975C46.0665 19.8916 45.2733 20.0897 43.9447 20.0794C43.0262 20.0723 41.7608 19.9953 40.2324 19.7863M38.9094 19.5925C39.3768 19.665 39.8173 19.7295 40.2324 19.7863M38.9094 19.5925C38.2921 19.4968 37.662 19.4334 37.023 19.3949C35.7386 19.3176 34.4181 19.3412 33.0937 19.4061C32.3569 19.4421 31.6189 19.491 30.8852 19.5423M38.9094 19.5925C37.985 19.7199 35.6429 20.6345 34.7084 21.8182M40.2324 19.7863C39.2013 20.6574 37.7587 22.1334 38.216 23.6355M38.216 23.6355L35.9775 24.0412C35.373 24.1424 34.9135 23.9775 34.6538 23.6585C34.1348 23.0212 34.2583 22.3885 34.7084 21.8182M38.216 23.6355C38.5478 24.7256 39.7849 24.6577 40.5037 23.9389C41.2094 23.2332 43.6374 20.8634 45.0513 20.0271M37.3347 5.79368C37.3347 5.79368 35.8732 4.35548 34.1197 3.93752C30.9746 3.18784 20.7953 6.10698 15.0358 4.78827C12.9307 4.30629 9.12486 2.54217 5.05837 0.43741L0.941112 11.6869C4.11344 12.3934 6.89103 13.0641 8.6683 13.5573C15.5941 15.4793 15.413 16.9244 20.2018 18.9611C23.0512 20.173 26.9053 19.8208 30.8852 19.5423M30.8852 19.5423C28.9995 20.5 29.4331 21.8182 31.1752 21.8182H34.7084" stroke="#FF7A5C" stroke-width="0.875" stroke-linecap="round" stroke-linejoin="round"/>
<path d="M48.7404 38.965C46.5769 41.8991 43.0028 43.5226 39.827 45.0708C37.6963 46.1095 34.541 47.5324 33.5033 49.7723C33.1267 50.5854 33.6167 51.4925 34.4095 51.8049C35.0257 52.0477 35.8432 52.0338 37.1239 51.68C38.0093 51.4354 39.2116 51.0335 40.6338 50.436M41.8616 49.9064C41.4289 50.0974 41.0201 50.2737 40.6338 50.436M41.8616 49.9064C42.4331 49.6542 43.0253 49.4299 43.6326 49.2274M41.8616 49.9064C43.2335 49.7342 48.0592 50.4259 47.0246 52.7324M40.6338 50.436C41.8553 51.0106 43.6307 52.0629 43.5778 53.6322M43.5778 53.6322L45.845 53.4447C46.4551 53.386 46.8562 53.1078 47.0246 52.7324M43.5778 53.6322C43.5394 54.771 42.3269 55.0256 41.4466 54.5174C40.5823 54.0184 37.6237 52.3577 36.0415 51.9159M47.0246 52.7324C47.6464 52.627 49.0994 52.4534 49.9084 52.3333C51.2613 52.1324 51.5753 50.7526 49.9084 50.0546M43.6326 49.2274C44.8533 48.8203 46.1348 48.5013 47.4309 48.2211C48.1519 48.0653 48.8774 47.9215 49.5994 47.7812M43.6326 49.2274C45.6319 49.353 48.0174 49.2627 49.9084 50.0546M35.4374 40.6876C35.4374 40.6876 39.3744 35.2012 42.4362 33.5452C45.2802 32.0071 55.8681 32.1922 61.0901 29.4277C62.9987 28.4173 66.2183 25.7283 69.6015 22.6427L76.49 32.4433C73.6086 33.9468 71.0993 35.3135 69.5102 36.2499C63.3178 39.899 63.8668 41.248 59.7683 44.4547C57.3297 46.3628 53.5157 47.0201 49.5994 47.7812M49.9084 50.0546C50.2803 49.6116 50.7393 48.5367 49.5994 47.7812" stroke="#FF7A5C" stroke-width="0.875" stroke-linecap="round" stroke-linejoin="round"/>
<path d="M30.625 40.6875C32.7665 40.6875 34.8356 40.6875 36.75 40.6875" stroke="#786DF5" stroke-width="0.875" stroke-linecap="round" stroke-linejoin="round"/>
<path d="M37.4507 3.5V10.0625" stroke="#786DF5" stroke-width="0.875"/>
</g>
<defs>
<clipPath id="clip0">
<rect width="77" height="56" fill="white"/>
</clipPath>
</defs>
</svg>
