<svg width="77" height="56" viewBox="0 0 77 56" fill="none" xmlns="http://www.w3.org/2000/svg">
<path d="M34.5 35V23H44.5V35H34.5Z" stroke="#786DF5" stroke-width="0.765625" stroke-linecap="round" stroke-linejoin="round"/>
<path d="M0.875 55.125V43.75H8.75V55.125H0.875Z" stroke="#786DF5" stroke-width="0.765625" stroke-linecap="round" stroke-linejoin="round"/>
<path d="M76.5625 14.4339V1.5513C72.8694 1.47178 61.1835 1.26505 59.2977 1.0742C56.9403 0.835629 55.7617 0.358494 53.4044 1.31276C51.0471 2.26703 41.1463 5.12983 38.3175 5.84553C37.9776 5.93153 37.665 6.00719 37.3746 6.07583C35.3316 5.60145 30.8213 4.74812 29.124 5.12983C27.0024 5.60696 23.9379 5.84553 22.7593 5.84553C21.5806 5.84553 21.5806 7.27693 22.7593 7.75407C23.7022 8.13577 26.6095 8.05392 27.9454 7.96529C26.9381 8.16085 26.1427 8.34066 25.8238 8.46977C24.6451 8.94691 22.2878 11.3326 21.1091 13.2411C19.9305 15.1497 17.8089 16.8196 18.5161 17.7739C19.0818 18.5373 20.7948 17.6253 21.5806 17.0739C20.8173 18.7349 19.8361 20.9311 19.2233 22.0681C17.8089 24.6923 21.062 24.9309 22.7593 22.0681C24.1736 19.6824 25.3523 17.0582 27.2382 15.8654C29.124 14.6725 33.2571 13.448 32.8957 14.9111C32.66 15.8654 29.3125 17.9376 29.3125 20.5626C29.3125 22.7501 29.6939 26.6878 29.3125 28.8751C28.6259 32.8126 32.4372 32.3751 33.25 28.4376C33.7059 26.229 33.254 22.6038 33.7894 21.4658C35.0665 18.7512 41.5625 14.4339 43.5036 16.2883C45.2186 17.9266 44.3126 21.6309 43.5036 23.6533C42.6286 25.8408 42.3823 28.4658 43.5036 30.6533C44.625 32.8408 47.4411 33.7158 46.5661 29.7784C45.895 26.7585 49 23.6533 51.1875 21.0283C52.7719 19.127 53.8514 14.9202 55.7495 12.2868C56.2567 11.7535 56.8411 11.4006 57.6475 11.3326C59.9106 11.1417 72.4765 13.3206 76.5625 14.4339Z" fill="#140C28"/>
<path d="M21.5806 17.0739C20.8173 18.7349 19.8361 20.9311 19.2233 22.0681C17.8089 24.6923 21.062 24.9309 22.7593 22.0681C24.1736 19.6824 25.3523 17.0582 27.2382 15.8654C29.124 14.6725 33.2571 13.448 32.8957 14.9111C32.66 15.8654 29.3125 17.9376 29.3125 20.5626C29.3125 22.7501 29.6939 26.6878 29.3125 28.8751C28.6259 32.8126 32.4372 32.3751 33.25 28.4376C33.7059 26.229 33.254 22.6038 33.7894 21.4658C35.0665 18.7512 41.5625 14.4339 43.5036 16.2883C45.2186 17.9266 44.3126 21.6309 43.5036 23.6533C42.6286 25.8408 42.3823 28.4658 43.5036 30.6533C44.625 32.8408 47.4411 33.7158 46.5661 29.7784C45.895 26.7585 49 23.6533 51.1875 21.0283C52.7719 19.127 53.8514 14.9202 55.7495 12.2868C56.2567 11.7535 56.8411 11.4006 57.6475 11.3326C59.9106 11.1417 72.4765 13.3206 76.5625 14.4339V1.5513C72.8694 1.47178 61.1835 1.26505 59.2977 1.0742C56.9403 0.835628 55.7617 0.358493 53.4044 1.31276C51.047 2.26703 41.1463 5.12983 38.3175 5.84553C37.9776 5.93153 37.665 6.00719 37.3746 6.07583M21.5806 17.0739C22.579 14.9011 23.6078 12.8277 24.4094 12.2868C25.8238 11.3326 30.7741 8.9469 32.66 7.75407C33.2781 7.36308 33.795 7.10025 34.3101 6.89837M21.5806 17.0739C20.7948 17.6253 19.0818 18.5373 18.5161 17.7739C17.8089 16.8196 19.9305 15.1497 21.1091 13.2411C22.2878 11.3326 24.6451 8.9469 25.8238 8.46977C26.1427 8.34066 26.9381 8.16085 27.9454 7.96529M34.3101 6.89837C32.6981 7.13975 29.9161 7.58266 27.9454 7.96529M34.3101 6.89837C35.1778 6.55834 36.0406 6.3912 37.3746 6.07583M27.9454 7.96529C26.6095 8.05392 23.7022 8.13577 22.7593 7.75407C21.5806 7.27693 21.5806 5.84553 22.7593 5.84553C23.9379 5.84553 27.0024 5.60696 29.124 5.12983C30.8213 4.74812 35.3316 5.60145 37.3746 6.07583" stroke="#FF7A5C" stroke-width="0.765625" stroke-linecap="round" stroke-linejoin="round"/>
<path d="M12.25 55.125V43.75H31.5V55.125H12.25Z" stroke="#786DF5" stroke-width="0.765625" stroke-linecap="round" stroke-linejoin="round"/>
<path d="M47.5 55V44H76.5V55H47.5Z" stroke="#786DF5" stroke-width="0.765625" stroke-linecap="round" stroke-linejoin="round"/>
</svg>
