<svg width="77" height="56" viewBox="0 0 77 56" fill="none" xmlns="http://www.w3.org/2000/svg">
<path d="M20.125 33.2502H7.43753C7.2917 26.2502 7.08753 12.2502 7.43753 12.2502C7.63213 12.2502 20.0975 12.2502 34.5625 12.2502M63.875 33.2502H67.8125V12.2502C59.8289 12.2502 48.6412 12.2502 38.0625 12.2502M34.5625 12.2502C31.7917 10.0627 26.95 5.33769 29.75 3.93769C32.55 2.53769 34.7083 8.89602 35.4375 12.2502M34.5625 12.2502C34.8534 12.2502 35.1451 12.2502 35.4375 12.2502M34.5625 12.2502C31.2083 9.77104 23.1875 5.16273 17.9375 6.56273C11.375 8.31273 6.125 10.5002 0.875 3.06273M35.4375 12.2502C35.7285 12.2502 36.0202 12.2502 36.3125 12.2502M36.3125 12.2502C36.0208 7.72936 37.1 -0.787289 43.75 1.3127C50.4 3.41269 42.7292 9.47936 38.0625 12.2502M36.3125 12.2502C36.8935 12.2502 37.4771 12.2502 38.0625 12.2502M38.0625 12.2502C38.9375 11.7134 52.0625 2.18773 56.875 3.50023C61.6875 4.81273 53.8125 10.5002 61.6875 9.18773C66.0625 8.45856 67.375 3.50023 76.125 5.25023M43.3125 17.5002V22.3127H63.4375V17.5002H43.3125Z" stroke="#786DF5" stroke-width="0.875" stroke-linecap="round" stroke-linejoin="round"/>
<path d="M0.875 45.0627C7.03633 40.9268 19.6351 33.5037 21.3754 32.6262C24.38 31.1113 28.769 31.2476 31.1215 32.6262C33.474 34.0049 37.1708 34.0049 41.2037 33.6602C42.6128 33.5398 43.7101 33.5035 44.5644 33.5661C45.6846 33.3677 48.3688 32.902 50.1437 32.6262C52.3623 32.2816 59.2334 31.5922 60.5777 31.5922C62.4581 31.5922 63.7268 31.6569 63.8684 33.0355C63.968 34.0049 62.9282 34.4787 61.237 35.0388C61.0047 35.3667 60.5952 35.6305 60.0237 35.7282C58.0073 36.0728 46.5808 39.5194 43.8923 40.5534C41.2037 41.5874 39.8594 42.966 37.5069 42.6214C35.1544 42.2767 26.7305 41.214 24.064 42.6214C21.6625 43.8888 12.9896 51.2594 8.3966 55.1655L0.875 45.0627Z" fill="#140C28"/>
<path d="M27.5625 38.0627C35.2922 38.4073 35.9717 39.514 38.9375 38.5002C40.4862 37.9707 42.2461 37.5284 43.3125 37.1877C44.1875 36.908 48.1462 36.6623 46.9448 34.4787M46.9448 34.4787C49.4177 34.8234 56.3269 32.9709 59.0155 32.9709C61.237 32.9709 61.8242 34.2098 61.237 35.0388M46.9448 34.4787C46.6801 33.9976 46.126 33.6602 44.5644 33.5661M61.237 35.0388C61.0047 35.3667 60.5952 35.6305 60.0237 35.7282C58.0073 36.0728 46.5808 39.5194 43.8923 40.5534C41.2037 41.5874 39.8594 42.966 37.5069 42.6214C35.1544 42.2767 26.7305 41.214 24.064 42.6214C21.6625 43.8888 12.9896 51.2594 8.3966 55.1655L0.875 45.0627C7.03633 40.9268 19.6351 33.5037 21.3754 32.6262C24.38 31.1113 28.769 31.2476 31.1215 32.6262C33.474 34.0049 37.1708 34.0049 41.2037 33.6602C42.6128 33.5398 43.7101 33.5035 44.5644 33.5661M61.237 35.0388C62.9282 34.4787 63.968 34.0049 63.8684 33.0355C63.7268 31.6569 62.4581 31.5922 60.5777 31.5922C59.2334 31.5922 52.3623 32.2816 50.1437 32.6262C48.3688 32.902 45.6846 33.3677 44.5644 33.5661" stroke="#FF7A5C" stroke-width="0.875" stroke-linecap="round" stroke-linejoin="round"/>
</svg>
