<svg width="77" height="56" viewBox="0 0 77 56" fill="none" xmlns="http://www.w3.org/2000/svg">
<path d="M27.5625 38.0627C35.2922 38.4073 35.9717 39.514 38.9375 38.5002C40.4862 37.9707 42.2461 37.5284 43.3125 37.1877C44.1875 36.908 48.1462 36.6623 46.9448 34.4787M46.9448 34.4787C49.4177 34.8234 56.3269 32.9709 59.0155 32.9709C61.237 32.9709 61.8242 34.2098 61.237 35.0388M46.9448 34.4787C46.6801 33.9976 46.126 33.6602 44.5644 33.5661M61.237 35.0388C61.0047 35.3667 60.5952 35.6305 60.0237 35.7282C58.0073 36.0728 46.5808 39.5194 43.8923 40.5534C41.2037 41.5874 39.8594 42.966 37.5069 42.6214C35.1544 42.2767 26.7305 41.214 24.064 42.6214C21.6625 43.8888 12.9896 51.2594 8.3966 55.1655L0.875 45.0627C7.03633 40.9268 19.6351 33.5037 21.3754 32.6262C24.38 31.1113 28.769 31.2476 31.1215 32.6262C33.474 34.0049 37.1708 34.0049 41.2037 33.6602C42.6128 33.5398 43.7101 33.5035 44.5644 33.5661M61.237 35.0388C62.9282 34.4787 63.968 34.0049 63.8684 33.0355C63.7268 31.6569 62.4581 31.5922 60.5777 31.5922C59.2334 31.5922 52.3623 32.2816 50.1437 32.6262C48.3688 32.902 45.6846 33.3677 44.5644 33.5661" stroke="#FF7A5C" stroke-width="0.875" stroke-linecap="round" stroke-linejoin="round"/>
<path d="M36.3125 0.875L35.4375 3.5L32.8125 4.8125L30.1875 3.5L28.875 4.8125L30.1875 7.4375L28.875 10.0625L26.25 11.375V13.5625L28.875 14.4375L30.1875 17.0625L28.875 19.6875L30.1875 21L32.8125 20.125L35.4375 21L36.3125 23.625H38.9375L39.8125 21L42.4375 20.125L45.0625 21L46.375 19.6875L45.0625 17.0625L46.375 14.4375L49 13.5625V11.375L46.375 10.0625L45.0625 7.4375L46.375 4.8125L45.0625 3.5L42.4375 4.8125L39.8125 3.5L38.5 0.875H36.3125Z" stroke="#786DF5" stroke-width="0.875"/>
<path d="M7.06731 9.625L6.52885 11.2404L4.91346 12.0481L3.29808 11.2404L2.49038 12.0481L3.29808 13.6635L2.49038 15.2788L0.875 16.0865V17.4327L2.49038 17.9712L3.29808 19.5865L2.49038 21.2019L3.29808 22.0096L4.91346 21.4712L6.52885 22.0096L7.06731 23.625H8.68269L9.22115 22.0096L10.8365 21.4712L12.4519 22.0096L13.2596 21.2019L12.4519 19.5865L13.2596 17.9712L14.875 17.4327V16.0865L13.2596 15.2788L12.4519 13.6635L13.2596 12.0481L12.4519 11.2404L10.8365 12.0481L9.22115 11.2404L8.41346 9.625H7.06731Z" stroke="#786DF5" stroke-width="0.875"/>
<path d="M68.3173 9.625L67.7788 11.2404L66.1635 12.0481L64.5481 11.2404L63.7404 12.0481L64.5481 13.6635L63.7404 15.2788L62.125 16.0865V17.4327L63.7404 17.9712L64.5481 19.5865L63.7404 21.2019L64.5481 22.0096L66.1635 21.4712L67.7788 22.0096L68.3173 23.625H69.9327L70.4712 22.0096L72.0865 21.4712L73.7019 22.0096L74.5096 21.2019L73.7019 19.5865L74.5096 17.9712L76.125 17.4327V16.0865L74.5096 15.2788L73.7019 13.6635L74.5096 12.0481L73.7019 11.2404L72.0865 12.0481L70.4712 11.2404L69.6635 9.625H68.3173Z" stroke="#786DF5" stroke-width="0.875"/>
</svg>
