<svg width="77" height="56" viewBox="0 0 77 56" fill="none" xmlns="http://www.w3.org/2000/svg">
<g clip-path="url(#clip0)">
<path d="M0.4375 50.75L3.5 7H11.6752L11.8125 3.5H16.1389L16.1875 0.875H42.4375L47.25 5.6875H42.4375V24.0625V43.75V50.75H38.5L38.0625 55.125H10.0625L9.1875 50.75H0.4375Z" fill="#140C28"/>
<path d="M3.5 7L0.4375 50.75H9.1875M3.5 7L9.1875 50.75M3.5 7H11.6752M10.0625 55.125H38.0625L38.5 50.75M10.0625 55.125L9.1875 50.75M10.0625 55.125L11.6752 7M11.8125 3.5L15.3125 50.75M11.8125 3.5L11.6752 7M11.8125 3.5H16.1389M15.3125 50.75L16.1389 3.5M15.3125 50.75H38.5M16.1875 0.875L21.4375 5.6875H42.4375M16.1875 0.875H42.4375L47.25 5.6875H42.4375M16.1875 0.875L16.1389 3.5M42.4375 5.6875V24.0625V43.75V50.75H38.5M18.375 39.375H38.5M18.375 35H34.125M18.375 30.1875H38.5" stroke="#786DF5" stroke-width="0.875" stroke-linecap="round" stroke-linejoin="round"/>
<path d="M59.9375 42C62.3469 42.4443 73.3051 46.1953 76.5625 48.125L76.5625 32.375C71.9356 31.5881 62.8481 29.0916 60.4815 28.4575C57.5234 27.6649 57.963 24.6268 53.6217 22.4803C45.6228 18.5252 43.1789 16.9645 39.3296 17.8076C35.884 18.5623 33.4963 17.6034 33.0434 19.2937C32.5904 20.9841 34.7034 21.5503 37.3522 21.8071C40.001 22.0639 41.9549 22.0718 43.5321 22.9473C43.8372 23.1167 44.0512 23.4879 44.2626 24.0075C44.0329 24.0936 43.3125 24.9373 42.4375 24.9373L42.4374 42.8749C56.8749 43.7499 55.878 41.2512 59.9375 42Z" fill="#140C28"/>
<path d="M44.2626 24.0075C44.0329 24.0936 43.3125 24.9373 42.4375 24.9373L42.4374 42.8749C56.8749 43.7499 55.878 41.2512 59.9375 42C62.3469 42.4443 73.3051 46.1953 76.5625 48.125L76.5625 32.375C71.9356 31.5881 62.8481 29.0916 60.4815 28.4575C57.5234 27.6649 57.963 24.6268 53.6217 22.4803C45.6228 18.5252 43.1789 16.9646 39.3296 17.8076C35.884 18.5623 33.4963 17.6034 33.0434 19.2937C32.5904 20.9841 34.7034 21.5503 37.3522 21.8071C40.001 22.0639 41.9549 22.0718 43.5321 22.9473C44.7938 23.6477 44.497 27.7979 48.9044 31.6338" stroke="#FF7A5C" stroke-width="0.875" stroke-linecap="round" stroke-linejoin="round"/>
<path d="M42.4375 24.0625V43.75" stroke="#786DF5" stroke-width="0.875" stroke-linecap="round" stroke-linejoin="round"/>
</g>
<defs>
<clipPath id="clip0">
<rect width="77" height="56" fill="white"/>
</clipPath>
</defs>
</svg>
