<svg width="77" height="56" viewBox="0 0 77 56" fill="none" xmlns="http://www.w3.org/2000/svg">
<path d="M57.208 17.9199C56.7299 16.3928 55.8694 13.5297 54.8176 11.7163C54.4814 11.1367 53.9791 10.5765 53.3639 9.99846M47.8751 5.13107C48.0352 5.32181 48.2136 5.51314 48.4116 5.70367C50.233 7.45676 52.0543 8.76816 53.3639 9.99846M47.8751 5.13107C47.7141 4.93914 47.5716 4.74779 47.4464 4.55844M47.8751 5.13107C47.3358 5.46218 46.2288 6.13329 45.065 6.81923M53.3639 9.99846C52.277 9.34535 51.517 8.9795 50.8974 8.81795M54.313 5.70367C52.1006 4.05116 49.7482 2.36139 48.794 1.40892C47.2121 -0.170132 45.7644 2.01408 47.4464 4.55844M54.313 5.70367C55.5884 6.65628 56.8172 7.59652 57.705 8.376M54.313 5.70367C56.2517 6.37178 57.1504 5.51283 57.705 8.376M57.705 8.376C58.2091 8.81863 58.6032 9.20943 58.8334 9.52123C60.172 11.3346 63.0404 16.3928 64.3789 18.397C65.7175 20.4013 68.2991 30.4224 70.5938 35.8624C72.4295 40.2144 75.1919 50.6633 76.5623 55.5625H63.9414C63.4373 52.5 62.2593 43.1302 61.7973 41.2242M50.8974 8.81795C51.4711 9.49777 52.7332 11.0865 53.1921 12.0027C53.7658 13.1479 55.0089 14.7704 55.0089 17.1564M50.8974 8.81795C50.0958 8.60895 49.5292 8.74188 48.794 9.03714M47.4464 4.55844C46.9773 4.55844 43.7264 5.26247 45.065 6.81923M45.065 6.81923C44.5515 7.12189 44.0269 7.42743 43.5352 7.70793C41.5273 8.85319 43.0571 11.1437 46.4036 9.99846C47.4662 9.63478 48.1875 9.28072 48.794 9.03714M48.794 9.03714C48.794 9.52123 50.3237 10.2848 50.8974 11.1437C51.4711 12.0027 53.5551 15.6293 53.5551 17.9199C53.5551 20.2104 53.6625 22.8297 55.3144 27.4108M57.8962 24.3143C57.1598 26.064 55.114 29.1594 52.0625 27.125C46.8125 23.625 42.6 21.3557 40.6877 24.3143C39.8272 26.0322 42.8752 26.837 45.3854 29.2176C47.2975 31.031 49.5656 30.185 53.5551 35.8624C56.6589 40.2794 59.4858 40.7453 61.7973 41.2242M65.2393 42.8295C64.2944 41.7815 63.1318 41.5007 61.7973 41.2242" stroke="#FF7A5C" stroke-width="0.875" stroke-linecap="round" stroke-linejoin="round"/>
<rect x="13.5625" y="29.3125" width="21.875" height="21.875" rx="3.0625" stroke="#786DF5" stroke-width="0.875"/>
<path d="M19.25 45.5L21.5 40.25M29.75 45.5L27.5 40.25M21.5 40.25L24.5 33.25L27.5 40.25M21.5 40.25H27.5" stroke="#786DF5" stroke-width="0.875" stroke-linecap="round" stroke-linejoin="round"/>
<rect x="0.4375" y="0.4375" width="16.625" height="16.625" rx="3.0625" stroke="#786DF5" stroke-width="0.875"/>
<path d="M4.375 12.25C5.83333 12.25 8.75 10.675 8.75 4.375C8.75 10.675 11.6667 12.25 13.125 12.25" stroke="#786DF5" stroke-width="0.875" stroke-linecap="round" stroke-linejoin="round"/>
<path d="M33.6875 10.9375H42.875C44.0831 10.9375 45.0625 11.9169 45.0625 13.125V22.3125H35.875C34.6669 22.3125 33.6875 21.3331 33.6875 20.125V10.9375Z" stroke="#786DF5" stroke-width="0.875"/>
</svg>
