<svg width="77" height="56" viewBox="0 0 77 56" fill="none" xmlns="http://www.w3.org/2000/svg">
<g clip-path="url(#clip0)">
<path d="M40.9899 10.4854C40.531 11.4084 39.5074 13.0214 38.1782 14.2133M39.5057 12.5749C39.5057 10.1869 36.5373 10.7839 35.0532 10.4854C33.569 10.1869 30.8975 12.2764 29.4133 12.8734C28.7122 13.1554 28.2792 14.8073 28 16.1875M32.3816 16.7102C33.588 16.3031 34.8675 15.8844 35.9437 15.5598C36.745 15.318 37.5012 14.8203 38.1782 14.2133M32.3816 16.7102C32.0848 16.4262 31.6692 15.6792 32.3816 14.9628C33.2722 14.0673 34.4595 11.9779 35.35 11.9779C36.2405 11.9779 37.7412 13.1652 38.1782 14.2133M32.3816 16.7102C31.7006 16.94 31.0428 17.1662 30.458 17.3696C29.7931 17.601 29.2226 17.803 28.8196 17.9477C28.4398 18.0909 28.0339 18.2723 27.6323 18.4852C23.9746 20.424 23.7556 24.2464 28.2259 23.9175C29.1692 23.8313 30.3107 23.5956 31.5 23.2896C31.9872 23.1643 32.4824 23.0271 32.9753 22.8836M32.9753 22.8836C33.2722 23.022 35.9437 23.619 37.4278 24.216C38.1997 24.5265 38.976 24.2466 39.2291 23.619M32.9753 22.8836C34.9786 22.3004 36.944 21.6123 38.1782 21.1844M38.1782 21.1844C38.4653 21.0848 38.7128 20.9994 38.912 20.9326C39.4232 20.7613 40.2522 20.6391 41.2867 20.552M38.1782 21.1844C39.2506 22.1648 39.4627 23.0399 39.2291 23.619M39.2291 23.619C40.1129 24.1165 41.9991 24.813 42.4741 23.619C42.949 22.4251 41.8804 21.0769 41.2867 20.552M41.2867 20.552C43.8569 20.3356 47.696 20.3356 51.0823 20.3356C55.8316 20.3356 59.0968 18.2462 62.0652 17.0522C63.934 16.3005 70.4955 15.2194 76.5625 14.2133L73.3547 2.72473C67.6383 4.42022 60.44 6.00812 56.7222 6.00812C52.2696 6.00812 42.4741 2.12775 40.693 1.23227C38.912 0.336803 38.0215 1.23227 35.9437 2.72473C33.8658 4.21718 28.2259 7.50053 26.7418 8.396C25.2576 9.29147 25.5544 9.29147 24.3671 13.4703C23.6291 16.0676 23.5792 17.1659 23.647 18.4852" stroke="#FF7A5C" stroke-width="0.875" stroke-linecap="round" stroke-linejoin="round"/>
<path d="M30.1876 17.4999L29.3903 15.6722L6.56299 27.5991L12.7336 39.4093L35.5609 27.4824L32.8126 23.1874" stroke="#786DF5" stroke-width="0.875" stroke-linecap="round" stroke-linejoin="round"/>
<path d="M0.875 36.75V55.125H39.375V36.75M0.875 36.75L20.125 48.125L39.375 36.75M0.875 36.75L8.75 32.0966M0.875 36.75H10.9375M39.375 36.75L29.5312 31.0625M39.375 36.75H17.9375" stroke="#786DF5" stroke-width="0.875" stroke-linecap="round" stroke-linejoin="round"/>
<path d="M59.3047 52.3394C55.9948 52.6913 51.5979 52.7914 49.249 51.7358C46.3548 50.4352 43.1162 49.7481 40.1623 49.7315C37.8882 49.7187 36.1247 49.4363 33.8459 49.1267C32.6405 48.9629 30.7977 49.6317 30.0736 48.5753C29.4464 47.6604 29.6741 46.3856 31.2601 45.5091C32.7015 44.7125 34.2402 44.6037 35.8512 44.5902C36.9735 44.5807 38.1782 44.7231 39.375 44.828V42.4341V36.75L36.3125 35C40.1623 34.125 41.125 33.2598 43.6328 33.2501C46.7114 33.2381 49.4927 34.6462 50.8747 35.3459L50.9035 35.3605C54.8554 37.3611 59.8509 40.2265 62.9175 41.337C67.231 42.664 70.5515 42.1916 76.5841 42.5434V55.5623C71.3345 54.3726 64.056 51.8343 59.3047 52.3394Z" fill="#140C28"/>
<path d="M46.5464 42.4341C45.812 43.7061 44.7981 44.366 43.6328 44.6816M39.375 44.828C38.1782 44.7231 36.9735 44.5807 35.8512 44.5902C34.2402 44.6037 32.7015 44.7125 31.2601 45.5091C29.6741 46.3856 29.4464 47.6604 30.0736 48.5753C30.7977 49.6317 32.6405 48.9629 33.8459 49.1267C36.1247 49.4363 37.8882 49.7187 40.1623 49.7315C43.1162 49.7481 46.3548 50.4352 49.249 51.7358C51.5979 52.7914 55.9948 52.6913 59.3047 52.3394C64.056 51.8343 71.3345 54.3726 76.5841 55.5623V42.5434C70.5515 42.1916 67.231 42.664 62.9175 41.337C59.8509 40.2265 54.8554 37.3611 50.9035 35.3605C49.5316 34.666 46.7329 33.238 43.6328 33.2501C41.125 33.2598 40.1623 34.125 36.3125 35L39.375 36.75V42.4341M39.375 44.828V42.4341M39.375 44.828C40.8644 44.9586 42.3416 45.0314 43.6328 44.6816M39.375 42.4341C40.1718 42.3271 42.139 42.6269 43.6328 44.6816" stroke="#FF7A5C" stroke-width="0.875" stroke-linecap="round" stroke-linejoin="round"/>
<path d="M36.3125 35L39.375 36.75V44.1875" stroke="#786DF5" stroke-width="0.875" stroke-linecap="round" stroke-linejoin="round"/>
<path d="M28.8193 17.9477C29.2223 17.803 29.7928 17.601 30.4577 17.3696M32.975 22.8836C32.4821 23.0271 31.9869 23.1642 31.4997 23.2896" stroke="#FF7A5C" stroke-width="0.875" stroke-linecap="round" stroke-linejoin="round"/>
</g>
<defs>
<clipPath id="clip0">
<rect width="77" height="56" fill="white"/>
</clipPath>
</defs>
</svg>
