<svg width="77" height="56" viewBox="0 0 77 56" fill="none" xmlns="http://www.w3.org/2000/svg">
<g clip-path="url(#clip0)">
<path d="M35.4375 3.5L13.5625 3.5L13.5625 5.25L35.4375 5.25L35.4375 3.5Z" fill="#140C28"/>
<path d="M25.375 19.6875L13.5625 19.6875L13.5625 21.4375L25.375 21.4375L25.375 19.6875Z" fill="#140C28"/>
<path d="M4.375 6.125L7.4375 3.5L7.4375 11.375M13.5625 8.3125L35.4375 8.3125M13.5625 10.5L24.9375 10.5M13.5625 24.5L18.375 24.5M13.5625 26.6875L18.375 26.6875M43.75 34.125L43.75 55.5625L0.437501 55.5625L0.437497 0.437504L43.75 0.4375L43.75 17.0625M13.5625 3.5L35.4375 3.5L35.4375 5.25L13.5625 5.25L13.5625 3.5ZM13.5625 19.6875L25.375 19.6875L25.375 21.4375L13.5625 21.4375L13.5625 19.6875Z" stroke="#786DF5" stroke-width="0.875" stroke-linecap="round" stroke-linejoin="round"/>
<path d="M4.375 21.6563C4.375 21 4.83438 19.6875 6.67188 19.6875C8.96875 19.6875 9.29687 21.6563 8.3125 23.2969C7.525 24.6094 5.35937 26.6875 4.375 27.5625L9.625 27.5625" stroke="#786DF5" stroke-width="0.875" stroke-linecap="round" stroke-linejoin="round"/>
<path d="M5.24999 38.5C5.24999 37.8438 5.94701 36.75 7.1094 36.75C9.40627 36.75 10.0625 39.375 7 40.6875C7 40.6875 10.0625 41.5625 9.18751 43.75C8.69231 44.9881 5.77499 46.2 4.37499 43.75" stroke="#786DF5" stroke-width="0.875" stroke-linecap="round" stroke-linejoin="round"/>
<path d="M44.0715 22.7525C41.4143 21.3583 36.7098 22.6012 35.5423 22.7002C34.7864 22.7854 34.1704 23.4525 33.3485 24.057M48.8938 28.3964C45.5968 29.4732 41.55 26.8695 38.685 25.5513M38.685 25.5513C37.2215 24.878 35.7828 24.3215 34.1394 24.4289C32.3312 24.5471 31.5826 25.6038 31.7607 26.6986M38.685 25.5513L56.2342 23.6055M33.3485 24.057C32.7616 24.4886 32.0698 24.8883 31.147 25.0213C29.9424 25.1949 29.1816 24.9483 28.8375 24.538M33.3485 24.057L54.5063 21.4831M28.8375 24.538C28.4586 24.0862 28.5851 23.4359 29.1808 22.9301C30.9489 21.4286 31.4107 19.7572 33.4481 19.049C35.2818 18.4116 39.26 17.1853 41.2946 17.1364C43.3083 17.088 50.1588 18.6242 52.5584 19.9194C53.1037 20.2138 53.6467 20.4897 54.5063 21.4831M28.8375 24.538L24.3189 25.365L21.7676 26.7758L24.987 27.4567L31.2143 26.7598M31.7607 26.6986L31.2143 26.7598M31.7607 26.6986C31.9664 27.9627 33.5732 28.4906 34.5943 29.1518M31.2143 26.7598C31.1229 26.9541 29.6786 28.5523 30.8669 29.3334C31.5869 29.8066 32.1991 29.9845 32.8668 29.8944M34.5943 29.1518C34.068 29.4298 33.3011 29.8357 32.8668 29.8944M34.5943 29.1518C36.5247 30.4019 38.3457 31.0591 40.3981 32.0386M32.8668 29.8944C32.2839 30.3393 31.3394 31.4109 32.2244 32.1382C32.6775 32.5106 33.2923 32.6235 33.9928 32.5176M37.5619 30.7483C36.4231 31.6885 35.0025 32.3649 33.9928 32.5176M33.9928 32.5176C33.9653 32.785 34.0811 33.4336 34.7641 33.8881C35.6178 34.4563 36.4708 34.5242 37.5963 33.8871C38.4968 33.3773 39.7599 32.3501 40.3981 32.0386M40.3981 32.0386C43.064 33.3108 45.7022 35.3109 47.7677 37.7196C49.4441 39.6745 53.4655 41.4552 56.6104 42.5454C61.1248 44.1105 66.631 49.5052 70.8751 52.8159L76.4159 41.0349C71.1067 38.1491 67.9008 37.1634 64.5622 34.1268C62.2598 31.8167 58.9591 27.0976 56.2342 23.6055M54.5063 21.4831L62.1562 20.5525L62.6476 22.8944L56.2342 23.6055" stroke="#FF7A5C" stroke-width="0.875" stroke-linecap="round" stroke-linejoin="round"/>
</g>
<defs>
<clipPath id="clip0">
<rect width="77" height="56" fill="white"/>
</clipPath>
</defs>
</svg>
